<svg xmlns="http://www.w3.org/2000/svg" xmlns:xlink="http://www.w3.org/1999/xlink" width="103" height="103" viewBox="0 0 103 103">
  <defs>
    <filter id="Trazado_978624" x="0" y="0" width="103" height="103" filterUnits="userSpaceOnUse">
      <feOffset dy="3" input="SourceAlpha"/>
      <feGaussianBlur stdDeviation="3" result="blur"/>
      <feFlood flood-opacity="0.161"/>
      <feComposite operator="in" in2="blur"/>
      <feComposite in="SourceGraphic"/>
    </filter>
  </defs>
  <g id="Grupo_1215837" data-name="Grupo 1215837" transform="translate(-610.5 -4632.033)">
    <g id="Grupo_1213337" data-name="Grupo 1213337" transform="translate(-0.5 4342.033)">
      <g id="Grupo_1211505" data-name="Grupo 1211505" transform="translate(0 -2785)">
        <g id="Grupo_1209502" data-name="Grupo 1209502" transform="translate(419 2761)">
          <g id="Grupo_1180764" data-name="Grupo 1180764" transform="translate(1 -4144)">
            <g id="Grupo_1179463" data-name="Grupo 1179463" transform="translate(200 4464)">
              <g id="Grupo_1144531" data-name="Grupo 1144531">
                <g transform="matrix(1, 0, 0, 1, -9, -6)" filter="url(#Trazado_978624)">
                  <g id="Trazado_978624-2" data-name="Trazado 978624" transform="translate(9 6)" fill="#fef8e9">
                    <path d="M 42.5 83.5 C 36.96437835693359 83.5 31.59512901306152 82.41617584228516 26.54141235351562 80.27863311767578 C 21.65934181213379 78.21369171142578 17.27447128295898 75.25723266601562 13.50862312316895 71.49137878417969 C 9.742764472961426 67.72553253173828 6.786305904388428 63.34066009521484 4.721364498138428 58.45858764648438 C 2.583823442459106 53.40486907958984 1.5 48.03562164306641 1.5 42.5 C 1.5 36.96437835693359 2.583823442459106 31.59512901306152 4.721364498138428 26.54141235351562 C 6.786305904388428 21.65934181213379 9.742764472961426 17.27447128295898 13.50862312316895 13.50862312316895 C 17.27447128295898 9.742764472961426 21.65934181213379 6.786305904388428 26.54141235351562 4.721364498138428 C 31.59512901306152 2.583823442459106 36.96437835693359 1.5 42.5 1.5 C 48.03562164306641 1.5 53.40486907958984 2.583823442459106 58.45858764648438 4.721364498138428 C 63.34066009521484 6.786305904388428 67.72553253173828 9.742764472961426 71.49137878417969 13.50862312316895 C 75.25723266601562 17.27447128295898 78.21369171142578 21.65934181213379 80.27863311767578 26.54141235351562 C 82.41617584228516 31.59512901306152 83.5 36.96437835693359 83.5 42.5 C 83.5 48.03562164306641 82.41617584228516 53.40486907958984 80.27863311767578 58.45858764648438 C 78.21369171142578 63.34066009521484 75.25723266601562 67.72553253173828 71.49137878417969 71.49137878417969 C 67.72553253173828 75.25723266601562 63.34066009521484 78.21369171142578 58.45858764648438 80.27863311767578 C 53.40486907958984 82.41617584228516 48.03562164306641 83.5 42.5 83.5 Z" stroke="none"/>
                    <path d="M 42.5 3 C 37.16621398925781 3 31.99356079101562 4.043960571289062 27.125732421875 6.102882385253906 C 22.42246627807617 8.092185974121094 18.19785308837891 10.94070434570312 14.56928253173828 14.56928253173828 C 10.94070434570312 18.19785308837891 8.092185974121094 22.42246627807617 6.102882385253906 27.125732421875 C 4.043960571289062 31.99356079101562 3 37.16621398925781 3 42.5 C 3 47.83378601074219 4.043960571289062 53.00643920898438 6.102882385253906 57.87425231933594 C 8.092185974121094 62.57753372192383 10.94070434570312 66.80213165283203 14.56928253173828 70.43071746826172 C 18.19786834716797 74.05929565429688 22.42246627807617 76.90781402587891 27.125732421875 78.89711761474609 C 31.99356079101562 80.95603942871094 37.16621398925781 82 42.5 82 C 47.83378601074219 82 53.00642395019531 80.95603942871094 57.87425231933594 78.89711761474609 C 62.57753372192383 76.90781402587891 66.80213165283203 74.05929565429688 70.43071746826172 70.43071746826172 C 74.05929565429688 66.80213165283203 76.90781402587891 62.57753372192383 78.89711761474609 57.87425231933594 C 80.95603942871094 53.00642395019531 82 47.83378601074219 82 42.5 C 82 37.16621398925781 80.95603942871094 31.99356079101562 78.89711761474609 27.125732421875 C 76.90781402587891 22.42246627807617 74.05929565429688 18.19786834716797 70.43071746826172 14.56928253173828 C 66.80213165283203 10.94070434570312 62.57753372192383 8.092185974121094 57.87425231933594 6.102882385253906 C 53.00643920898438 4.043960571289062 47.83378601074219 3 42.5 3 M 42.5 0 C 65.97209167480469 0 85 19.02789306640625 85 42.5 C 85 65.97209167480469 65.97209167480469 85 42.5 85 C 19.02789306640625 85 0 65.97209167480469 0 42.5 C 0 19.02789306640625 19.02789306640625 0 42.5 0 Z" stroke="none" fill="#f8c234"/>
                  </g>
                </g>
              </g>
            </g>
          </g>
        </g>
      </g>
    </g>
    <g id="aprendizaje-electronico_2_" data-name="aprendizaje-electronico (2)" transform="translate(620.514 4648.062)">
      <g id="Grupo_1215835" data-name="Grupo 1215835" transform="translate(9.08 9.08)">
        <g id="Grupo_1215834" data-name="Grupo 1215834" transform="translate(0 0)">
          <path id="Trazado_1086917" data-name="Trazado 1086917" d="M80.811,107.241v33.486H16V107.241A3.241,3.241,0,0,1,19.241,104h58.33A3.241,3.241,0,0,1,80.811,107.241Z" transform="translate(-16 -92.118)" fill="#83d8f4"/>
          <path id="Trazado_1086918" data-name="Trazado 1086918" d="M80.811,376v3.241a3.241,3.241,0,0,1-3.241,3.241H19.241A3.241,3.241,0,0,1,16,379.241V376Z" transform="translate(-16 -327.391)" fill="#e0e0e2"/>
          <path id="Trazado_1086919" data-name="Trazado 1086919" d="M215.123,430.481H200L202.16,424h10.8Z" transform="translate(-175.156 -368.91)" fill="#57565c"/>
          <path id="Trazado_1086920" data-name="Trazado 1086920" d="M168,472h23.764v3.241H168Z" transform="translate(-147.476 -410.429)" fill="#e0e0e2"/>
          <path id="Trazado_1086921" data-name="Trazado 1086921" d="M197.6,80V92.962a28.085,28.085,0,0,1-21.6,0V80" transform="translate(-154.396 -71.358)" fill="#2d2d30"/>
          <circle id="Elipse_12670" data-name="Elipse 12670" cx="1.995" cy="1.995" r="1.995" transform="translate(44.518 23.999)" fill="#ffda44"/>
          <path id="Trazado_1086922" data-name="Trazado 1086922" d="M152.2,28.962,136,22.481,152.2,16l16.2,6.481Z" transform="translate(-119.797 -16)" fill="#3e3d42"/>
        </g>
        <path id="Trazado_1086923" data-name="Trazado 1086923" d="M80,248h21.6v12.962H80Z" transform="translate(-71.358 -216.674)" fill="#ffda44"/>
      </g>
      <g id="Grupo_1215836" data-name="Grupo 1215836" transform="translate(8 8)">
        <path id="Trazado_1086924" data-name="Trazado 1086924" d="M70.651,19.882H56.609V17.157l1.481-.593a1.08,1.08,0,0,0,0-2.006l-16.2-6.481a1.083,1.083,0,0,0-.8,0l-16.2,6.481a1.08,1.08,0,0,0,0,2.006L29.6,18.454v1.429H12.321A4.325,4.325,0,0,0,8,24.2V60.929a4.325,4.325,0,0,0,4.321,4.321H34.586l-1.441,4.321H29.6a1.08,1.08,0,0,0-1.08,1.08v3.241a1.08,1.08,0,0,0,1.08,1.08H53.368a1.08,1.08,0,0,0,1.08-1.08V70.651a1.08,1.08,0,0,0-1.08-1.08H49.826L48.386,65.25H70.651a4.325,4.325,0,0,0,4.321-4.321V24.2A4.325,4.325,0,0,0,70.651,19.882ZM56.609,35a1.08,1.08,0,1,1-1.08-1.08A1.08,1.08,0,0,1,56.609,35ZM28.191,15.561l13.294-5.317L54.78,15.561,41.486,20.879Zm26.257,2.46v1.861h-1.08V18.454Zm-3.241,1.3V29.944a27.046,27.046,0,0,1-19.443,0V19.318l9.321,3.728a1.083,1.083,0,0,0,.8,0Zm1.08,52.414v1.08h-21.6v-1.08Zm-16.864-2.16,1.441-4.321h9.244l1.441,4.321Zm37.388-8.642a2.163,2.163,0,0,1-2.16,2.16H12.321a2.163,2.163,0,0,1-2.16-2.16v-2.16H72.811Zm0-4.321H10.16V24.2a2.163,2.163,0,0,1,2.16-2.16H29.6v8.642a1.081,1.081,0,0,0,.679,1,29.265,29.265,0,0,0,22.406,0,1.081,1.081,0,0,0,.679-1V22.043h1.08v9.722a1.141,1.141,0,0,0,.016.181,3.241,3.241,0,1,0,2.128,0,1.142,1.142,0,0,0,.016-.181V22.043H70.651a2.163,2.163,0,0,1,2.16,2.16Z" transform="translate(-8 -8)"/>
        <path id="Trazado_1086925" data-name="Trazado 1086925" d="M47.561,392H41.08a1.08,1.08,0,0,0,0,2.16h6.481a1.08,1.08,0,0,0,0-2.16Z" transform="translate(-35.679 -340.151)"/>
        <path id="Trazado_1086926" data-name="Trazado 1086926" d="M114.16,392h-1.08a1.08,1.08,0,0,0,0,2.16h1.08a1.08,1.08,0,0,0,0-2.16Z" transform="translate(-97.958 -340.151)"/>
        <path id="Trazado_1086927" data-name="Trazado 1086927" d="M73.08,255.123h21.6a1.08,1.08,0,0,0,1.08-1.08V241.08a1.08,1.08,0,0,0-1.08-1.08H73.08A1.08,1.08,0,0,0,72,241.08v12.962A1.08,1.08,0,0,0,73.08,255.123Zm1.08-12.962H93.6v10.8H74.16Z" transform="translate(-63.358 -208.674)"/>
        <path id="Trazado_1086928" data-name="Trazado 1086928" d="M73.08,218.16h8.642a1.08,1.08,0,1,0,0-2.16H73.08a1.08,1.08,0,1,0,0,2.16Z" transform="translate(-63.358 -187.915)"/>
        <path id="Trazado_1086929" data-name="Trazado 1086929" d="M73.08,194.16h3.241a1.08,1.08,0,1,0,0-2.16H73.08a1.08,1.08,0,1,0,0,2.16Z" transform="translate(-63.358 -167.156)"/>
        <path id="Trazado_1086930" data-name="Trazado 1086930" d="M265.08,242.16h21.6a1.08,1.08,0,1,0,0-2.16h-21.6a1.08,1.08,0,1,0,0,2.16Z" transform="translate(-229.434 -208.674)"/>
        <path id="Trazado_1086931" data-name="Trazado 1086931" d="M265.08,266.16h21.6a1.08,1.08,0,1,0,0-2.16h-21.6a1.08,1.08,0,1,0,0,2.16Z" transform="translate(-229.434 -229.434)"/>
        <path id="Trazado_1086932" data-name="Trazado 1086932" d="M265.08,290.16h17.148a1.08,1.08,0,0,0,0-2.16H265.08a1.08,1.08,0,0,0,0,2.16Z" transform="translate(-229.434 -250.193)"/>
        <path id="Trazado_1086933" data-name="Trazado 1086933" d="M418.16,288h-1.08a1.08,1.08,0,0,0,0,2.16h1.08a1.08,1.08,0,0,0,0-2.16Z" transform="translate(-360.91 -250.193)"/>
        <path id="Trazado_1086934" data-name="Trazado 1086934" d="M265.08,314.16h21.6a1.08,1.08,0,1,0,0-2.16h-21.6a1.08,1.08,0,1,0,0,2.16Z" transform="translate(-229.434 -270.953)"/>
        <path id="Trazado_1086935" data-name="Trazado 1086935" d="M265.08,338.16h17.148a1.08,1.08,0,0,0,0-2.16H265.08a1.08,1.08,0,0,0,0,2.16Z" transform="translate(-229.434 -291.712)"/>
        <path id="Trazado_1086936" data-name="Trazado 1086936" d="M418.16,336h-1.08a1.08,1.08,0,0,0,0,2.16h1.08a1.08,1.08,0,0,0,0-2.16Z" transform="translate(-360.91 -291.712)"/>
      </g>
    </g>
  </g>
</svg>
