<svg xmlns="http://www.w3.org/2000/svg" xmlns:xlink="http://www.w3.org/1999/xlink" width="190" height="184" viewBox="0 0 190 184">
  <defs>
    <clipPath id="clip-path">
      <rect id="Rectángulo_418843" data-name="Rectángulo 418843" width="190" height="184" transform="translate(1229.68 691)" fill="#fff" stroke="#707070" stroke-width="1" opacity="0.54"/>
    </clipPath>
    <clipPath id="clip-path-2">
      <path id="Trazado_1086646" data-name="Trazado 1086646" d="M408.776,201.792c1.834-1.738,4.924-5.117,4.924-5.117s-3.475-15.737-2.9-21.723H366.073c.579,5.986-2.9,21.723-2.9,21.723s3.09,3.379,4.924,5.117Z" transform="translate(-363.176 -174.953)" fill="#c252f0"/>
    </clipPath>
  </defs>
  <g id="Enmascarar_grupo_1098934" data-name="Enmascarar grupo 1098934" transform="translate(-1229.68 -691)" clip-path="url(#clip-path)">
    <g id="Grupo_1215773" data-name="Grupo 1215773" transform="translate(3166.68)">
      <rect id="Rectángulo_418842" data-name="Rectángulo 418842" width="190" height="65" rx="12" transform="translate(-1937 768)" fill="#e6b9f9"/>
      <g id="Grupo_1215771" data-name="Grupo 1215771" transform="translate(-2197.746 631.233)">
        <path id="Trazado_1086644" data-name="Trazado 1086644" d="M447.19,233.528c-1.545-2.373-7.209-4.578-18.923-6.123a49.983,49.983,0,0,0-21.562,2.093l-37.043,2.155L332.62,229.5a49.986,49.986,0,0,0-21.562-2.093c-11.714,1.545-17.378,3.751-18.923,6.123s-4.505,14.6-.644,18.979,35.082,15.962,78.171,15.962,74.309-11.586,78.171-15.962S448.735,235.9,447.19,233.528Z" transform="translate(-7.279 -42.324)" fill="#32345a"/>
        <g id="Grupo_1215694" data-name="Grupo 1215694" transform="translate(315.951 119.734)">
          <path id="Trazado_1086645" data-name="Trazado 1086645" d="M427.6,191.566c-.483-4.827-3.379-16.316-5.6-25.392s-3.572-10.813-8.206-15.93S388.308,139.8,388.308,139.8H374.069s-20.847,5.328-25.482,10.445-5.986,6.855-8.206,15.93-5.117,20.564-5.6,25.392,5.889,10.62,9.365,12.551a5.7,5.7,0,0,0-.483,2.607s8.724,10.62,37.525,14.965c28.8-4.345,37.525-14.965,37.525-14.965a5.7,5.7,0,0,0-.483-2.607C421.706,202.186,428.079,196.393,427.6,191.566Z" transform="translate(-334.755 -139.799)" fill="#f8c234"/>
          <g id="Grupo_1215691" data-name="Grupo 1215691" transform="translate(21.168 26.183)">
            <g id="Grupo_1215690" data-name="Grupo 1215690" clip-path="url(#clip-path-2)">
              <rect id="Rectángulo_418832" data-name="Rectángulo 418832" width="57.413" height="12.283" transform="translate(-3.442 10.115)" fill="#c252f0"/>
              <rect id="Rectángulo_418833" data-name="Rectángulo 418833" width="57.413" height="4.248" transform="translate(-3.442 3.378)" fill="#c252f0"/>
            </g>
          </g>
          <g id="Grupo_1215693" data-name="Grupo 1215693" transform="translate(3.212 10.194)">
            <g id="Grupo_1215692" data-name="Grupo 1215692">
              <path id="Trazado_1086647" data-name="Trazado 1086647" d="M347.363,207.609c4.827,3.089,13.806,7.917,15.833,9.172s4.441,4.152,6.855,3.862,6.662-5.6,7.434-7.531.676-5.31-2.027-6.662-1.931-2.414-4.055-3.958a91.705,91.705,0,0,1-7.337-6.179c-1.835-1.738-4.924-5.117-4.924-5.117s3.475-15.737,2.9-21.723-4.248-17.861-10.234-15.737" transform="translate(-341.184 -153.486)" fill="none" stroke="#886a1c" stroke-linecap="round" stroke-linejoin="round" stroke-miterlimit="10" stroke-width="1"/>
              <path id="Trazado_1086648" data-name="Trazado 1086648" d="M339.067,208.963s8.206-8.5,17.957-5.117" transform="translate(-339.067 -166.134)" fill="none" stroke="#886a1c" stroke-linecap="round" stroke-linejoin="round" stroke-miterlimit="10" stroke-width="1"/>
              <path id="Trazado_1086649" data-name="Trazado 1086649" d="M339.067,204a17.8,17.8,0,0,1,11.393-2.9" transform="translate(-339.067 -165.609)" fill="none" stroke="#886a1c" stroke-linecap="round" stroke-linejoin="round" stroke-miterlimit="10" stroke-width="1"/>
              <path id="Trazado_1086650" data-name="Trazado 1086650" d="M436.361,207.609c-4.827,3.089-13.806,7.917-15.833,9.172s-4.441,4.152-6.855,3.862-6.662-5.6-7.434-7.531-.676-5.31,2.027-6.662,1.931-2.414,4.055-3.958a91.7,91.7,0,0,0,7.337-6.179c1.835-1.738,4.924-5.117,4.924-5.117s-3.475-15.737-2.9-21.723,4.248-17.861,10.234-15.737" transform="translate(-356.101 -153.486)" fill="none" stroke="#886a1c" stroke-linecap="round" stroke-linejoin="round" stroke-miterlimit="10" stroke-width="1"/>
              <path id="Trazado_1086651" data-name="Trazado 1086651" d="M448.967,208.963s-8.206-8.5-17.957-5.117" transform="translate(-362.529 -166.134)" fill="none" stroke="#886a1c" stroke-linecap="round" stroke-linejoin="round" stroke-miterlimit="10" stroke-width="1"/>
              <path id="Trazado_1086652" data-name="Trazado 1086652" d="M451.217,204a17.8,17.8,0,0,0-11.393-2.9" transform="translate(-364.779 -165.609)" fill="none" stroke="#886a1c" stroke-linecap="round" stroke-linejoin="round" stroke-miterlimit="10" stroke-width="1"/>
            </g>
          </g>
        </g>
        <path id="Trazado_1086653" data-name="Trazado 1086653" d="M387.581,129.4a24.711,24.711,0,0,1-.767,10.086s3.007,4.924,8.729,4.441,6.59-3.647,6.59-3.647a36.763,36.763,0,0,1-.684-10.879H387.581Z" transform="translate(-32.089 -17.41)" fill="#d18282"/>
        <path id="Trazado_1086654" data-name="Trazado 1086654" d="M393.778,146.5l4.121,4.827c3.475-4.634,5.6-11.575,5.6-11.575a12.177,12.177,0,0,1-2.9-2.886c-3.583,4.847-6.818,5.772-6.818,5.772s-3.235-.925-6.818-5.772a12.178,12.178,0,0,1-2.9,2.886s2.12,6.941,5.6,11.575l4.121-4.827Z" transform="translate(-31.384 -19.318)" fill="#c252f0"/>
        <g id="Grupo_1215695" data-name="Grupo 1215695" transform="translate(326.438 157.549)">
          <path id="Trazado_1086655" data-name="Trazado 1086655" d="M420.648,234.7a3.306,3.306,0,0,1-3.306,3.306h-65.2a3.306,3.306,0,0,1-3.306-3.306V193.877a3.306,3.306,0,0,1,3.306-3.306h65.2a3.306,3.306,0,0,1,3.306,3.306Z" transform="translate(-348.835 -190.571)" fill="#abb8c6"/>
          <path id="Trazado_1086656" data-name="Trazado 1086656" d="M420.648,256.008a1.745,1.745,0,0,1-1.745,1.745H350.58a1.745,1.745,0,0,1-1.745-1.745h0a1.745,1.745,0,0,1,1.745-1.745H418.9a1.745,1.745,0,0,1,1.745,1.745Z" transform="translate(-348.835 -206.824)" fill="#7c8b96"/>
          <path id="Trazado_1086657" data-name="Trazado 1086657" d="M404.664,212.162c-3.673,4.225-8.081,8.816-13.407,10.836-5.51,2.02-11.2.367-16.53-1.1-6.979-2.021-13.959-3.306-21.489-2.755a32.823,32.823,0,0,0-4.4.681v17a3.306,3.306,0,0,0,3.306,3.306h65.2a3.306,3.306,0,0,0,3.306-3.306V198.86C414.626,201.741,409.675,206.372,404.664,212.162Z" transform="translate(-348.835 -192.686)" fill="#98a9b7"/>
          <circle id="Elipse_12667" data-name="Elipse 12667" cx="5.448" cy="5.448" r="5.448" transform="translate(30.459 18.272)" fill="#cedcea"/>
        </g>
        <g id="Grupo_1215710" data-name="Grupo 1215710" transform="translate(339.668 67.17)">
          <path id="Trazado_1086658" data-name="Trazado 1086658" d="M416.722,91s4.6,5.264,11.555,5.045c0,0-3.552,8.769-12.551,9.114S416.722,91,416.722,91Z" transform="translate(-378.176 -74.783)" fill="#475056"/>
          <path id="Trazado_1086659" data-name="Trazado 1086659" d="M391.779,81.556c-6.949,0-18.273,5.7-15.705,21.369,2.657,16.22,12.091,16.22,15.705,16.22s12.633,0,15.705-16.22C410.439,87.321,398.728,81.556,391.779,81.556Z" transform="translate(-368.921 -72.373)" fill="#ffaf98"/>
          <path id="Trazado_1086660" data-name="Trazado 1086660" d="M390.944,109.006c.031.915-.451,1.674-1.076,1.694s-1.158-.7-1.189-1.617.451-1.674,1.076-1.694S390.913,108.091,390.944,109.006Z" transform="translate(-372.232 -78.965)" fill="#3f312c"/>
          <path id="Trazado_1086661" data-name="Trazado 1086661" d="M405.668,110.025c-.095.91-.676,1.6-1.3,1.531s-1.051-.855-.956-1.765.676-1.6,1.3-1.531S405.762,109.115,405.668,110.025Z" transform="translate(-375.989 -79.186)" fill="#3f312c"/>
          <path id="Trazado_1086662" data-name="Trazado 1086662" d="M399.06,99.615a49.506,49.506,0,0,0-1.868,11.732s2.255-.754,3.26-.23-1.2,3.621-3.348,4.673" transform="translate(-374.383 -76.981)" fill="none" stroke="#b56d6d" stroke-linecap="round" stroke-linejoin="round" stroke-miterlimit="10" stroke-width="1"/>
          <path id="Trazado_1086663" data-name="Trazado 1086663" d="M390.2,120.99s4.3,4.567,10.284.512" transform="translate(-372.621 -82.436)" fill="none" stroke="#b56d6d" stroke-linecap="round" stroke-linejoin="round" stroke-miterlimit="10" stroke-width="1"/>
          <path id="Trazado_1086664" data-name="Trazado 1086664" d="M384.351,101.531c-.045-3.642,5.292-5.428,7.759-3.095.308.292-1.16.144-1.328.141a8.509,8.509,0,0,0-2.619.471A8.377,8.377,0,0,0,385.6,100.5a8.764,8.764,0,0,0-.991.955C384.5,101.587,384.437,101.713,384.351,101.531Z" transform="translate(-371.128 -76.412)" fill="#475056"/>
          <path id="Trazado_1086665" data-name="Trazado 1086665" d="M404.017,98.564a3.814,3.814,0,0,1,4.255.582,3.934,3.934,0,0,1,1.325,2.014c.054.223.317,1.5.013,1.656-.028.1-.8-.994-.891-1.108a8.308,8.308,0,0,0-1.779-1.636,9.1,9.1,0,0,0-2.155-1.109C404.6,98.894,403.84,98.8,404.017,98.564Z" transform="translate(-376.14 -76.605)" fill="#475056"/>
          <g id="Grupo_1215705" data-name="Grupo 1215705" transform="translate(11.771 27.754)">
            <g id="Grupo_1215704" data-name="Grupo 1215704">
              <g id="Grupo_1215697" data-name="Grupo 1215697" transform="translate(0 0.896)">
                <g id="Grupo_1215696" data-name="Grupo 1215696">
                  <path id="Trazado_1086666" data-name="Trazado 1086666" d="M382.757,108.44c.626.072,1.233.244,1.867.258a.373.373,0,0,0,0-.745c-.63-.013-1.242-.186-1.867-.258-.477-.054-.471.691,0,.745Z" transform="translate(-382.402 -107.692)" fill="#d18282"/>
                </g>
              </g>
              <g id="Grupo_1215699" data-name="Grupo 1215699" transform="translate(0.054)">
                <g id="Grupo_1215698" data-name="Grupo 1215698">
                  <path id="Trazado_1086667" data-name="Trazado 1086667" d="M382.741,107.218c.6.138,1.2.313,1.8.451.468.107.667-.611.2-.718-.6-.138-1.2-.313-1.8-.451-.468-.107-.667.611-.2.718Z" transform="translate(-382.474 -106.49)" fill="#d18282"/>
                </g>
              </g>
              <g id="Grupo_1215701" data-name="Grupo 1215701" transform="translate(20.27 2.25)">
                <g id="Grupo_1215700" data-name="Grupo 1215700">
                  <path id="Trazado_1086668" data-name="Trazado 1086668" d="M409.977,110.256a17.121,17.121,0,0,1,1.738.064c.477.049.473-.7,0-.745a17.129,17.129,0,0,0-1.738-.064.373.373,0,0,0,0,.745Z" transform="translate(-409.616 -109.511)" fill="#d18282"/>
                </g>
              </g>
              <g id="Grupo_1215703" data-name="Grupo 1215703" transform="translate(20.272 1.148)">
                <g id="Grupo_1215702" data-name="Grupo 1215702">
                  <path id="Trazado_1086669" data-name="Trazado 1086669" d="M409.977,108.784a12.122,12.122,0,0,1,2.059.193c.477.049.473-.7,0-.745a12.122,12.122,0,0,0-2.059-.193c-.477.031-.48.777,0,.745Z" transform="translate(-409.618 -108.031)" fill="#d18282"/>
                </g>
              </g>
            </g>
          </g>
          <g id="Grupo_1215707" data-name="Grupo 1215707" transform="translate(1.95)">
            <path id="Trazado_1086670" data-name="Trazado 1086670" d="M382.353,84.156s-.772,9.958-8.818,15.792L370.9,98.509s-1.8-8.431-1.674-12.744,1.545-8.5,9.2-9.526c0,0,5.723-8.367,16.25-6.823s13.808,14.546,22.047,12.293c0,0-3.54,8.56-17.056,8.174S382.353,84.156,382.353,84.156Z" transform="translate(-369.216 -69.226)" fill="#6b747c"/>
            <g id="Grupo_1215706" data-name="Grupo 1215706" transform="translate(3.802 4.559)">
              <path id="Trazado_1086671" data-name="Trazado 1086671" d="M418.346,87.6s-6.325-.358-12.118-7.034S388.721,80,386.854,86.309" transform="translate(-377.519 -75.939)" fill="none" stroke="#475056" stroke-linecap="round" stroke-linejoin="round" stroke-miterlimit="10" stroke-width="1"/>
              <path id="Trazado_1086672" data-name="Trazado 1086672" d="M381.583,77.8a17.825,17.825,0,0,1,16.7-.724" transform="translate(-376.174 -75.347)" fill="none" stroke="#475056" stroke-linecap="round" stroke-linejoin="round" stroke-miterlimit="10" stroke-width="1"/>
              <path id="Trazado_1086673" data-name="Trazado 1086673" d="M381.076,83.907s-5.788,1.163-6.5,5.283.258,14.5.258,14.5,1-15.448,6.239-19.788" transform="translate(-374.321 -77.531)" fill="none" stroke="#475056" stroke-linecap="round" stroke-linejoin="round" stroke-miterlimit="10" stroke-width="1"/>
            </g>
          </g>
          <path id="Trazado_1086674" data-name="Trazado 1086674" d="M381.76,110.584a6.235,6.235,0,0,0-5.177,1.265,26.34,26.34,0,0,0,2.636,7.561,7.128,7.128,0,0,0,.949.239c3.151.553,6.062-1.027,6.5-3.53S384.911,111.138,381.76,110.584Z" transform="translate(-369.146 -79.752)" fill="#e8899c"/>
          <path id="Trazado_1086675" data-name="Trazado 1086675" d="M409.543,111.574c-3.151.553-5.349,3.031-4.909,5.535s3.351,4.084,6.5,3.53l.045-.011a25.865,25.865,0,0,0,3.231-8.041A6.368,6.368,0,0,0,409.543,111.574Z" transform="translate(-376.29 -80.005)" fill="#e8899c"/>
          <g id="Grupo_1215708" data-name="Grupo 1215708" transform="translate(0 25.803)">
            <path id="Trazado_1086676" data-name="Trazado 1086676" d="M376.037,116.53l-2.61-9.286s-3.015-5.383-6.213-2.551C364.727,106.9,370.191,117.719,376.037,116.53Z" transform="translate(-366.598 -103.87)" fill="#ffaf98"/>
            <path id="Trazado_1086677" data-name="Trazado 1086677" d="M374.177,109.5h0s-5.09-1.986-5.656,2.91c1.73,3.16,4.81,6.1,8.007,5.452Z" transform="translate(-367.089 -105.206)" fill="#d18282"/>
          </g>
          <g id="Grupo_1215709" data-name="Grupo 1215709" transform="translate(36.106 25.803)">
            <path id="Trazado_1086678" data-name="Trazado 1086678" d="M415.075,116.53l2.61-9.286s3.015-5.383,6.212-2.551C426.384,106.9,420.92,117.719,415.075,116.53Z" transform="translate(-415.075 -103.87)" fill="#ffaf98"/>
            <path id="Trazado_1086679" data-name="Trazado 1086679" d="M417.425,109.5h0s5.09-1.986,5.657,2.91c-1.731,3.16-4.81,6.1-8.007,5.452Z" transform="translate(-415.075 -105.206)" fill="#d18282"/>
          </g>
        </g>
        <g id="Grupo_1215713" data-name="Grupo 1215713" transform="translate(281.859 189.762)">
          <g id="Grupo_1215711" data-name="Grupo 1215711" transform="translate(88.382 26.244)">
            <path id="Trazado_1086680" data-name="Trazado 1086680" d="M409.924,273.789s5.407-3.862,8.882-4.634,6.05,3.218,8.238,4.634,9.526-.4,12.616.764,7.208,5.544,10.3,8.118,0,3.748-3.09,3.74-33.211-2.2-37.46-2.71S409.924,273.789,409.924,273.789Z" transform="translate(-407.646 -269.056)" fill="#cedcea"/>
            <path id="Trazado_1086681" data-name="Trazado 1086681" d="M420.166,269.154c-2.255.5-5.316,2.3-7.193,3.5,2.224,1.43,5.812,3.32,9.252,3.32a12.914,12.914,0,0,0,7.246-1.794,3.161,3.161,0,0,1-1.067-.395C426.217,272.373,423.642,268.382,420.166,269.154Z" transform="translate(-409.005 -269.056)" fill="#abb8c6"/>
            <path id="Trazado_1086682" data-name="Trazado 1086682" d="M457.325,290c3.089.007,6.179-1.166,3.089-3.74-1.079-.9-2.284-2.018-3.527-3.143-1.28,3.288-5.2,5.287-8.27,6.388C453,289.8,456.394,290,457.325,290Z" transform="translate(-418.101 -272.644)" fill="#abb8c6"/>
          </g>
          <g id="Grupo_1215712" data-name="Grupo 1215712" transform="translate(0 0)">
            <path id="Trazado_1086683" data-name="Trazado 1086683" d="M298.417,234.032c6.437-.845,26.279.83,35.4,5.286,11.843,5.784,27.8,16.6,30.38,18.142s4.187,0,5.311,0,1.9,3.218,3.313,3.475,2.059-1.8,3.733-1.287,4.248.772,5.02,2.7,2.832,9.783.644,11.714-7.337,3.476-8.754,3.347-1.8-2.059-2.832-1.8-3.991.644-5.149.258-2.188-2.832-4.634-2.446-46.085-6.179-59.085-11.328-13.588-11.2-12.33-19.437S296.883,234.233,298.417,234.032Z" transform="translate(-288.982 -233.82)" fill="#494c77"/>
            <path id="Trazado_1086684" data-name="Trazado 1086684" d="M317.9,234.329s19.559,5.393,27.154,9.95,24.716,15.628,26.389,16.014,4.187-.129,5.44.515,1.9,2.7,3.056,2.7,3.733-1.674,5.02-1.287,4.928,3.467,4.928,3.467" transform="translate(-296.363 -233.95)" fill="none" stroke="#abb8c6" stroke-linecap="round" stroke-linejoin="round" stroke-miterlimit="10" stroke-width="1" stroke-dasharray="4 3"/>
          </g>
        </g>
        <g id="Grupo_1215717" data-name="Grupo 1215717" transform="translate(310.929 189.762)">
          <g id="Grupo_1215714" data-name="Grupo 1215714" transform="translate(0 26.244)">
            <path id="Trazado_1086685" data-name="Trazado 1086685" d="M369.326,273.789s-5.407-3.862-8.882-4.634-6.05,3.218-8.238,4.634-9.526-.4-12.615.764-7.209,5.544-10.3,8.118,0,3.748,3.089,3.74,33.211-2.2,37.46-2.71S369.326,273.789,369.326,273.789Z" transform="translate(-328.013 -269.056)" fill="#cedcea"/>
            <path id="Trazado_1086686" data-name="Trazado 1086686" d="M368.368,269.154a26.9,26.9,0,0,1,7.193,3.5c-2.224,1.43-5.812,3.32-9.252,3.32a12.914,12.914,0,0,1-7.246-1.794,3.161,3.161,0,0,0,1.067-.395C362.318,272.373,364.892,268.382,368.368,269.154Z" transform="translate(-335.936 -269.056)" fill="#abb8c6"/>
            <path id="Trazado_1086687" data-name="Trazado 1086687" d="M332.382,290c-3.089.007-6.179-1.166-3.089-3.74,1.079-.9,2.284-2.018,3.527-3.143,1.28,3.288,5.2,5.287,8.27,6.388C336.7,289.8,333.312,290,332.382,290Z" transform="translate(-328.013 -272.644)" fill="#abb8c6"/>
          </g>
          <g id="Grupo_1215716" data-name="Grupo 1215716" transform="translate(37.762 0)">
            <path id="Trazado_1086688" data-name="Trazado 1086688" d="M463.491,234.032c-6.437-.845-26.279.83-35.4,5.286-11.843,5.784-27.8,16.6-30.38,18.142s-4.187,0-5.311,0-1.9,3.218-3.313,3.475-2.059-1.8-3.733-1.287-4.248.772-5.02,2.7-2.832,9.783-.644,11.714,7.337,3.476,8.754,3.347,1.8-2.059,2.832-1.8,3.991.644,5.149.258,2.188-2.832,4.634-2.446,46.085-6.179,59.085-11.328,13.588-11.2,12.33-19.437S465.025,234.233,463.491,234.032Z" transform="translate(-378.712 -233.82)" fill="#676ca3"/>
            <path id="Trazado_1086689" data-name="Trazado 1086689" d="M451.617,234.329s-19.559,5.393-27.154,9.95-24.716,15.628-26.389,16.014-4.187-.129-5.44.515-1.9,2.7-3.056,2.7-3.733-1.674-5.02-1.287-4.928,3.467-4.928,3.467" transform="translate(-378.947 -233.95)" fill="none" stroke="#cedcea" stroke-linecap="round" stroke-linejoin="round" stroke-miterlimit="10" stroke-width="1" stroke-dasharray="4 3"/>
            <g id="Grupo_1215715" data-name="Grupo 1215715" transform="translate(9.151 26.343)">
              <path id="Trazado_1086690" data-name="Trazado 1086690" d="M402.775,281.516s-6.247-5.634-5.7-12.327" transform="translate(-392.541 -269.189)" fill="none" stroke="#494c77" stroke-linecap="round" stroke-linejoin="round" stroke-miterlimit="10" stroke-width="1"/>
              <path id="Trazado_1086691" data-name="Trazado 1086691" d="M392.737,271.781s-3.089,4.505-1.03,11.586" transform="translate(-390.999 -269.85)" fill="none" stroke="#494c77" stroke-linecap="round" stroke-linejoin="round" stroke-miterlimit="10" stroke-width="1"/>
            </g>
          </g>
        </g>
        <g id="Grupo_1215720" data-name="Grupo 1215720" transform="translate(261.066 61.168)">
          <path id="Trazado_1086692" data-name="Trazado 1086692" d="M330.085,87.617c0-14.607-15.45-26.449-34.51-26.449s-34.51,11.842-34.51,26.449,15.45,26.449,34.51,26.449a43.338,43.338,0,0,0,14.518-2.455,13.06,13.06,0,0,0,11.388,4.593,20.937,20.937,0,0,1-4.528-7.832C324.949,103.528,330.085,96.035,330.085,87.617Z" transform="translate(-261.066 -61.168)" fill="#e2edf7"/>
          <g id="Grupo_1215719" data-name="Grupo 1215719" transform="translate(19.131 9.388)">
            <path id="Trazado_1086693" data-name="Trazado 1086693" d="M316.816,89.531c-.681-.483-13.56-9.6-14.667-9.6-1.088,0-13.541,8.805-14.621,9.571a1.179,1.179,0,0,0-.776,1.107v17.418a1.183,1.183,0,0,0,1.183,1.183h28.39a1.183,1.183,0,0,0,1.183-1.183V90.6A1.18,1.18,0,0,0,316.816,89.531Z" transform="translate(-286.752 -75.343)" fill="#7c8b96"/>
            <g id="Grupo_1215718" data-name="Grupo 1215718" transform="translate(2.698)">
              <path id="Trazado_1086694" data-name="Trazado 1086694" d="M315.734,77.613v27.818H290.375V73.773H312.15Z" transform="translate(-290.375 -73.773)" fill="#fff"/>
              <rect id="Rectángulo_418834" data-name="Rectángulo 418834" width="4.732" height="8.798" transform="translate(17.744 3.549)" fill="#abb8c6"/>
              <rect id="Rectángulo_418835" data-name="Rectángulo 418835" width="13.234" height="1.331" transform="translate(2.292 3.549)" fill="#cedcea"/>
              <rect id="Rectángulo_418836" data-name="Rectángulo 418836" width="13.234" height="1.331" transform="translate(2.292 7.282)" fill="#cedcea"/>
              <rect id="Rectángulo_418837" data-name="Rectángulo 418837" width="13.234" height="1.331" transform="translate(2.292 11.016)" fill="#cedcea"/>
              <rect id="Rectángulo_418838" data-name="Rectángulo 418838" width="20.184" height="1.331" transform="translate(2.292 14.975)" fill="#cedcea"/>
              <rect id="Rectángulo_418839" data-name="Rectángulo 418839" width="20.184" height="1.331" transform="translate(2.292 18.709)" fill="#cedcea"/>
              <rect id="Rectángulo_418840" data-name="Rectángulo 418840" width="20.184" height="1.331" transform="translate(2.292 22.443)" fill="#cedcea"/>
              <path id="Trazado_1086695" data-name="Trazado 1086695" d="M319.609,77.613h3.585l-3.585-3.84Z" transform="translate(-297.835 -73.773)" fill="#cedcea"/>
            </g>
            <path id="Trazado_1086696" data-name="Trazado 1086696" d="M286.752,111.875a1.183,1.183,0,0,0,1.183,1.183h23.991L286.752,95.025Z" transform="translate(-286.752 -79.196)" fill="#98a9b7"/>
            <path id="Trazado_1086697" data-name="Trazado 1086697" d="M319.421,111.875a1.183,1.183,0,0,1-1.183,1.183H294.247l25.174-18.033Z" transform="translate(-288.665 -79.196)" fill="#cedcea"/>
          </g>
        </g>
      </g>
    </g>
  </g>
</svg>
