<svg xmlns="http://www.w3.org/2000/svg" width="85.902" height="86.285" viewBox="0 0 85.902 86.285">
  <g id="Grupo_1216117" data-name="Grupo 1216117" transform="translate(-523.098 -4155)">
    <rect id="Rectángulo_418950" data-name="Rectángulo 418950" width="65" height="82" transform="translate(544 4155)" fill="#a1bada"/>
    <g id="Layer_1" data-name="Layer 1" transform="translate(519.222 4158.435)">
      <path id="Trazado_1087687" data-name="Trazado 1087687" d="M385.378,20.368v21.3a2.7,2.7,0,0,1-2.7,2.7H372.568V19.953a6.294,6.294,0,0,1,6.405-6.1c4.231,0,6.4,3,6.4,6.511Z" transform="translate(-312.463 -5.932)" fill="#bfbfbf"/>
      <path id="Trazado_1087688" data-name="Trazado 1087688" d="M72.442,13.857a6.413,6.413,0,0,0-6.413,6.413V81.535a3.916,3.916,0,0,1-3.916,3.916H14.792a3.916,3.916,0,0,1-3.916-3.916V20.27a6.413,6.413,0,0,1,6.413-6.413Z" transform="translate(-5.932 -5.932)" fill="#f5f5f5"/>
      <path id="Trazado_1087689" data-name="Trazado 1087689" d="M19.215,85.451H14.792a3.916,3.916,0,0,1-3.916-3.916V20.27a6.413,6.413,0,0,1,6.413-6.413h4.423A6.413,6.413,0,0,0,15.3,20.27V81.535a3.916,3.916,0,0,0,3.916,3.916Z" transform="translate(-5.932 -5.932)" fill="#e6e6e6"/>
      <path id="Trazado_1087690" data-name="Trazado 1087690" d="M61.637,104.5a6.108,6.108,0,1,1-6.108-6.108,6.108,6.108,0,0,1,6.108,6.108Zm-6.108,11.608a6.108,6.108,0,1,0,6.108,6.108,6.108,6.108,0,0,0-6.108-6.108Zm0,17.716a6.108,6.108,0,1,0,6.108,6.108,6.108,6.108,0,0,0-6.108-6.108Z" transform="translate(-38.599 -77.574)" fill="#80eaff"/>
      <path id="Trazado_1087691" data-name="Trazado 1087691" d="M49.421,104.5a6.111,6.111,0,0,1,7.317-5.988,6.109,6.109,0,0,0,0,11.975,6.11,6.11,0,0,1-7.317-5.987Zm2.418,35.432a6.109,6.109,0,0,1,4.9-5.988,6.108,6.108,0,1,0,0,11.975,6.109,6.109,0,0,1-4.9-5.988Zm3.689-11.608a6.136,6.136,0,0,0,1.21-.12,6.109,6.109,0,0,1,0-11.975,6.108,6.108,0,1,0-1.21,12.1Z" transform="translate(-38.599 -77.574)" fill="#6cf"/>
      <path id="Trazado_1087692" data-name="Trazado 1087692" d="M309.5,272.075a7.039,7.039,0,0,0-1.871-.674,1.367,1.367,0,0,1-1-.884,14.3,14.3,0,0,0-.592-1.424,1.391,1.391,0,0,1,.074-1.359,7.407,7.407,0,0,0,.846-1.754,1.361,1.361,0,0,0-.339-1.379l-2.87-2.87a1.365,1.365,0,0,0-1.359-.345,7.029,7.029,0,0,0-1.8.847,1.368,1.368,0,0,1-1.337.085,14.308,14.308,0,0,0-1.425-.59,1.391,1.391,0,0,1-.907-1.013,7.411,7.411,0,0,0-.642-1.837,1.363,1.363,0,0,0-1.216-.736h-4.057a1.366,1.366,0,0,0-1.206.717,7.041,7.041,0,0,0-.674,1.871,1.367,1.367,0,0,1-.883,1,14.289,14.289,0,0,0-1.424.592,1.392,1.392,0,0,1-1.359-.074,7.409,7.409,0,0,0-1.754-.846,1.361,1.361,0,0,0-1.379.339l-2.871,2.869a1.365,1.365,0,0,0-.345,1.359,7.031,7.031,0,0,0,.847,1.8,1.368,1.368,0,0,1,.085,1.337,14.276,14.276,0,0,0-.59,1.425,1.391,1.391,0,0,1-1.013.907,7.408,7.408,0,0,0-1.837.642,1.362,1.362,0,0,0-.736,1.215v4.057a1.366,1.366,0,0,0,.717,1.206,7.037,7.037,0,0,0,1.871.674,1.368,1.368,0,0,1,1,.884,14.323,14.323,0,0,0,.592,1.424,1.391,1.391,0,0,1-.074,1.358,7.411,7.411,0,0,0-.846,1.754,1.361,1.361,0,0,0,.339,1.379l2.87,2.87a1.365,1.365,0,0,0,1.359.345,7.038,7.038,0,0,0,1.8-.847,1.368,1.368,0,0,1,1.337-.085,14.327,14.327,0,0,0,1.425.59,1.391,1.391,0,0,1,.907,1.013,7.408,7.408,0,0,0,.642,1.837,1.362,1.362,0,0,0,1.215.736h4.057a1.366,1.366,0,0,0,1.206-.717,7.04,7.04,0,0,0,.674-1.871,1.367,1.367,0,0,1,.883-1,14.343,14.343,0,0,0,1.424-.592,1.391,1.391,0,0,1,1.358.074,7.419,7.419,0,0,0,1.754.846,1.362,1.362,0,0,0,1.379-.339l2.87-2.87a1.365,1.365,0,0,0,.345-1.359,7.035,7.035,0,0,0-.847-1.8,1.368,1.368,0,0,1-.085-1.337,14.291,14.291,0,0,0,.59-1.425,1.391,1.391,0,0,1,1.013-.907,7.41,7.41,0,0,0,1.838-.642,1.362,1.362,0,0,0,.736-1.215v-4.057A1.366,1.366,0,0,0,309.5,272.075Zm-16.459,11.759a8.515,8.515,0,1,1,8.515-8.515,8.515,8.515,0,0,1-8.515,8.515Z" transform="translate(-230.51 -212.963)" fill="#80eaff"/>
      <path id="Trazado_1087693" data-name="Trazado 1087693" d="M293.049,292.5h-2.019a1.362,1.362,0,0,1-1.215-.736,7.407,7.407,0,0,1-.642-1.837,1.391,1.391,0,0,0-.907-1.013,14.319,14.319,0,0,1-1.425-.59,1.368,1.368,0,0,0-1.337.085,7.04,7.04,0,0,1-1.8.847,1.365,1.365,0,0,1-1.359-.345l-2.869-2.87a1.361,1.361,0,0,1-.339-1.379,7.413,7.413,0,0,1,.846-1.754,1.391,1.391,0,0,0,.074-1.358,14.326,14.326,0,0,1-.592-1.424,1.368,1.368,0,0,0-1-.884,7.036,7.036,0,0,1-1.871-.674,1.366,1.366,0,0,1-.717-1.206V273.3a1.363,1.363,0,0,1,.736-1.215,7.405,7.405,0,0,1,1.837-.642,1.391,1.391,0,0,0,1.013-.907,14.284,14.284,0,0,1,.59-1.425,1.368,1.368,0,0,0-.085-1.337,7.031,7.031,0,0,1-.847-1.8,1.365,1.365,0,0,1,.345-1.359l2.87-2.87a1.361,1.361,0,0,1,1.379-.339,7.409,7.409,0,0,1,1.754.846,1.392,1.392,0,0,0,1.359.074,14.289,14.289,0,0,1,1.424-.592,1.367,1.367,0,0,0,.883-1,7.041,7.041,0,0,1,.674-1.871,1.366,1.366,0,0,1,1.206-.717h2.039v8.661a8.515,8.515,0,1,0,0,17.031Z" transform="translate(-230.515 -212.965)" fill="#6cf"/>
      <path id="Trazado_1087694" data-name="Trazado 1087694" d="M304.81,199.3l-15.037,36.3-5.9,7.629,1.219-9.57,15.037-36.3Z" transform="translate(-237.291 -161.448)" fill="#ff5959"/>
      <path id="Trazado_1087695" data-name="Trazado 1087695" d="M302.49,198.338,283.869,243.23l1.219-9.57,15.037-36.3Z" transform="translate(-237.292 -161.448)" fill="#e63a57"/>
      <path id="Trazado_1087696" data-name="Trazado 1087696" d="M289.776,437.333l-5.9,7.629,1.219-9.57Z" transform="translate(-237.293 -363.18)" fill="#ffd9b3"/>
      <path id="Trazado_1087697" data-name="Trazado 1087697" d="M287.437,436.364l-3.566,8.6,1.219-9.57Z" transform="translate(-237.293 -363.18)" fill="#fb9"/>
      <path id="Trazado_1087698" data-name="Trazado 1087698" d="M395.147,175.52l-4.686-1.941,1.772-4.279,4.686,1.941Z" transform="translate(-327.627 -137.669)" fill="#393939"/>
      <path id="Trazado_1087699" data-name="Trazado 1087699" d="M392.826,174.559l-2.365-.98,1.772-4.279,2.365.98Z" transform="translate(-327.627 -137.669)" fill="#343434"/>
      <path id="Trazado_1087700" data-name="Trazado 1087700" d="M23.718,20.391l-1.593,1.592a7.154,7.154,0,1,0,1.242,1.777L25.228,21.9a1.068,1.068,0,0,0-1.51-1.51ZM21.97,26.925a5.048,5.048,0,1,1-1.354-3.431L16.93,27.179l-1.841-1.841a1.068,1.068,0,1,0-1.51,1.51l2.6,2.6a1.068,1.068,0,0,0,1.51,0L21.733,25.4a5.023,5.023,0,0,1,.238,1.529Zm1.748,11.182L22.125,39.7a7.154,7.154,0,1,0,1.242,1.777l1.861-1.861a1.068,1.068,0,0,0-1.51-1.51ZM21.97,44.64a5.048,5.048,0,1,1-1.354-3.432L16.93,44.895l-1.841-1.841a1.068,1.068,0,0,0-1.51,1.51l2.6,2.6a1.068,1.068,0,0,0,1.51,0l4.048-4.048a5.024,5.024,0,0,1,.238,1.528Zm1.748,11.182-1.593,1.593a7.153,7.153,0,1,0,1.242,1.777l1.861-1.861a1.068,1.068,0,1,0-1.51-1.51ZM21.97,62.356a5.048,5.048,0,1,1-1.354-3.432L16.93,62.611l-1.841-1.842a1.068,1.068,0,1,0-1.51,1.51l2.6,2.6a1.068,1.068,0,0,0,1.51,0l4.048-4.048a5.023,5.023,0,0,1,.238,1.529Zm6.5-40.375a1.068,1.068,0,0,1,1.068-1.068h21.33a1.068,1.068,0,0,1,0,2.135H29.534a1.068,1.068,0,0,1-1.068-1.067Zm0,4.943a1.068,1.068,0,0,1,1.068-1.068h21.33a1.068,1.068,0,0,1,0,2.135H29.534a1.068,1.068,0,0,1-1.068-1.067Zm0,4.943A1.068,1.068,0,0,1,29.535,30.8h21.33a1.068,1.068,0,0,1,0,2.135H29.534a1.068,1.068,0,0,1-1.068-1.067Zm0,7.83a1.068,1.068,0,0,1,1.068-1.068h21.33a1.068,1.068,0,1,1,0,2.135H29.534A1.068,1.068,0,0,1,28.467,39.7Zm0,4.943a1.068,1.068,0,0,1,1.068-1.068h21.33a1.068,1.068,0,0,1,0,2.135H29.534a1.068,1.068,0,0,1-1.068-1.068Zm0,4.943a1.068,1.068,0,0,1,1.068-1.068H46.178a1.068,1.068,0,1,1,0,2.135H29.534a1.068,1.068,0,0,1-1.068-1.067Zm13.672,7.83a1.068,1.068,0,0,1-1.068,1.068H29.534a1.068,1.068,0,1,1,0-2.135H41.071a1.068,1.068,0,0,1,1.068,1.068Zm0,4.943a1.068,1.068,0,0,1-1.068,1.068H29.534a1.068,1.068,0,0,1,0-2.135H41.071a1.068,1.068,0,0,1,1.068,1.068Zm0,4.943a1.068,1.068,0,0,1-1.068,1.068H29.534a1.068,1.068,0,1,1,0-2.135H41.071A1.068,1.068,0,0,1,42.139,67.3ZM79.5,58.17a8.138,8.138,0,0,0-2.153-.776.3.3,0,0,1-.219-.195,15.43,15.43,0,0,0-.636-1.53.326.326,0,0,1,.007-.315,8.524,8.524,0,0,0,.966-2.007,2.417,2.417,0,0,0-.6-2.463l-2.87-2.87a2.427,2.427,0,0,0-2.424-.612,8.148,8.148,0,0,0-2.072.974.3.3,0,0,1-.294.017,15.5,15.5,0,0,0-1.532-.634.324.324,0,0,1-.217-.228,8.518,8.518,0,0,0-.736-2.1,2.4,2.4,0,0,0-.808-.907L67.993,39.5h2.223a3.77,3.77,0,0,0,3.766-3.766v-21.3a7.83,7.83,0,0,0-1.891-5.288,7.268,7.268,0,0,0-5.582-2.291H11.357a7.489,7.489,0,0,0-7.481,7.481V75.6A4.989,4.989,0,0,0,8.86,80.586H45.654l-.135,1.061a1.068,1.068,0,0,0,1.9.788l1.431-1.849H56.18a4.994,4.994,0,0,0,2.583-.725,2.427,2.427,0,0,0,1.752.739h4.057a2.428,2.428,0,0,0,2.148-1.282,8.139,8.139,0,0,0,.777-2.153.3.3,0,0,1,.2-.219,15.436,15.436,0,0,0,1.53-.636.325.325,0,0,1,.315.007,8.521,8.521,0,0,0,2.007.966,2.417,2.417,0,0,0,2.463-.6l2.87-2.869a2.427,2.427,0,0,0,.612-2.425,8.14,8.14,0,0,0-.973-2.072.3.3,0,0,1-.017-.294,15.462,15.462,0,0,0,.634-1.531.325.325,0,0,1,.229-.217,8.518,8.518,0,0,0,2.1-.736,2.418,2.418,0,0,0,1.317-2.166V60.318A2.429,2.429,0,0,0,79.5,58.17ZM56.64,66.906l2.389-5.768v7.79a7.445,7.445,0,0,1-2.389-2.023Zm4.524-10.922.42-1.015a7.558,7.558,0,0,1,.95-.061,7.448,7.448,0,1,1-1.37,14.769ZM51.9,72.759l-2.713-1.124L65.184,33.026,67.9,34.15Zm-1.562-18.53a6,6,0,0,1-.72-1.528.3.3,0,0,1,.079-.294l2.87-2.87a.3.3,0,0,1,.3-.078,6.385,6.385,0,0,1,1.5.726,2.422,2.422,0,0,0,1.238.384L49.293,65.81a2.43,2.43,0,0,0-1.127-.58,6,6,0,0,1-1.589-.571.3.3,0,0,1-.153-.264V60.338a.3.3,0,0,1,.154-.265,6.4,6.4,0,0,1,1.574-.549,2.471,2.471,0,0,0,1.8-1.6,13.319,13.319,0,0,1,.546-1.319,2.451,2.451,0,0,0-.154-2.38Zm-1.664,19.5,2.1.872L48.133,78.03ZM66.51,8.992c3.94,0,5.338,2.932,5.338,5.443v21.3a1.633,1.633,0,0,1-1.631,1.631H68.877l1.4-3.382a1.068,1.068,0,0,0-.578-1.395l-4.686-1.941a1.068,1.068,0,0,0-1.395.578l-2.455,5.929V14.338A5.352,5.352,0,0,1,66.51,8.992ZM8.86,78.451A2.852,2.852,0,0,1,6.011,75.6V14.338a5.352,5.352,0,0,1,5.346-5.345H61.281a7.459,7.459,0,0,0-2.253,5.346V42.307l-2.377,5.738c-.272.112-.542.231-.806.358a.326.326,0,0,1-.315-.007,8.512,8.512,0,0,0-2.007-.966,2.417,2.417,0,0,0-2.463.6l-2.87,2.87a2.427,2.427,0,0,0-.612,2.424,8.139,8.139,0,0,0,.973,2.072.3.3,0,0,1,.017.294,15.421,15.421,0,0,0-.634,1.531.325.325,0,0,1-.229.217,8.522,8.522,0,0,0-2.1.736,2.418,2.418,0,0,0-1.318,2.166v4.057a2.428,2.428,0,0,0,1.281,2.148,8.139,8.139,0,0,0,2.153.777.3.3,0,0,1,.219.195q.143.4.31.8L46.811,71.8a1.072,1.072,0,0,0-.073.274l-.812,6.374Zm41.646,0,1.062-1.373a2.419,2.419,0,0,0,1.931.232,8.136,8.136,0,0,0,2.072-.973.3.3,0,0,1,.294-.017,15.39,15.39,0,0,0,1.531.634.325.325,0,0,1,.217.229c.055.258.124.509.2.756a2.817,2.817,0,0,1-1.633.514ZM78.644,64.375a.3.3,0,0,1-.153.265,6.385,6.385,0,0,1-1.574.549,2.472,2.472,0,0,0-1.8,1.6,13.316,13.316,0,0,1-.546,1.319,2.451,2.451,0,0,0,.153,2.379,6.006,6.006,0,0,1,.72,1.528.3.3,0,0,1-.079.294l-2.87,2.87a.3.3,0,0,1-.3.078,6.391,6.391,0,0,1-1.5-.726,2.472,2.472,0,0,0-2.4-.142,13.3,13.3,0,0,1-1.318.548,2.45,2.45,0,0,0-1.572,1.79,6.006,6.006,0,0,1-.571,1.589.3.3,0,0,1-.264.153H60.515a.3.3,0,0,1-.265-.153,6.393,6.393,0,0,1-.549-1.574,2.472,2.472,0,0,0-1.6-1.8,13.253,13.253,0,0,1-1.319-.546,2.451,2.451,0,0,0-2.38.153,6.048,6.048,0,0,1-1.4.677l.323-.418a1.073,1.073,0,0,0,.142-.245L55.729,69.1a9.583,9.583,0,1,0,6.805-16.329h-.041l2.491-6.014a6.562,6.562,0,0,1,.381,1.215,2.471,2.471,0,0,0,1.6,1.8,13.34,13.34,0,0,1,1.319.546,2.45,2.45,0,0,0,2.379-.153,6.01,6.01,0,0,1,1.528-.72.3.3,0,0,1,.294.079l2.87,2.87a.3.3,0,0,1,.078.3,6.389,6.389,0,0,1-.726,1.5,2.472,2.472,0,0,0-.141,2.4,13.274,13.274,0,0,1,.548,1.318,2.45,2.45,0,0,0,1.79,1.572,6.012,6.012,0,0,1,1.589.571.3.3,0,0,1,.153.264Z"/>
    </g>
  </g>
</svg>
