<svg xmlns="http://www.w3.org/2000/svg" xmlns:xlink="http://www.w3.org/1999/xlink" width="103" height="103" viewBox="0 0 103 103">
  <defs>
    <filter id="Trazado_978624" x="0" y="0" width="103" height="103" filterUnits="userSpaceOnUse">
      <feOffset dy="3" input="SourceAlpha"/>
      <feGaussianBlur stdDeviation="3" result="blur"/>
      <feFlood flood-opacity="0.161"/>
      <feComposite operator="in" in2="blur"/>
      <feComposite in="SourceGraphic"/>
    </filter>
  </defs>
  <g id="Grupo_1216121" data-name="Grupo 1216121" transform="translate(-192 -5199)">
    <g id="Grupo_1214509" data-name="Grupo 1214509" transform="translate(0 4404)">
      <g id="Grupo_1208646" data-name="Grupo 1208646" transform="translate(0 481)">
        <g id="Grupo_1180764" data-name="Grupo 1180764" transform="translate(1 -4144)">
          <g id="Grupo_1179463" data-name="Grupo 1179463" transform="translate(200 4464)">
            <g id="Grupo_1144531" data-name="Grupo 1144531">
              <g transform="matrix(1, 0, 0, 1, -9, -6)" filter="url(#Trazado_978624)">
                <g id="Trazado_978624-2" data-name="Trazado 978624" transform="translate(9 6)" fill="#fef8e9">
                  <path d="M 42.5 83.5 C 36.96437835693359 83.5 31.59512901306152 82.41617584228516 26.54141235351562 80.27863311767578 C 21.65934181213379 78.21369171142578 17.27447128295898 75.25723266601562 13.50862312316895 71.49137878417969 C 9.742764472961426 67.72553253173828 6.786305904388428 63.34066009521484 4.721364498138428 58.45858764648438 C 2.583823442459106 53.40486907958984 1.5 48.03562164306641 1.5 42.5 C 1.5 36.96437835693359 2.583823442459106 31.59512901306152 4.721364498138428 26.54141235351562 C 6.786305904388428 21.65934181213379 9.742764472961426 17.27447128295898 13.50862312316895 13.50862312316895 C 17.27447128295898 9.742764472961426 21.65934181213379 6.786305904388428 26.54141235351562 4.721364498138428 C 31.59512901306152 2.583823442459106 36.96437835693359 1.5 42.5 1.5 C 48.03562164306641 1.5 53.40486907958984 2.583823442459106 58.45858764648438 4.721364498138428 C 63.34066009521484 6.786305904388428 67.72553253173828 9.742764472961426 71.49137878417969 13.50862312316895 C 75.25723266601562 17.27447128295898 78.21369171142578 21.65934181213379 80.27863311767578 26.54141235351562 C 82.41617584228516 31.59512901306152 83.5 36.96437835693359 83.5 42.5 C 83.5 48.03562164306641 82.41617584228516 53.40486907958984 80.27863311767578 58.45858764648438 C 78.21369171142578 63.34066009521484 75.25723266601562 67.72553253173828 71.49137878417969 71.49137878417969 C 67.72553253173828 75.25723266601562 63.34066009521484 78.21369171142578 58.45858764648438 80.27863311767578 C 53.40486907958984 82.41617584228516 48.03562164306641 83.5 42.5 83.5 Z" stroke="none"/>
                  <path d="M 42.5 3 C 37.16621398925781 3 31.99356079101562 4.043960571289062 27.125732421875 6.102882385253906 C 22.42246627807617 8.092185974121094 18.19785308837891 10.94070434570312 14.56928253173828 14.56928253173828 C 10.94070434570312 18.19785308837891 8.092185974121094 22.42246627807617 6.102882385253906 27.125732421875 C 4.043960571289062 31.99356079101562 3 37.16621398925781 3 42.5 C 3 47.83378601074219 4.043960571289062 53.00643920898438 6.102882385253906 57.87425231933594 C 8.092185974121094 62.57753372192383 10.94070434570312 66.80213165283203 14.56928253173828 70.43071746826172 C 18.19786834716797 74.05929565429688 22.42246627807617 76.90781402587891 27.125732421875 78.89711761474609 C 31.99356079101562 80.95603942871094 37.16621398925781 82 42.5 82 C 47.83378601074219 82 53.00642395019531 80.95603942871094 57.87425231933594 78.89711761474609 C 62.57753372192383 76.90781402587891 66.80213165283203 74.05929565429688 70.43071746826172 70.43071746826172 C 74.05929565429688 66.80213165283203 76.90781402587891 62.57753372192383 78.89711761474609 57.87425231933594 C 80.95603942871094 53.00642395019531 82 47.83378601074219 82 42.5 C 82 37.16621398925781 80.95603942871094 31.99356079101562 78.89711761474609 27.125732421875 C 76.90781402587891 22.42246627807617 74.05929565429688 18.19786834716797 70.43071746826172 14.56928253173828 C 66.80213165283203 10.94070434570312 62.57753372192383 8.092185974121094 57.87425231933594 6.102882385253906 C 53.00643920898438 4.043960571289062 47.83378601074219 3 42.5 3 M 42.5 0 C 65.97209167480469 0 85 19.02789306640625 85 42.5 C 85 65.97209167480469 65.97209167480469 85 42.5 85 C 19.02789306640625 85 0 65.97209167480469 0 42.5 C 0 19.02789306640625 19.02789306640625 0 42.5 0 Z" stroke="none" fill="#f8c234"/>
                </g>
              </g>
            </g>
          </g>
        </g>
      </g>
    </g>
    <g id="estudio_1_" data-name="estudio (1)" transform="translate(193.239 5205.479)">
      <g id="Grupo_1216120" data-name="Grupo 1216120" transform="translate(17.142 17.142)">
        <path id="Trazado_1087702" data-name="Trazado 1087702" d="M74.448,53.416a5.713,5.713,0,0,0-2.48-8.385V32.565A8.565,8.565,0,0,0,63.4,24H55.409a8.565,8.565,0,0,0-8.565,8.565V45.031a5.713,5.713,0,0,0-2.48,8.385A8,8,0,1,0,53.7,66.139a7.994,7.994,0,0,0,11.42,0,7.994,7.994,0,1,0,9.332-12.723Z" transform="translate(-37.708 -24)" fill="#fb8656"/>
        <path id="Trazado_1087703" data-name="Trazado 1087703" d="M40.339,286.032a8,8,0,0,0,7.55,7.1l-2.265-4.351-.025-.044A5.426,5.426,0,0,0,40.339,286.032Z" transform="translate(-38.007 -248.602)" fill="#f15a57"/>
        <path id="Trazado_1087704" data-name="Trazado 1087704" d="M59.414,256C48.692,256,40,268.783,40,284.551H81.256a41.777,41.777,0,0,0-.392-5.736c-.052-.375-2.536-.747-2.6-1.117C76.179,265.24,68.53,256,59.414,256Z" transform="translate(-37.716 -222.881)" fill="#fdbf67"/>
        <path id="Trazado_1087705" data-name="Trazado 1087705" d="M40,326.524c0-8.608,2.591-16.326,6.688-21.561a32.584,32.584,0,0,0,9.433,7.268c2.894,1.544,5.969,2.839,8.47,4.961a16.312,16.312,0,0,1,5.537,10.474H40Z" transform="translate(-37.716 -264.855)" fill="#fdb651"/>
        <path id="Trazado_1087706" data-name="Trazado 1087706" d="M147.42,229.71l-5.71,7.994L136,229.71l1.142-5.71h9.136Z" transform="translate(-120.012 -195.449)" fill="#ffd4cf"/>
        <path id="Trazado_1087707" data-name="Trazado 1087707" d="M149.906,227.2l-.64-3.2H140.13l-.645,3.223.841.52a8.281,8.281,0,0,0,8.744-.02Z" transform="translate(-122.999 -195.449)" fill="#fbb8b0"/>
        <path id="Trazado_1087708" data-name="Trazado 1087708" d="M98.838,86.852H95.982V85.71h-.021a4,4,0,0,1-3.427-1.94L90.272,80l-.1.166A11.42,11.42,0,0,1,80.38,85.71H77.71v1.142H74.855A2.855,2.855,0,0,0,72,89.707v2.284a2.855,2.855,0,0,0,2.855,2.855H77.71v-.493a7.137,7.137,0,0,0,3.383,6.07l2.734,1.692a5.71,5.71,0,0,0,6.03-.014l2.771-1.732a7.138,7.138,0,0,0,3.355-6.053v.53h2.855a2.855,2.855,0,0,0,2.855-2.855V89.707A2.855,2.855,0,0,0,98.838,86.852Z" transform="translate(-65.148 -72.006)" fill="#ffd4cf"/>
        <path id="Trazado_1087709" data-name="Trazado 1087709" d="M24,456H90.237v4.568H24Z" transform="translate(-24 -394.331)" fill="#25b1fa"/>
        <path id="Trazado_1087710" data-name="Trazado 1087710" d="M33.143,321.553l-8.6-13.029a2.855,2.855,0,0,1,1.263-4.31l.027-.011a2.855,2.855,0,0,1,3.539,1.234l7.2,13.832Z" transform="translate(-24.006 -264.027)" fill="#fb8656"/>
        <path id="Trazado_1087711" data-name="Trazado 1087711" d="M77.71,408a5.71,5.71,0,0,1,5.71,5.71v1.142H72V413.71A5.71,5.71,0,0,1,77.71,408Z" transform="translate(-65.148 -353.183)" fill="#ffd4cf"/>
        <path id="Trazado_1087712" data-name="Trazado 1087712" d="M325.7,142.861a6.852,6.852,0,1,0-9.276,6.411l-1,5.009h6.852l-1-5.009A6.855,6.855,0,0,0,325.7,142.861Z" transform="translate(-270.881 -120.02)" fill="#fdbf67"/>
        <rect id="Rectángulo_418953" data-name="Rectángulo 418953" width="36.461" height="23.202" rx="10" transform="translate(66.255 57.416) rotate(180)" fill="#4dccff"/>
        <path id="Trazado_1087713" data-name="Trazado 1087713" d="M256.871,345.136l-1.782-8.018A1.428,1.428,0,0,0,253.7,336h-6.846a1.428,1.428,0,0,0-1.394,1.118l-1.782,8.018H232v2a1.428,1.428,0,0,0,1.428,1.428h33.69a1.428,1.428,0,0,0,1.428-1.428v-2Z" transform="translate(-202.307 -291.461)" fill="#25b1fa"/>
        <ellipse id="Elipse_12691" data-name="Elipse 12691" cx="4.972" cy="4.419" rx="4.972" ry="4.419" transform="translate(43.053 20.955)" fill="#fb8656"/>
        <path id="Trazado_1087714" data-name="Trazado 1087714" d="M331.42,359.988H320v-3.426L322.284,344h6.852l2.284,12.562Z" transform="translate(-277.745 -298.319)" fill="#4dccff"/>
      </g>
      <path id="Trazado_1087715" data-name="Trazado 1087715" d="M155.426,198.855c1.921,0,3.426-1.254,3.426-2.855h-2.284c0,.2-.434.571-1.142.571s-1.142-.37-1.142-.571H152C152,197.6,153.5,198.855,155.426,198.855Z" transform="translate(-116.586 -154.305)"/>
      <path id="Trazado_1087716" data-name="Trazado 1087716" d="M81.952,50.261H69.469l-.641-3.2a7.994,7.994,0,1,0-7.443,0l-.641,3.2H58.732a9.194,9.194,0,0,0-3.326-4.124A6.868,6.868,0,0,0,54.364,39a3.972,3.972,0,0,0,.464-1.868V34.843a4,4,0,0,0-2.284-3.612V25.707A9.718,9.718,0,0,0,42.838,16h-4v2.284h4a7.432,7.432,0,0,1,7.423,7.423v5.139H49.119A1.142,1.142,0,0,0,47.977,29.7h-.021a2.869,2.869,0,0,1-2.448-1.386l-2.262-3.77a1.142,1.142,0,0,0-1.959,0l-.1.165a10.33,10.33,0,0,1-8.813,4.99H29.7a1.142,1.142,0,0,0-1.142,1.142H27.42V25.707a7.432,7.432,0,0,1,7.423-7.423h1.713V16H34.843a9.718,9.718,0,0,0-9.707,9.707v5.525a4,4,0,0,0-2.284,3.612v2.284A3.973,3.973,0,0,0,23.316,39a6.868,6.868,0,0,0-1.042,7.14,9.159,9.159,0,0,0-3.636,10.084l-.1.038-.025.01a4,4,0,0,0-1.781,6.016L24.2,73.592a6.815,6.815,0,0,0-1.348,4.077H20.584a39.849,39.849,0,0,1,.734-6.63L19.077,70.6a42.136,42.136,0,0,0-.779,7.074H17.142A1.142,1.142,0,0,0,16,78.811v4.568a1.142,1.142,0,0,0,1.142,1.142h21.7V82.237H18.284V79.953H82.237v2.284H41.125v2.284H83.379a1.142,1.142,0,0,0,1.142-1.142V78.811a1.142,1.142,0,0,0-1.142-1.142H71.959V75.385h9.993a2.573,2.573,0,0,0,2.57-2.57V60.539H82.237V72.816a.286.286,0,0,1-.286.286H71.563L69.657,62.619a1.142,1.142,0,0,0-1.124-.938H61.681a1.142,1.142,0,0,0-1.124.938L58.651,73.1H48.262a.286.286,0,0,1-.286-.286V52.83a.286.286,0,0,1,.286-.286h33.69a.286.286,0,0,1,.286.286v5.425h2.284V52.83a2.573,2.573,0,0,0-2.57-2.57ZM65.062,45.693a3.426,3.426,0,1,1,.089,0h-.089Zm.045-11.42a5.713,5.713,0,0,1,5.6,6.852,5.711,5.711,0,0,0-11.191,0,5.713,5.713,0,0,1,5.595-6.852ZM50.832,33.13a1.715,1.715,0,0,1,1.713,1.713v2.284a1.715,1.715,0,0,1-1.713,1.713H49.119V33.13ZM32.374,31.988A12.637,12.637,0,0,0,42.2,27.249l1.347,2.245a5.169,5.169,0,0,0,3.286,2.369v7.59a5.961,5.961,0,0,1-2.818,5.084l-2.771,1.732a4.54,4.54,0,0,1-4.824.011l-2.735-1.691a5.958,5.958,0,0,1-2.841-5.1v-7.5ZM43.334,51.141,38.84,57.432l-4.493-6.291.616-3.079.257.159a6.809,6.809,0,0,0,7.236-.017l.258-.161Zm-18.2-16.3a1.715,1.715,0,0,1,1.713-1.713h1.713v5.71H26.849a1.715,1.715,0,0,1-1.713-1.713Zm-.819,12.732a1.142,1.142,0,0,0,.434-1.648,4.577,4.577,0,0,1,.18-5.294,3.972,3.972,0,0,0,1.919.491h1.873a8.219,8.219,0,0,0,3.764,5.406l.4.25L32.1,50.742A21.494,21.494,0,0,0,23.79,58.55l-.274-.525-.021-.039A4,4,0,0,0,21,56.1a6.864,6.864,0,0,1,3.313-8.522ZM18.6,60.975a1.713,1.713,0,0,1,.759-2.587l.025-.01A1.72,1.72,0,0,1,21.5,59.1l6.247,12a6.826,6.826,0,0,0-1.872.886l-7.25-10.979-.024-.035Zm6.532,16.695a4.568,4.568,0,1,1,9.136,0Zm35.4-2.181,2.1-11.523H67.58l2.1,11.523v2.181H60.539Zm-12.277-.1h9.993v2.284h-21.7a6.861,6.861,0,0,0-6.371-6.835l-5.163-9.918a20.132,20.132,0,0,1,7.8-7.98l5.089,7.124a1.142,1.142,0,0,0,1.859,0l5.088-7.123q.421.221.835.474v19.4A2.573,2.573,0,0,0,48.262,75.385ZM46.33,51.138q-.371-.209-.747-.4l-.8-3.992.443-.277a8.226,8.226,0,0,0,3.724-5.349h1.881a3.972,3.972,0,0,0,1.918-.491,4.577,4.577,0,0,1,.18,5.294,1.142,1.142,0,0,0,.434,1.648A6.9,6.9,0,0,1,56.2,50.261H48.262a2.565,2.565,0,0,0-1.932.877Zm16.744-.877.487-2.434a8.042,8.042,0,0,0,3.092,0l.487,2.434Z"/>
      <path id="Trazado_1087717" data-name="Trazado 1087717" d="M352,192h2.284v2.284H352Z" transform="translate(-288.035 -150.876)"/>
      <path id="Trazado_1087718" data-name="Trazado 1087718" d="M352,296h7.994v2.284H352Z" transform="translate(-288.035 -240.029)"/>
      <path id="Trazado_1087719" data-name="Trazado 1087719" d="M312,296h3.426v2.284H312Z" transform="translate(-253.745 -240.029)"/>
      <path id="Trazado_1087720" data-name="Trazado 1087720" d="M136,144h2.284v2.284H136Z" transform="translate(-102.87 -109.728)"/>
      <path id="Trazado_1087721" data-name="Trazado 1087721" d="M200,144h2.284v2.284H200Z" transform="translate(-157.733 -109.728)"/>
    </g>
  </g>
</svg>
