<svg xmlns="http://www.w3.org/2000/svg" xmlns:xlink="http://www.w3.org/1999/xlink" width="103" height="103" viewBox="0 0 103 103">
  <defs>
    <filter id="Trazado_978624" x="0" y="0" width="103" height="103" filterUnits="userSpaceOnUse">
      <feOffset dy="3" input="SourceAlpha"/>
      <feGaussianBlur stdDeviation="3" result="blur"/>
      <feFlood flood-opacity="0.161"/>
      <feComposite operator="in" in2="blur"/>
      <feComposite in="SourceGraphic"/>
    </filter>
  </defs>
  <g id="Grupo_1215775" data-name="Grupo 1215775" transform="translate(-192 -797)">
    <g id="Grupo_1210042" data-name="Grupo 1210042" transform="translate(0 2)">
      <g id="Grupo_1208646" data-name="Grupo 1208646" transform="translate(0 481)">
        <g id="Grupo_1180764" data-name="Grupo 1180764" transform="translate(1 -4144)">
          <g id="Grupo_1179463" data-name="Grupo 1179463" transform="translate(200 4464)">
            <g id="Grupo_1144531" data-name="Grupo 1144531">
              <g transform="matrix(1, 0, 0, 1, -9, -6)" filter="url(#Trazado_978624)">
                <g id="Trazado_978624-2" data-name="Trazado 978624" transform="translate(9 6)" fill="#f5f7fb">
                  <path d="M 42.5 83.5 C 36.96437835693359 83.5 31.59512901306152 82.41617584228516 26.54141235351562 80.27863311767578 C 21.65934181213379 78.21369171142578 17.27447128295898 75.25723266601562 13.50862312316895 71.49137878417969 C 9.742764472961426 67.72553253173828 6.786305904388428 63.34066009521484 4.721364498138428 58.45858764648438 C 2.583823442459106 53.40486907958984 1.5 48.03562164306641 1.5 42.5 C 1.5 36.96437835693359 2.583823442459106 31.59512901306152 4.721364498138428 26.54141235351562 C 6.786305904388428 21.65934181213379 9.742764472961426 17.27447128295898 13.50862312316895 13.50862312316895 C 17.27447128295898 9.742764472961426 21.65934181213379 6.786305904388428 26.54141235351562 4.721364498138428 C 31.59512901306152 2.583823442459106 36.96437835693359 1.5 42.5 1.5 C 48.03562164306641 1.5 53.40486907958984 2.583823442459106 58.45858764648438 4.721364498138428 C 63.34066009521484 6.786305904388428 67.72553253173828 9.742764472961426 71.49137878417969 13.50862312316895 C 75.25723266601562 17.27447128295898 78.21369171142578 21.65934181213379 80.27863311767578 26.54141235351562 C 82.41617584228516 31.59512901306152 83.5 36.96437835693359 83.5 42.5 C 83.5 48.03562164306641 82.41617584228516 53.40486907958984 80.27863311767578 58.45858764648438 C 78.21369171142578 63.34066009521484 75.25723266601562 67.72553253173828 71.49137878417969 71.49137878417969 C 67.72553253173828 75.25723266601562 63.34066009521484 78.21369171142578 58.45858764648438 80.27863311767578 C 53.40486907958984 82.41617584228516 48.03562164306641 83.5 42.5 83.5 Z" stroke="none"/>
                  <path d="M 42.5 3 C 37.16621398925781 3 31.99356079101562 4.043960571289062 27.125732421875 6.102882385253906 C 22.42246627807617 8.092185974121094 18.19785308837891 10.94070434570312 14.56928253173828 14.56928253173828 C 10.94070434570312 18.19785308837891 8.092185974121094 22.42246627807617 6.102882385253906 27.125732421875 C 4.043960571289062 31.99356079101562 3 37.16621398925781 3 42.5 C 3 47.83378601074219 4.043960571289062 53.00643920898438 6.102882385253906 57.87425231933594 C 8.092185974121094 62.57753372192383 10.94070434570312 66.80213165283203 14.56928253173828 70.43071746826172 C 18.19786834716797 74.05929565429688 22.42246627807617 76.90781402587891 27.125732421875 78.89711761474609 C 31.99356079101562 80.95603942871094 37.16621398925781 82 42.5 82 C 47.83378601074219 82 53.00642395019531 80.95603942871094 57.87425231933594 78.89711761474609 C 62.57753372192383 76.90781402587891 66.80213165283203 74.05929565429688 70.43071746826172 70.43071746826172 C 74.05929565429688 66.80213165283203 76.90781402587891 62.57753372192383 78.89711761474609 57.87425231933594 C 80.95603942871094 53.00642395019531 82 47.83378601074219 82 42.5 C 82 37.16621398925781 80.95603942871094 31.99356079101562 78.89711761474609 27.125732421875 C 76.90781402587891 22.42246627807617 74.05929565429688 18.19786834716797 70.43071746826172 14.56928253173828 C 66.80213165283203 10.94070434570312 62.57753372192383 8.092185974121094 57.87425231933594 6.102882385253906 C 53.00643920898438 4.043960571289062 47.83378601074219 3 42.5 3 M 42.5 0 C 65.97209167480469 0 85 19.02789306640625 85 42.5 C 85 65.97209167480469 65.97209167480469 85 42.5 85 C 19.02789306640625 85 0 65.97209167480469 0 42.5 C 0 19.02789306640625 19.02789306640625 0 42.5 0 Z" stroke="none" fill="#a1bada"/>
                </g>
              </g>
            </g>
          </g>
        </g>
      </g>
    </g>
    <g id="aprender-en-linea_3_" data-name="aprender-en-linea (3)" transform="translate(209.567 779.472)">
      <path id="Trazado_1086752" data-name="Trazado 1086752" d="M71.521,424.127H9.356A1.856,1.856,0,0,1,7.5,422.272v-2.916A1.856,1.856,0,0,1,9.356,417.5H71.521a1.856,1.856,0,0,1,1.856,1.856v2.916A1.856,1.856,0,0,1,71.521,424.127Z" transform="translate(-6.506 -330.065)" fill="#a9dbf5"/>
      <path id="Trazado_1086753" data-name="Trazado 1086753" d="M464.476,417.5H460.5a1.856,1.856,0,0,1,1.856,1.856v2.916a1.856,1.856,0,0,1-1.856,1.856h3.976a1.856,1.856,0,0,0,1.856-1.856v-2.916A1.856,1.856,0,0,0,464.476,417.5Z" transform="translate(-399.461 -330.065)" fill="#88c3e0"/>
      <path id="Trazado_1086754" data-name="Trazado 1086754" d="M95.345,157.263l-51.693,0A2.651,2.651,0,0,1,41,154.614V120.153a2.651,2.651,0,0,1,2.651-2.651l51.693,0A2.651,2.651,0,0,1,98,120.151v34.461A2.651,2.651,0,0,1,95.345,157.263Z" transform="translate(-35.565 -69.83)" fill="#4380a0"/>
      <path id="Trazado_1086755" data-name="Trazado 1086755" d="M427.627,154.612a2.651,2.651,0,0,1-2.651,2.651H421a2.651,2.651,0,0,0,2.651-2.651V120.151a2.651,2.651,0,0,0-2.644-2.651h3.97a2.65,2.65,0,0,1,2.651,2.651Z" transform="translate(-365.197 -69.83)" fill="#3b7191"/>
      <path id="Trazado_1086756" data-name="Trazado 1086756" d="M120.043,179.31H71V147.5h49.042Z" transform="translate(-61.589 -95.853)" fill="#bbf7ff"/>
      <path id="Trazado_1086757" data-name="Trazado 1086757" d="M410.995,147.5h3.977v31.81h-3.977Z" transform="translate(-356.518 -95.853)" fill="#8bf0ff"/>
      <path id="Trazado_1086758" data-name="Trazado 1086758" d="M128.485,119.793H109.743a.743.743,0,0,1-.743-.743V95.98a.743.743,0,0,1,.743-.743h18.742Z" transform="translate(-94.552 -50.518)" fill="#f75632"/>
      <path id="Trazado_1086759" data-name="Trazado 1086759" d="M274.742,119.793H256V95.237h18.742a.743.743,0,0,1,.743.743v23.071A.743.743,0,0,1,274.742,119.793Z" transform="translate(-222.067 -50.518)" fill="#e33629"/>
      <path id="Trazado_1086760" data-name="Trazado 1086760" d="M150.616,75.782l-15.6-5.4a.743.743,0,0,1-.5-.7V45.243a.743.743,0,0,1,.985-.7l15.118,5.228Z" transform="translate(-116.683 -6.506)" fill="#f3f3f3"/>
      <path id="Trazado_1086761" data-name="Trazado 1086761" d="M256,75.782l15.6-5.4a.743.743,0,0,0,.5-.7V45.243a.743.743,0,0,0-.986-.7L256,49.769Z" transform="translate(-222.067 -6.506)" fill="#e4e4e4"/>
      <path id="Trazado_1086762" data-name="Trazado 1086762" d="M222.911,420.681h-8.422A1.489,1.489,0,0,1,213,419.192V417.5h11.4v1.693A1.489,1.489,0,0,1,222.911,420.681Z" transform="translate(-184.767 -330.065)" fill="#88c3e0"/>
      <g id="Grupo_1215774" data-name="Grupo 1215774" transform="translate(0 37)">
        <path id="Trazado_1086763" data-name="Trazado 1086763" d="M65.015,86.441H63.024a3.622,3.622,0,0,0,.4-1.658V50.32a3.649,3.649,0,0,0-3.645-3.645H54.411V45.461a1.738,1.738,0,0,0-1.736-1.736H51.03V38.736a1.737,1.737,0,0,0-2.3-1.641l-3.131,1.083a.994.994,0,0,0,.65,1.879l2.8-.967V63L34.927,67.88V43.97l7.308-2.527a.994.994,0,1,0-.65-1.879L33.933,42.21,19.14,37.1a1.737,1.737,0,0,0-2.3,1.641v4.988H15.19a1.738,1.738,0,0,0-1.736,1.736v1.215H8.086A3.649,3.649,0,0,0,4.44,50.322v3.535a.994.994,0,0,0,1.988,0V50.322a1.659,1.659,0,0,1,1.657-1.657h5.368v1.988H9.411a.994.994,0,0,0-.994.994V83.458a.994.994,0,0,0,.994.994H58.454a.994.994,0,0,0,.994-.994V51.646a.994.994,0,0,0-.994-.994H54.411V48.664h5.367a1.659,1.659,0,0,1,1.657,1.657V84.782a1.659,1.659,0,0,1-1.657,1.657H8.087A1.659,1.659,0,0,1,6.43,84.784V58.111a.994.994,0,0,0-1.988,0V84.784a3.62,3.62,0,0,0,.4,1.657H2.85A2.853,2.853,0,0,0,0,89.29v2.916a2.853,2.853,0,0,0,2.85,2.85H42.373a.994.994,0,1,0,0-1.988H2.85a.863.863,0,0,1-.862-.862V89.29a.863.863,0,0,1,.862-.862H27.239v.7a2.486,2.486,0,0,0,2.483,2.483h8.422a2.485,2.485,0,0,0,2.483-2.483v-.7H65.015a.863.863,0,0,1,.862.862v2.916a.863.863,0,0,1-.862.862h-18.3a.994.994,0,0,0,0,1.988h18.3a2.853,2.853,0,0,0,2.85-2.85V89.29a2.853,2.853,0,0,0-2.85-2.85ZM49.861,64.819a1.738,1.738,0,0,0,1.169-1.641V45.713h1.393V68.281H39.849ZM18.824,39.089,32.938,43.97V67.88L18.824,63Zm-3.382,6.624h1.393V63.178A1.738,1.738,0,0,0,18,64.819l10.012,3.462H15.442ZM57.459,52.64V82.463H10.406V52.641h3.049V68.533a1.738,1.738,0,0,0,1.736,1.736H52.675a1.738,1.738,0,0,0,1.736-1.736V52.64ZM38.638,89.127a.5.5,0,0,1-.494.495H29.722a.5.5,0,0,1-.495-.495v-.7h9.411Z" transform="translate(0 -37)"/>
        <path id="Trazado_1086764" data-name="Trazado 1086764" d="M177.1,309.387H150.983a.994.994,0,0,0,0,1.988H177.1a.994.994,0,0,0,0-1.988Z" transform="translate(-130.108 -273.282)"/>
        <path id="Trazado_1086765" data-name="Trazado 1086765" d="M167.919,341.2H150.983a.994.994,0,1,0,0,1.988h16.936a.994.994,0,1,0,0-1.988Z" transform="translate(-130.108 -300.88)"/>
      </g>
    </g>
  </g>
</svg>
