<svg xmlns="http://www.w3.org/2000/svg" xmlns:xlink="http://www.w3.org/1999/xlink" width="111.51" height="111.51" viewBox="0 0 111.51 111.51">
  <defs>
    <filter id="Elipse_11513" x="0" y="0" width="111.51" height="111.51" filterUnits="userSpaceOnUse">
      <feOffset dy="3" input="SourceAlpha"/>
      <feGaussianBlur stdDeviation="3" result="blur"/>
      <feFlood flood-opacity="0.161"/>
      <feComposite operator="in" in2="blur"/>
      <feComposite in="SourceGraphic"/>
    </filter>
  </defs>
  <g id="Grupo_1215788" data-name="Grupo 1215788" transform="translate(-745 -1769.622)">
    <g id="Grupo_1213319" data-name="Grupo 1213319" transform="translate(0 -1395.378)">
      <g id="Grupo_1211724" data-name="Grupo 1211724" transform="translate(0.094 -2060.456)">
        <g id="Grupo_1209509" data-name="Grupo 1209509" transform="translate(1.063 3556.211)">
          <g id="Grupo_1146577" data-name="Grupo 1146577" transform="translate(418.75 -192.966)">
            <g id="Grupo_1144092" data-name="Grupo 1144092" transform="translate(334.093 1868.211)">
              <g id="Grupo_1143593" data-name="Grupo 1143593" transform="translate(0 0)">
                <g id="Grupo_1143497" data-name="Grupo 1143497" transform="translate(0 0)">
                  <g transform="matrix(1, 0, 0, 1, -9, -6)" filter="url(#Elipse_11513)">
                    <g id="Elipse_11513-2" data-name="Elipse 11513" transform="translate(9 6)" fill="#fdf2d5" stroke="#f5c038" stroke-width="3">
                      <circle cx="46.755" cy="46.755" r="46.755" stroke="none"/>
                      <circle cx="46.755" cy="46.755" r="45.255" fill="none"/>
                    </g>
                  </g>
                </g>
              </g>
            </g>
          </g>
        </g>
      </g>
    </g>
    <g id="proyecto" transform="translate(761.345 1795.965)">
      <g id="Grupo_1215786" data-name="Grupo 1215786" transform="translate(8.727 1.072)">
        <path id="Trazado_1086809" data-name="Trazado 1086809" d="M73.706,10.191V68.234S23.244,78.447,20.445,78.522H20.3a5.145,5.145,0,0,1-5.145-5.145V10.191A2.691,2.691,0,0,1,17.851,7.5H71.015a2.691,2.691,0,0,1,2.691,2.691Z" transform="translate(-15.16 -7.5)" fill="#faf7f7"/>
        <path id="Trazado_1086810" data-name="Trazado 1086810" d="M73.706,399.96v4.65S23.244,414.823,20.445,414.9H20.3a5.145,5.145,0,0,1-5.145-5.145V399.96Z" transform="translate(-15.16 -343.876)" fill="#dedbee"/>
        <g id="Grupo_1215784" data-name="Grupo 1215784" transform="translate(37.494 33.701)">
          <path id="Trazado_1086811" data-name="Trazado 1086811" d="M302.931,260.827l-1.828-1.056a10.62,10.62,0,0,0,0-4.53l1.828-1.056a1.934,1.934,0,0,0,.707-2.642l-1.3-2.246a1.935,1.935,0,0,0-2.642-.709l-1.829,1.056a10.614,10.614,0,0,0-3.924-2.268v-2.109a1.934,1.934,0,0,0-1.934-1.933h-2.6a1.934,1.934,0,0,0-1.933,1.933v2.109a10.614,10.614,0,0,0-3.924,2.268l-1.828-1.056a1.935,1.935,0,0,0-2.642.709l-1.3,2.246a1.934,1.934,0,0,0,.707,2.642l1.829,1.056a10.619,10.619,0,0,0,0,4.53l-1.829,1.056a1.934,1.934,0,0,0-.707,2.642l1.3,2.246a1.935,1.935,0,0,0,2.642.709l1.828-1.056a10.614,10.614,0,0,0,3.924,2.268v2.109a1.934,1.934,0,0,0,1.933,1.934h2.6a1.934,1.934,0,0,0,1.934-1.934v-2.109a10.614,10.614,0,0,0,3.924-2.268l1.829,1.056a1.935,1.935,0,0,0,2.642-.709l1.3-2.246A1.935,1.935,0,0,0,302.931,260.827ZM290.716,262a4.491,4.491,0,1,1,4.491-4.491A4.491,4.491,0,0,1,290.716,262Z" transform="translate(-277.533 -243.333)" fill="#7a6d79"/>
        </g>
        <path id="Trazado_1086812" data-name="Trazado 1086812" d="M112.159,432.5a2.691,2.691,0,0,1,2.691,2.691v2.453a5.143,5.143,0,0,1-5.145,5.145H51.16a5.144,5.144,0,0,0,5.143-5.145v-2.453a2.691,2.691,0,0,1,2.691-2.691Z" transform="translate(-46.015 -371.766)" fill="#faf7f7"/>
        <path id="Trazado_1086813" data-name="Trazado 1086813" d="M70.323,187.141H52.4a3.014,3.014,0,0,1-3.014-3.014v-9.654a3.014,3.014,0,0,1,3.014-3.014H70.324a3.014,3.014,0,0,1,3.014,3.014v9.654A3.014,3.014,0,0,1,70.323,187.141Z" transform="translate(-44.496 -148.029)" fill="#ffd15b"/>
        <g id="Grupo_1215785" data-name="Grupo 1215785" transform="translate(8.561 27.47)">
          <path id="Trazado_1086814" data-name="Trazado 1086814" d="M75.067,227.327h6.685V231.6H75.067Z" transform="translate(-75.067 -223.383)" fill="#fe646f"/>
          <path id="Trazado_1086815" data-name="Trazado 1086815" d="M144.53,199.726h6.685v8.221H144.53Z" transform="translate(-134.604 -199.726)" fill="#bbec6c"/>
        </g>
      </g>
      <g id="Grupo_1215787" data-name="Grupo 1215787" transform="translate(7.655 0)">
        <path id="Trazado_1086816" data-name="Trazado 1086816" d="M8.727,13.427A1.072,1.072,0,0,0,9.8,12.355V3.763a1.621,1.621,0,0,1,1.619-1.619H64.583A1.621,1.621,0,0,1,66.2,3.763V30.034a1.072,1.072,0,1,0,2.144,0V3.763A3.767,3.767,0,0,0,64.583,0H11.418A3.767,3.767,0,0,0,7.655,3.763v8.593a1.072,1.072,0,0,0,1.072,1.072Z" transform="translate(-7.655 0)"/>
        <path id="Trazado_1086817" data-name="Trazado 1086817" d="M341.985,309.155a5.563,5.563,0,1,0-5.563,5.563A5.569,5.569,0,0,0,341.985,309.155Zm-8.981,0a3.419,3.419,0,1,1,3.418,3.42A3.422,3.422,0,0,1,333,309.155Z" transform="translate(-284.673 -260.209)"/>
        <path id="Trazado_1086818" data-name="Trazado 1086818" d="M74.871,158.392H68.345v-1.716a3.01,3.01,0,0,0,3.613-1.327l1.3-2.246a3.006,3.006,0,0,0-1.1-4.107l-1.175-.679a11.644,11.644,0,0,0,0-3.429l1.175-.679a3.01,3.01,0,0,0,1.1-4.106l-1.3-2.247a3.01,3.01,0,0,0-3.613-1.327V132.69a1.072,1.072,0,1,0-2.144,0v4.387a11.552,11.552,0,0,0-2.5-1.36v-1.354a3.009,3.009,0,0,0-3.005-3.005h-2.6a3.009,3.009,0,0,0-3.005,3.005v1.354a11.559,11.559,0,0,0-2.971,1.717l-1.174-.679a3.011,3.011,0,0,0-4.105,1.1l-1.3,2.247a3.011,3.011,0,0,0,1.1,4.106l1.176.679a11.641,11.641,0,0,0,0,3.428L46.652,149a3.009,3.009,0,0,0-1.1,4.106l1.3,2.246a3.012,3.012,0,0,0,4.107,1.1l1.173-.678a11.563,11.563,0,0,0,2.971,1.717v.9H21.707a3.768,3.768,0,0,0-3.764,3.763l0,2.37a4.143,4.143,0,0,1-3.966,4.155h-.105A4.073,4.073,0,0,1,9.8,164.608v-49.6a1.072,1.072,0,1,0-2.144,0v49.6a6.217,6.217,0,0,0,6.219,6.216H38.2a1.072,1.072,0,0,0,0-2.144H18.523a6.322,6.322,0,0,0,1.565-4.156l0-2.37a1.622,1.622,0,0,1,1.621-1.619H74.871a1.621,1.621,0,0,1,1.619,1.619v2.454a4.071,4.071,0,0,1-4.073,4.073H43.2a1.072,1.072,0,1,0,0,2.144H72.417a6.214,6.214,0,0,0,6.216-6.216v-2.454a3.767,3.767,0,0,0-3.762-3.763Zm-8.669,0h-2.5v-.9a11.551,11.551,0,0,0,2.5-1.36Zm-9.7-2.679a9.477,9.477,0,0,1-3.528-2.039,1.072,1.072,0,0,0-1.258-.136l-1.826,1.055a.865.865,0,0,1-1.18-.316l-1.3-2.247a.863.863,0,0,1,.315-1.178l1.829-1.056a1.072,1.072,0,0,0,.511-1.156,9.549,9.549,0,0,1,0-4.075,1.072,1.072,0,0,0-.511-1.156l-1.829-1.056a.864.864,0,0,1-.316-1.178l1.3-2.247a.865.865,0,0,1,1.178-.317l1.828,1.056a1.072,1.072,0,0,0,1.258-.136,9.476,9.476,0,0,1,3.528-2.039,1.072,1.072,0,0,0,.746-1.021v-2.109a.863.863,0,0,1,.862-.862h2.6a.863.863,0,0,1,.862.862v2.109a1.072,1.072,0,0,0,.746,1.021,9.477,9.477,0,0,1,3.528,2.039,1.072,1.072,0,0,0,1.258.136l1.828-1.055a.864.864,0,0,1,1.179.316l1.3,2.247a.864.864,0,0,1-.315,1.179l-1.828,1.056a1.072,1.072,0,0,0-.511,1.156,9.548,9.548,0,0,1,0,4.075,1.072,1.072,0,0,0,.511,1.156l1.827,1.056a.863.863,0,0,1,.316,1.179l-1.3,2.246a.864.864,0,0,1-1.178.316L67.1,153.538a1.072,1.072,0,0,0-1.258.136,9.476,9.476,0,0,1-3.528,2.039,1.072,1.072,0,0,0-.746,1.021v1.657H57.244v-1.658a1.071,1.071,0,0,0-.746-1.021Z" transform="translate(-7.655 -97.658)"/>
        <path id="Trazado_1086819" data-name="Trazado 1086819" d="M216.684,54.914a2.657,2.657,0,0,0,1.357-2.328V46.332a1.072,1.072,0,0,0-2.144,0v6.255a.513.513,0,0,1-.253.453c-.278.154-.64-.165-.68-.2a1.072,1.072,0,0,0-1.447,1.581,3.021,3.021,0,0,0,1.976.808A2.428,2.428,0,0,0,216.684,54.914Z" transform="translate(-183.8 -38.792)"/>
        <path id="Trazado_1086820" data-name="Trazado 1086820" d="M262.829,47.9a1.072,1.072,0,1,0,0-2.144h-3.268a1.072,1.072,0,0,0-1.072,1.072v7.755a1.072,1.072,0,0,0,1.072,1.072h3.268a1.072,1.072,0,1,0,0-2.144h-2.2V51.781h1.955a1.072,1.072,0,1,0,0-2.144h-1.955V47.9Z" transform="translate(-222.645 -39.221)"/>
        <path id="Trazado_1086821" data-name="Trazado 1086821" d="M304.747,47.4a2.826,2.826,0,0,1,1.588.485,1.072,1.072,0,1,0,1.2-1.776,4.985,4.985,0,1,0-2.788,9.118,4.149,4.149,0,0,0,3.286-1.488,1.072,1.072,0,0,0-1.643-1.377,2.059,2.059,0,0,1-.209.216,2.087,2.087,0,0,1-1.435.506,2.841,2.841,0,1,1,0-5.683Z" transform="translate(-258.019 -38.792)"/>
        <path id="Trazado_1086822" data-name="Trazado 1086822" d="M370.16,46.332a1.072,1.072,0,0,0-1.072-1.072h-4.322a1.072,1.072,0,1,0,0,2.144h1.081v6.754a1.072,1.072,0,0,0,2.144,0V47.4h1.1A1.072,1.072,0,0,0,370.16,46.332Z" transform="translate(-312.815 -38.792)"/>
        <path id="Trazado_1086823" data-name="Trazado 1086823" d="M92.741,54.158a1.072,1.072,0,1,0,2.144,0V52.19l2.355,2.676a1.072,1.072,0,0,0,1.609-1.416L96.955,51.3a3.121,3.121,0,0,0,2.161-2.932A3.168,3.168,0,0,0,95.9,45.26h-2.08a1.072,1.072,0,0,0-1.072,1.075S92.741,54.158,92.741,54.158ZM95.9,47.4a.968.968,0,1,1,0,1.924l-1,0c0-.365,0-1.544-.005-1.928Z" transform="translate(-80.582 -38.792)"/>
        <path id="Trazado_1086824" data-name="Trazado 1086824" d="M39.071,54.158a1.072,1.072,0,1,0,2.144,0V51.824l1.107,0a3.281,3.281,0,1,0,0-6.561H40.143a1.072,1.072,0,0,0-1.072,1.075ZM42.322,47.4a1.138,1.138,0,1,1,0,2.274l-1.1,0c0-.425-.005-1.832-.006-2.277h1.1Z" transform="translate(-34.582 -38.792)"/>
        <path id="Trazado_1086825" data-name="Trazado 1086825" d="M151.916,50.244a4.985,4.985,0,1,0-4.985,4.985A4.991,4.991,0,0,0,151.916,50.244Zm-7.826,0a2.841,2.841,0,1,1,2.841,2.841A2.845,2.845,0,0,1,144.09,50.244Z" transform="translate(-122.755 -38.791)"/>
        <path id="Trazado_1086826" data-name="Trazado 1086826" d="M55.878,131.113a1.072,1.072,0,0,0,1.072,1.072h44.765a1.072,1.072,0,1,0,0-2.144H56.95A1.072,1.072,0,0,0,55.878,131.113Z" transform="translate(-48.987 -111.458)"/>
        <path id="Trazado_1086827" data-name="Trazado 1086827" d="M63.9,163.96H45.973a4.091,4.091,0,0,0-4.086,4.086V177.7a4.091,4.091,0,0,0,4.086,4.086H63.9a4.091,4.091,0,0,0,4.086-4.086v-9.654A4.09,4.09,0,0,0,63.9,163.96Zm1.942,13.74a1.945,1.945,0,0,1-1.942,1.943H45.973a1.945,1.945,0,0,1-1.942-1.943v-9.654a1.945,1.945,0,0,1,1.942-1.942H63.9a1.945,1.945,0,0,1,1.942,1.942Z" transform="translate(-36.995 -140.53)"/>
        <path id="Trazado_1086828" data-name="Trazado 1086828" d="M265.509,193.963a1.072,1.072,0,0,0-1.072-1.072H244.479a1.072,1.072,0,0,0,0,2.144h19.959A1.072,1.072,0,0,0,265.509,193.963Z" transform="translate(-209.717 -165.326)"/>
        <path id="Trazado_1086829" data-name="Trazado 1086829" d="M257.811,222.894a1.072,1.072,0,0,0-1.072-1.072H244.479a1.072,1.072,0,0,0,0,2.144h12.261A1.072,1.072,0,0,0,257.811,222.894Z" transform="translate(-209.717 -190.123)"/>
        <path id="Trazado_1086830" data-name="Trazado 1086830" d="M41.888,308.689a1.072,1.072,0,0,0,1.072,1.072h28.8a1.072,1.072,0,0,0,0-2.144H42.96A1.072,1.072,0,0,0,41.888,308.689Z" transform="translate(-36.996 -263.658)"/>
        <path id="Trazado_1086831" data-name="Trazado 1086831" d="M72.829,366.552a1.072,1.072,0,0,0-1.072-1.072H42.96a1.072,1.072,0,1,0,0,2.143h28.8A1.072,1.072,0,0,0,72.829,366.552Z" transform="translate(-36.996 -313.252)"/>
        <path id="Trazado_1086832" data-name="Trazado 1086832" d="M42.96,395.24a1.072,1.072,0,0,0,0,2.144H56.789a1.072,1.072,0,0,0,0-2.144Z" transform="translate(-36.996 -338.759)"/>
        <path id="Trazado_1086833" data-name="Trazado 1086833" d="M74.683,337.621a1.072,1.072,0,0,0-1.072-1.072H42.96a1.072,1.072,0,0,0,0,2.144H73.611A1.072,1.072,0,0,0,74.683,337.621Z" transform="translate(-36.996 -288.455)"/>
        <path id="Trazado_1086834" data-name="Trazado 1086834" d="M75.323,219.827H68.638a1.072,1.072,0,0,0-1.072,1.072v4.277a1.072,1.072,0,0,0,1.072,1.072h6.685a1.072,1.072,0,0,0,1.072-1.072V220.9A1.072,1.072,0,0,0,75.323,219.827ZM74.251,224.1H69.71V221.97h4.541V224.1Z" transform="translate(-59.005 -188.413)"/>
        <path id="Trazado_1086835" data-name="Trazado 1086835" d="M144.787,192.226H138.1a1.072,1.072,0,0,0-1.072,1.072v8.221a1.072,1.072,0,0,0,1.072,1.072h6.685a1.072,1.072,0,0,0,1.072-1.072V193.3a1.072,1.072,0,0,0-1.072-1.072Zm-1.072,8.221h-4.541v-6.078h4.541Z" transform="translate(-118.542 -164.756)"/>
      </g>
    </g>
  </g>
</svg>
