<svg xmlns="http://www.w3.org/2000/svg" xmlns:xlink="http://www.w3.org/1999/xlink" width="111.51" height="111.51" viewBox="0 0 111.51 111.51">
  <defs>
    <filter id="Elipse_11513" x="0" y="0" width="111.51" height="111.51" filterUnits="userSpaceOnUse">
      <feOffset dy="3" input="SourceAlpha"/>
      <feGaussianBlur stdDeviation="3" result="blur"/>
      <feFlood flood-opacity="0.161"/>
      <feComposite operator="in" in2="blur"/>
      <feComposite in="SourceGraphic"/>
    </filter>
  </defs>
  <g id="Grupo_1215820" data-name="Grupo 1215820" transform="translate(-1164.089 -1770.104)">
    <g id="Grupo_1213318" data-name="Grupo 1213318" transform="translate(0 -1395.378)">
      <g id="Grupo_1211725" data-name="Grupo 1211725" transform="translate(0 -2059.973)">
        <g id="Grupo_1209510" data-name="Grupo 1209510" transform="translate(1.063 3556.211)">
          <g id="Grupo_1144092" data-name="Grupo 1144092" transform="translate(1172.025 1675.245)">
            <g id="Grupo_1143593" data-name="Grupo 1143593" transform="translate(0 0)">
              <g id="Grupo_1143497" data-name="Grupo 1143497" transform="translate(0 0)">
                <g transform="matrix(1, 0, 0, 1, -9, -6)" filter="url(#Elipse_11513)">
                  <g id="Elipse_11513-2" data-name="Elipse 11513" transform="translate(9 6)" fill="#fdf2d5" stroke="#f5c038" stroke-width="3">
                    <circle cx="46.755" cy="46.755" r="46.755" stroke="none"/>
                    <circle cx="46.755" cy="46.755" r="45.255" fill="none"/>
                  </g>
                </g>
              </g>
            </g>
          </g>
        </g>
      </g>
    </g>
    <g id="objetivo_5_" data-name="objetivo (5)" transform="translate(1167.192 1796.13)">
      <g id="Grupo_1215814" data-name="Grupo 1215814" transform="translate(14.835 1)">
        <g id="Grupo_1215803" data-name="Grupo 1215803" transform="translate(26.365)">
          <path id="Trazado_1086836" data-name="Trazado 1086836" d="M255.143,54.926h-35.95l-.133.133V83.5a16.279,16.279,0,0,1,8.5,22.374h27.068a.645.645,0,0,0,.645-.645V55.059Z" transform="translate(-219.06 -48.602)" fill="#c8effe"/>
          <path id="Trazado_1086837" data-name="Trazado 1086837" d="M223.052,85.807V55.059l.133-.133h-3.992l-.133.133V83.5A16.256,16.256,0,0,1,223.052,85.807Z" transform="translate(-219.06 -48.602)" fill="#99e6fc"/>
          <g id="Grupo_1215789" data-name="Grupo 1215789" transform="translate(0)">
            <path id="Trazado_1086838" data-name="Trazado 1086838" d="M255.277,13.957H219.06V8.833A1.333,1.333,0,0,1,220.393,7.5h33.55a1.333,1.333,0,0,1,1.333,1.333Z" transform="translate(-219.06 -7.5)" fill="#7ca1b1"/>
          </g>
          <g id="Grupo_1215790" data-name="Grupo 1215790" transform="translate(0)">
            <path id="Trazado_1086839" data-name="Trazado 1086839" d="M220.393,7.5a1.333,1.333,0,0,0-1.333,1.333v5.124h8V7.5Z" transform="translate(-219.06 -7.5)" fill="#678d98"/>
          </g>
          <g id="Grupo_1215791" data-name="Grupo 1215791" transform="translate(0)">
            <path id="Trazado_1086840" data-name="Trazado 1086840" d="M224.386,7.5h-3.992a1.333,1.333,0,0,0-1.333,1.333v5.124h3.992V8.833A1.333,1.333,0,0,1,224.386,7.5Z" transform="translate(-219.06 -7.5)" fill="#537983"/>
          </g>
          <g id="Grupo_1215794" data-name="Grupo 1215794" transform="translate(6.036 10.844)">
            <g id="Grupo_1215792" data-name="Grupo 1215792">
              <path id="Trazado_1086841" data-name="Trazado 1086841" d="M268.981,93.877h-4.253a.4.4,0,0,1-.4-.4V89.224a.4.4,0,0,1,.4-.4h4.253a.4.4,0,0,1,.4.4v4.253A.4.4,0,0,1,268.981,93.877Z" transform="translate(-264.328 -88.824)" fill="#01d0fb"/>
            </g>
            <g id="Grupo_1215793" data-name="Grupo 1215793">
              <path id="Trazado_1086842" data-name="Trazado 1086842" d="M266.565,93.477V89.224a.4.4,0,0,1,.4-.4h-2.237a.4.4,0,0,0-.4.4v4.253a.4.4,0,0,0,.4.4h2.237A.4.4,0,0,1,266.565,93.477Z" transform="translate(-264.328 -88.824)" fill="#01c0fa"/>
            </g>
          </g>
          <g id="Grupo_1215797" data-name="Grupo 1215797" transform="translate(6.036 19.793)">
            <g id="Grupo_1215795" data-name="Grupo 1215795">
              <path id="Trazado_1086843" data-name="Trazado 1086843" d="M268.981,160.989h-4.253a.4.4,0,0,1-.4-.4v-4.253a.4.4,0,0,1,.4-.4h4.253a.4.4,0,0,1,.4.4v4.253A.4.4,0,0,1,268.981,160.989Z" transform="translate(-264.328 -155.936)" fill="#01d0fb"/>
            </g>
            <g id="Grupo_1215796" data-name="Grupo 1215796">
              <path id="Trazado_1086844" data-name="Trazado 1086844" d="M266.565,160.589v-4.253a.4.4,0,0,1,.4-.4h-2.237a.4.4,0,0,0-.4.4v4.253a.4.4,0,0,0,.4.4h2.237A.4.4,0,0,1,266.565,160.589Z" transform="translate(-264.328 -155.936)" fill="#01c0fa"/>
            </g>
          </g>
          <g id="Grupo_1215800" data-name="Grupo 1215800" transform="translate(6.036 28.742)">
            <g id="Grupo_1215798" data-name="Grupo 1215798">
              <path id="Trazado_1086845" data-name="Trazado 1086845" d="M268.981,228.1h-4.253a.4.4,0,0,1-.4-.4v-4.253a.4.4,0,0,1,.4-.4h4.253a.4.4,0,0,1,.4.4V227.7A.4.4,0,0,1,268.981,228.1Z" transform="translate(-264.328 -223.048)" fill="#01d0fb"/>
            </g>
            <g id="Grupo_1215799" data-name="Grupo 1215799">
              <path id="Trazado_1086846" data-name="Trazado 1086846" d="M266.565,227.7v-4.253a.4.4,0,0,1,.4-.4h-2.237a.4.4,0,0,0-.4.4V227.7a.4.4,0,0,0,.4.4h2.237A.4.4,0,0,1,266.565,227.7Z" transform="translate(-264.328 -223.048)" fill="#01c0fa"/>
            </g>
          </g>
          <g id="Grupo_1215802" data-name="Grupo 1215802" transform="translate(6.036 37.691)">
            <path id="Trazado_1086847" data-name="Trazado 1086847" d="M268.981,290.159h-4.253a.4.4,0,0,0-.4.4v1.026a16.3,16.3,0,0,1,2.473,3.627h2.18a.4.4,0,0,0,.4-.4v-4.253A.4.4,0,0,0,268.981,290.159Z" transform="translate(-264.328 -290.159)" fill="#01d0fb"/>
            <g id="Grupo_1215801" data-name="Grupo 1215801">
              <path id="Trazado_1086848" data-name="Trazado 1086848" d="M266.565,294.756v-4.2a.4.4,0,0,1,.4-.4h-2.237a.4.4,0,0,0-.4.4v1.026A16.326,16.326,0,0,1,266.565,294.756Z" transform="translate(-264.328 -290.159)" fill="#01c0fa"/>
            </g>
          </g>
        </g>
        <g id="Grupo_1215810" data-name="Grupo 1215810" transform="translate(4.044 33.734)">
          <path id="Trazado_1086849" data-name="Trazado 1086849" d="M67.931,260.489a16.336,16.336,0,0,0-3.427.363A8.61,8.61,0,0,1,52.681,271.08a16.271,16.271,0,1,0,15.249-10.591Z" transform="translate(-51.662 -260.489)" fill="#fd5426"/>
          <g id="Grupo_1215804" data-name="Grupo 1215804" transform="translate(0 10.591)">
            <path id="Trazado_1086850" data-name="Trazado 1086850" d="M55.038,345.593a16.259,16.259,0,0,1,.759-4.923,8.559,8.559,0,0,1-3.117-.754A16.277,16.277,0,0,0,67.93,361.861a16.422,16.422,0,0,0,1.689-.087A16.271,16.271,0,0,1,55.038,345.593Z" transform="translate(-51.661 -339.915)" fill="#ef4424"/>
          </g>
          <path id="Trazado_1086851" data-name="Trazado 1086851" d="M102.261,300.1a10.933,10.933,0,0,0-3.7.643,8.625,8.625,0,0,1-6,5.2,10.984,10.984,0,1,0,9.7-5.838Z" transform="translate(-85.992 -294.819)" fill="#fff"/>
          <path id="Trazado_1086852" data-name="Trazado 1086852" d="M94.7,311.088a11,11,0,0,1,9.271-10.852,10.972,10.972,0,0,0-5.415.508,8.625,8.625,0,0,1-6,5.2,10.984,10.984,0,0,0,11.417,16A11,11,0,0,1,94.7,311.088Z" transform="translate(-85.992 -294.819)" fill="#eef5f6"/>
          <g id="Grupo_1215805" data-name="Grupo 1215805" transform="translate(36.645 12.463)">
            <path id="Trazado_1086853" data-name="Trazado 1086853" d="M337.163,353.952h-7.881a.4.4,0,0,0-.33.175l-2.478,3.631,2.478,3.632a.4.4,0,0,0,.33.175h7.881a.4.4,0,0,0,.326-.632l-2.265-3.174,2.265-3.174A.4.4,0,0,0,337.163,353.952Z" transform="translate(-326.474 -353.952)" fill="#fff"/>
          </g>
          <g id="Grupo_1215806" data-name="Grupo 1215806" transform="translate(36.645 12.463)">
            <path id="Trazado_1086854" data-name="Trazado 1086854" d="M337.163,353.952h-7.881a.4.4,0,0,0-.33.175l-2.478,3.631,2.478,3.632a.4.4,0,0,0,.33.175h7.881a.4.4,0,0,0,.326-.632l-2.265-3.174,2.265-3.174A.4.4,0,0,0,337.163,353.952Z" transform="translate(-326.474 -353.952)" fill="#fff"/>
          </g>
          <g id="Grupo_1215807" data-name="Grupo 1215807" transform="translate(36.645 12.463)">
            <path id="Trazado_1086855" data-name="Trazado 1086855" d="M332.334,361.388l-2.478-3.631,2.478-3.632a.4.4,0,0,1,.33-.175h-3.381a.4.4,0,0,0-.33.175l-2.478,3.632,2.478,3.631a.4.4,0,0,0,.33.175h3.381A.4.4,0,0,1,332.334,361.388Z" transform="translate(-326.475 -353.951)" fill="#eef5f6"/>
          </g>
          <g id="Grupo_1215808" data-name="Grupo 1215808" transform="translate(10.564 10.564)">
            <circle id="Elipse_12668" data-name="Elipse 12668" cx="5.705" cy="5.705" r="5.705" fill="#fd5426"/>
          </g>
          <g id="Grupo_1215809" data-name="Grupo 1215809" transform="translate(10.564 10.564)">
            <path id="Trazado_1086856" data-name="Trazado 1086856" d="M134.235,345.419a5.714,5.714,0,0,1,4.03-5.453,5.7,5.7,0,1,0,0,10.907A5.714,5.714,0,0,1,134.235,345.419Z" transform="translate(-130.886 -339.714)" fill="#ef4424"/>
          </g>
        </g>
        <g id="Grupo_1215813" data-name="Grupo 1215813" transform="translate(0 27.869)">
          <g id="Grupo_1215811" data-name="Grupo 1215811">
            <circle id="Elipse_12669" data-name="Elipse 12669" cx="8.611" cy="8.611" r="8.611" fill="#fed402"/>
          </g>
          <g id="Grupo_1215812" data-name="Grupo 1215812" transform="translate(0)">
            <path id="Trazado_1086857" data-name="Trazado 1086857" d="M25.824,225.113A8.613,8.613,0,0,1,32.19,216.8a8.611,8.611,0,1,0,0,16.627,8.613,8.613,0,0,1-6.366-8.313Z" transform="translate(-21.335 -216.502)" fill="#fac600"/>
          </g>
        </g>
      </g>
      <g id="Grupo_1215818" data-name="Grupo 1215818" transform="translate(22.258 6.534)">
        <g id="Grupo_1215816" data-name="Grupo 1215816" transform="translate(0 0)">
          <g id="Grupo_1215815" data-name="Grupo 1215815">
            <path id="Trazado_1086858" data-name="Trazado 1086858" d="M79.921,49.137l-2.784,2.784a.467.467,0,0,0-.137.331V67.4a.468.468,0,0,0,.468.468H91.6a.468.468,0,0,0,.468-.468V49.468A.468.468,0,0,0,91.6,49H80.251A.467.467,0,0,0,79.921,49.137Z" transform="translate(-77 -49)" fill="#fdf6ec"/>
          </g>
        </g>
        <g id="Grupo_1215817" data-name="Grupo 1215817" transform="translate(0)">
          <path id="Trazado_1086859" data-name="Trazado 1086859" d="M81.534,67.4V52.251a.468.468,0,0,1,.137-.331l2.784-2.784A.468.468,0,0,1,84.785,49H80.251a.468.468,0,0,0-.331.137l-2.784,2.784a.468.468,0,0,0-.137.331V67.4a.468.468,0,0,0,.468.468H82A.467.467,0,0,1,81.534,67.4Z" transform="translate(-77 -49)" fill="#fef1da"/>
        </g>
      </g>
      <g id="Grupo_1215819" data-name="Grupo 1215819" transform="translate(13.835)">
        <path id="Trazado_1086860" data-name="Trazado 1086860" d="M77.417,30.736a1,1,0,0,0,1-1V2.334A2.336,2.336,0,0,0,76.084,0H42.534A2.336,2.336,0,0,0,40.2,2.334V34.489a17.275,17.275,0,0,0-7.815-.532A9.609,9.609,0,1,0,18.676,45.818,17.267,17.267,0,0,0,50.3,59.273H76.772a1.647,1.647,0,0,0,1.645-1.645V34.4a1,1,0,0,0-2,0V57.273H51.238A17.147,17.147,0,0,0,52.387,52h2.608l2.18,3.195a1.4,1.4,0,0,0,1.157.611h7.881a1.4,1.4,0,0,0,1.14-2.213L66.216,52h.048a1,1,0,1,0,0-2h-.048l1.136-1.592A1.4,1.4,0,0,0,66.213,46.2H58.332a1.4,1.4,0,0,0-1.157.611L54.995,50H52.387a17.15,17.15,0,0,0-1.144-5.259h.648a1.4,1.4,0,0,0,1.4-1.4V39.091a1.4,1.4,0,0,0-1.4-1.4H47.637a1.4,1.4,0,0,0-1.005.428A17.321,17.321,0,0,0,42.2,35.242V8.457H76.417V29.736a1,1,0,0,0,1,1ZM58.649,53.809,57.417,52h6.342l1.289,1.806Zm0-5.612h6.4L63.758,50H57.417ZM15.835,37.48a7.611,7.611,0,1,1,7.611,7.611A7.619,7.619,0,0,1,15.835,37.48ZM35.148,66.272A15.271,15.271,0,0,1,20.517,46.633a9.572,9.572,0,0,0,2.929.458c.126,0,.25,0,.375-.009A11.98,11.98,0,0,0,41.7,61.034a1,1,0,1,0-1.1-1.673A9.98,9.98,0,0,1,26.137,46.7a9.653,9.653,0,0,0,6.05-5.238A9.983,9.983,0,0,1,45.084,50H41.777a6.7,6.7,0,1,0,0,2h3.306a9.938,9.938,0,0,1-1.5,4.334,1,1,0,0,0,1.689,1.072A11.933,11.933,0,0,0,47.091,52h3.292A15.288,15.288,0,0,1,35.148,66.272Zm0-14.268h4.6a4.7,4.7,0,1,1,0-2h-4.6a1,1,0,0,0,0,2ZM48.237,39.691H51.29v3.053h-.98a17.348,17.348,0,0,0-2.073-2.993v-.061ZM50.383,50h-3.29a11.982,11.982,0,0,0-14.2-10.772,9.505,9.505,0,0,0,.03-3.333A15.262,15.262,0,0,1,50.383,50ZM48.2,6.457h-6V2.334A.334.334,0,0,1,42.534,2H48.2V6.457Zm2,0V2H76.084a.334.334,0,0,1,.333.333V6.457Z" transform="translate(-13.835)"/>
        <path id="Trazado_1086861" data-name="Trazado 1086861" d="M337.626,87.114H322.044a1,1,0,0,0,0,2h15.582a1,1,0,1,0,0-2Z" transform="translate(-280.08 -75.498)"/>
        <path id="Trazado_1086862" data-name="Trazado 1086862" d="M322.044,115.432h9.228a1,1,0,0,0,0-2h-9.228a1,1,0,0,0,0,2Z" transform="translate(-280.08 -98.307)"/>
        <path id="Trazado_1086863" data-name="Trazado 1086863" d="M337.626,154.226H322.044a1,1,0,0,0,0,2h15.582a1,1,0,1,0,0-2Z" transform="translate(-280.08 -133.661)"/>
        <path id="Trazado_1086864" data-name="Trazado 1086864" d="M322.044,182.544h9.228a1,1,0,0,0,0-2h-9.228a1,1,0,0,0,0,2Z" transform="translate(-280.08 -156.47)"/>
        <path id="Trazado_1086865" data-name="Trazado 1086865" d="M337.626,221.337H322.044a1,1,0,0,0,0,2h15.582a1,1,0,1,0,0-2Z" transform="translate(-280.08 -191.823)"/>
        <path id="Trazado_1086866" data-name="Trazado 1086866" d="M322.044,249.656h9.228a1,1,0,0,0,0-2h-9.228a1,1,0,0,0,0,2Z" transform="translate(-280.08 -214.633)"/>
        <path id="Trazado_1086867" data-name="Trazado 1086867" d="M263.882,82.724a1.4,1.4,0,0,0-1.4-1.4h-4.253a1.4,1.4,0,0,0-1.4,1.4v4.253a1.4,1.4,0,0,0,1.4,1.4h4.253a1.4,1.4,0,0,0,1.4-1.4Zm-2,3.653h-3.053V83.324h3.053Z" transform="translate(-224.426 -70.48)"/>
        <path id="Trazado_1086868" data-name="Trazado 1086868" d="M263.882,149.836a1.4,1.4,0,0,0-1.4-1.4h-4.253a1.4,1.4,0,0,0-1.4,1.4v4.253a1.4,1.4,0,0,0,1.4,1.4h4.253a1.4,1.4,0,0,0,1.4-1.4Zm-2,3.653h-3.053v-3.053h3.053Z" transform="translate(-224.426 -128.643)"/>
        <path id="Trazado_1086869" data-name="Trazado 1086869" d="M262.482,215.547h-4.253a1.4,1.4,0,0,0-1.4,1.4V221.2a1.4,1.4,0,0,0,1.4,1.4h4.253a1.4,1.4,0,0,0,1.4-1.4v-4.253A1.4,1.4,0,0,0,262.482,215.547Zm-.6,5.054h-3.053v-3.053h3.053Z" transform="translate(-224.426 -186.805)"/>
        <path id="Trazado_1086870" data-name="Trazado 1086870" d="M338.626,289.449a1,1,0,0,0-1-1H322.044a1,1,0,0,0,0,2h15.582A1,1,0,0,0,338.626,289.449Z" transform="translate(-280.08 -249.986)"/>
        <path id="Trazado_1086871" data-name="Trazado 1086871" d="M322.044,314.768a1,1,0,0,0,0,2h9.228a1,1,0,1,0,0-2Z" transform="translate(-280.08 -272.796)"/>
        <path id="Trazado_1086872" data-name="Trazado 1086872" d="M63.514,246.708v-.722a2.673,2.673,0,0,0-.075-5.345H61.589a.674.674,0,1,1,0-1.349h3.261a1,1,0,1,0,0-2H63.514v-.718a1,1,0,1,0-2,0v.722a2.673,2.673,0,0,0,.075,5.345h1.851a.674.674,0,1,1,0,1.349H60.178a1,1,0,0,0,0,2h1.335v.718a1,1,0,0,0,2,0Z" transform="translate(-52.903 -204.161)"/>
        <path id="Trazado_1086873" data-name="Trazado 1086873" d="M70.968,62.368H85.1A1.47,1.47,0,0,0,86.565,60.9V54.1a1,1,0,0,0-2,0v6.267H71.5v-14.4L73.972,43.5H84.565v5.934a1,1,0,1,0,2,0V42.968A1.469,1.469,0,0,0,85.1,41.5H73.751a1.459,1.459,0,0,0-1.038.43L69.93,44.713a1.458,1.458,0,0,0-.43,1.038V60.9A1.469,1.469,0,0,0,70.968,62.368Z" transform="translate(-62.077 -35.966)"/>
        <path id="Trazado_1086874" data-name="Trazado 1086874" d="M109.643,74.185h-6.308a1,1,0,0,0,0,2h6.308a1,1,0,0,0,0-2Z" transform="translate(-90.534 -64.293)"/>
        <path id="Trazado_1086875" data-name="Trazado 1086875" d="M109.643,99.448h-6.308a1,1,0,1,0,0,2h6.308a1,1,0,1,0,0-2Z" transform="translate(-90.534 -86.187)"/>
        <path id="Trazado_1086876" data-name="Trazado 1086876" d="M110.643,125.938a1,1,0,0,0-1-1h-6.308a1,1,0,0,0,0,2h6.308A1,1,0,0,0,110.643,125.938Z" transform="translate(-90.534 -108.278)"/>
        <path id="Trazado_1086877" data-name="Trazado 1086877" d="M103.335,150.315a1,1,0,1,0,0,2h2.828a1,1,0,1,0,0-2Z" transform="translate(-90.534 -130.271)"/>
      </g>
    </g>
  </g>
</svg>
