<svg xmlns="http://www.w3.org/2000/svg" width="85" height="92" viewBox="0 0 85 92">
  <g id="Grupo_1215833" data-name="Grupo 1215833" transform="translate(-180 -3383)">
    <rect id="Rectángulo_418845" data-name="Rectángulo 418845" width="60" height="92" transform="translate(205 3383)" fill="#f2dbfc"/>
    <g id="virtual_1_" data-name="virtual (1)" transform="translate(180 3390)">
      <path id="Trazado_1086888" data-name="Trazado 1086888" d="M57.691,355.721a12.871,12.871,0,0,1,8.462,12.026v6.587H43.724a3.3,3.3,0,0,1-3.3-3.3v-3.283a12.874,12.874,0,0,1,8.46-12.026Z" transform="translate(-33.71 -296.666)" fill="#9be69d"/>
      <path id="Trazado_1086889" data-name="Trazado 1086889" d="M43.232,367.743v3.284a3.3,3.3,0,0,0,3.3,3.3H43.724a3.3,3.3,0,0,1-3.3-3.3v-3.284a12.874,12.874,0,0,1,8.46-12.026h2.812A12.874,12.874,0,0,0,43.232,367.743Z" transform="translate(-33.71 -296.662)" fill="#6fd7a3"/>
      <path id="Trazado_1086890" data-name="Trazado 1086890" d="M44.786,114.584v4.933A10.913,10.913,0,0,1,33.872,130.43H16.342a7.906,7.906,0,0,1-7.907-7.907V114.79a8.484,8.484,0,0,1,15.92-4.082,10.584,10.584,0,0,1,20.431,3.876Z" transform="translate(-7.035 -86.738)" fill="#d1a08f"/>
      <path id="Trazado_1086891" data-name="Trazado 1086891" d="M28.905,142.009H16.342A7.906,7.906,0,0,1,8.435,134.1V126.37a8.483,8.483,0,0,1,14.764-5.7,8.456,8.456,0,0,0-2.2,5.7V134.1A7.906,7.906,0,0,0,28.905,142.009Z" transform="translate(-7.035 -98.317)" fill="#c68d7a"/>
      <path id="Trazado_1086892" data-name="Trazado 1086892" d="M68.729,204.134v5.592a12.227,12.227,0,0,1-7.82,11.406v2.72a4.475,4.475,0,0,1-4.243,4.509,4.407,4.407,0,0,1-4.568-4.4V221.13a12.228,12.228,0,0,1-7.817-11.4v-5.592a12.26,12.26,0,0,1,.233-2.39,1.154,1.154,0,0,1,1.375-.906,7.378,7.378,0,0,0,7.728-3.254.794.794,0,0,1,1.292-.055,13.532,13.532,0,0,0,12.506,5.155,1.151,1.151,0,0,1,1.309,1.111Q68.73,203.964,68.729,204.134Z" transform="translate(-36.93 -164.481)" fill="#ffdfcf"/>
      <path id="Trazado_1086893" data-name="Trazado 1086893" d="M61.5,231.1c-.194.09-.39.173-.59.249v2.72a4.475,4.475,0,0,1-4.243,4.509,4.407,4.407,0,0,1-4.568-4.4v-2.829a12.228,12.228,0,0,1-7.817-11.4v-5.592a12.26,12.26,0,0,1,.233-2.389,1.154,1.154,0,0,1,1.375-.906,7.381,7.381,0,0,0,6.263-1.58,12.211,12.211,0,0,0-.673,4.007v5.592A12.227,12.227,0,0,0,61.5,231.1Z" transform="translate(-36.931 -174.702)" fill="#ffcebf"/>
      <path id="Trazado_1086894" data-name="Trazado 1086894" d="M86.967,467.84H10.543a3.043,3.043,0,0,0,0,6.086H86.967a3.043,3.043,0,0,0,0-6.086Z" transform="translate(-6.255 -390.171)" fill="#d9b1ee"/>
      <path id="Trazado_1086895" data-name="Trazado 1086895" d="M19.677,473.035a3.033,3.033,0,0,0,2.152.891H10.543a3.043,3.043,0,1,1,0-6.086H21.829a3.043,3.043,0,0,0-2.152,5.195Z" transform="translate(-6.255 -390.171)" fill="#cb97e7"/>
      <path id="Trazado_1086896" data-name="Trazado 1086896" d="M219.259,226.186h39.877a4.077,4.077,0,0,0,4.077-4.077v-26.32a4.077,4.077,0,0,0-4.077-4.077H219.259a4.077,4.077,0,0,0-4.077,4.077v26.32A4.077,4.077,0,0,0,219.259,226.186Z" transform="translate(-179.458 -159.885)" fill="#596c76"/>
      <path id="Trazado_1086897" data-name="Trazado 1086897" d="M223.669,226.186h-4.409a4.077,4.077,0,0,1-4.077-4.077v-26.32a4.078,4.078,0,0,1,4.077-4.077h4.409a4.077,4.077,0,0,0-4.077,4.077v26.32A4.076,4.076,0,0,0,223.669,226.186Z" transform="translate(-179.458 -159.884)" fill="#465a61"/>
      <path id="Trazado_1086898" data-name="Trazado 1086898" d="M335.134,300.539H322.853V274.607a1.455,1.455,0,0,1,1.455-1.455h9.372a1.455,1.455,0,0,1,1.455,1.455v25.933Z" transform="translate(-269.254 -227.804)" fill="#7a8c98"/>
      <path id="Trazado_1086899" data-name="Trazado 1086899" d="M308.066,443.054H288.49a2.467,2.467,0,1,1,0-4.934h19.576a2.467,2.467,0,0,1,0,4.934Z" transform="translate(-238.539 -365.385)" fill="#596c76"/>
      <path id="Trazado_1086900" data-name="Trazado 1086900" d="M294.739,443.054H288.49a2.467,2.467,0,0,1,0-4.934h6.249a2.467,2.467,0,0,0,0,4.934Z" transform="translate(-238.539 -365.385)" fill="#465a61"/>
      <path id="Trazado_1086901" data-name="Trazado 1086901" d="M285.909,7.5H256.554a5.268,5.268,0,0,0-5.268,5.268v8.958a5.268,5.268,0,0,0,5.268,5.268h5.27v4.832a1.791,1.791,0,0,0,3.205,1.1l4.617-5.932h16.262a5.268,5.268,0,0,0,5.268-5.268V12.768A5.268,5.268,0,0,0,285.909,7.5Z" transform="translate(-209.569 -6.255)" fill="#e8edf2"/>
      <path id="Trazado_1086902" data-name="Trazado 1086902" d="M261.048,26.994h-4.494a5.269,5.269,0,0,1-5.268-5.268V12.768A5.269,5.269,0,0,1,256.554,7.5h4.494a5.269,5.269,0,0,0-5.268,5.268v8.958A5.269,5.269,0,0,0,261.048,26.994Z" transform="translate(-209.569 -6.255)" fill="#d9e7ec"/>
      <path id="Trazado_1086903" data-name="Trazado 1086903" d="M104.611,434.778V436.2H99.74v-6.3A4.871,4.871,0,0,1,104.611,434.778Z" transform="translate(-83.182 -358.536)" fill="#ffdfcf"/>
      <g id="Grupo_1215832" data-name="Grupo 1215832" transform="translate(0 0)">
        <path id="Trazado_1086904" data-name="Trazado 1086904" d="M95.008,293.155a1.245,1.245,0,0,0,.544,1.675,9.331,9.331,0,0,0,8.447,0,1.245,1.245,0,1,0-1.13-2.219,6.833,6.833,0,0,1-6.186,0A1.245,1.245,0,0,0,95.008,293.155Z" transform="translate(-79.122 -243.919)"/>
        <path id="Trazado_1086905" data-name="Trazado 1086905" d="M91.973,245.759v-1.75a1.245,1.245,0,0,0-2.49,0v1.75a1.245,1.245,0,0,0,2.49,0Z" transform="translate(-74.627 -202.461)"/>
        <path id="Trazado_1086906" data-name="Trazado 1086906" d="M145.58,247a1.245,1.245,0,0,0,1.245-1.245v-1.75a1.245,1.245,0,0,0-2.49,0v1.75A1.245,1.245,0,0,0,145.58,247Z" transform="translate(-120.373 -202.461)"/>
        <path id="Trazado_1086907" data-name="Trazado 1086907" d="M79.678,148.026A5.328,5.328,0,0,0,85,142.7v-26.32a5.328,5.328,0,0,0-5.322-5.322H39.8a5.345,5.345,0,0,0-.805.061v-2.8a11.831,11.831,0,0,0-21.858-6.274q-.189-.21-.389-.409a1.245,1.245,0,1,0-1.753,1.768,7.172,7.172,0,0,1,1.235,1.639,1.245,1.245,0,0,0,2.249-.144,9.338,9.338,0,0,1,18.026,3.42v3.882a5.315,5.315,0,0,0-2.027,4.175v2.792a9.716,9.716,0,0,1-1.433,1.489v-.533q0-.187-.005-.373a2.4,2.4,0,0,0-2.718-2.311,12.4,12.4,0,0,1-1.629.108,12.2,12.2,0,0,1-9.727-4.788,2.039,2.039,0,0,0-3.328.145,6.133,6.133,0,0,1-6.423,2.705A2.4,2.4,0,0,0,6.364,117.5a13.549,13.549,0,0,0-.257,2.632v1.979a6.658,6.658,0,0,1-3.462-5.847v-7.731A7.245,7.245,0,0,1,9.881,101.3c.214,0,.422.009.617.027a1.245,1.245,0,1,0,.224-2.48c-.269-.024-.552-.037-.841-.037a9.738,9.738,0,0,0-9.727,9.727v7.731a9.142,9.142,0,0,0,5.952,8.575v.885a13.476,13.476,0,0,0,7.817,12.228v.743A14.179,14.179,0,0,0,5.464,151.56v3.283a4.519,4.519,0,0,0,.495,2.059H4.288a4.288,4.288,0,0,0,0,8.577H80.712a4.288,4.288,0,0,0,0-8.576h-7.68a3.71,3.71,0,0,0-3.5-4.934h-2.4v-3.943H79.678Zm-49.051-14.6a13.388,13.388,0,0,0,2.418-7.7v-2.012a12.229,12.229,0,0,0,1.433-1V142.7a5.328,5.328,0,0,0,5.322,5.322h1.5a1.245,1.245,0,0,0,0-2.49H39.8a2.835,2.835,0,0,1-2.832-2.832v-26.32a2.835,2.835,0,0,1,2.832-2.832H79.678a2.835,2.835,0,0,1,2.832,2.832V142.7a2.835,2.835,0,0,1-2.832,2.832H67.125V127.282a2.7,2.7,0,0,0-2.7-2.7H55.053a2.7,2.7,0,0,0-2.7,2.7v18.254H47.115a1.245,1.245,0,1,0,0,2.49h5.238v3.943h-2.4a3.71,3.71,0,0,0-3.5,4.934H33.686v-5.349A14.173,14.173,0,0,0,25.224,138.7v-.74a13.444,13.444,0,0,0,5.4-4.528Zm-18.814.062A10.914,10.914,0,0,1,8.6,125.725v-5.592a11.055,11.055,0,0,1,.193-2.06,8.624,8.624,0,0,0,8.592-3.3,14.659,14.659,0,0,0,11.312,5.276,14.9,14.9,0,0,0,1.86-.117q0,.1,0,.2v5.592a11.049,11.049,0,0,1-7.024,10.244,1.245,1.245,0,0,0-.8,1.162v2.72a3.243,3.243,0,0,1-3.043,3.264,3.162,3.162,0,0,1-3.278-3.158v-2.828a1.245,1.245,0,0,0-.8-1.161,10.943,10.943,0,0,1-3.805-2.479ZM7.954,151.567A11.68,11.68,0,0,1,14.1,141.376a5.66,5.66,0,0,0,5.47,4.233q.105,0,.211,0a5.726,5.726,0,0,0,5.239-4.244,11.674,11.674,0,0,1,6.175,10.2V156.9H29.455v-4.357a1.245,1.245,0,0,0-2.49,0V156.9H22.674v-.182a6.122,6.122,0,0,0-6.116-6.116H13.817v-1.014a1.245,1.245,0,0,0-2.49,0v1.086a1.244,1.244,0,0,0,.415,2.418h3.572V156.9h-5.3a2.061,2.061,0,0,1-2.059-2.059Zm9.85,1.749a3.632,3.632,0,0,1,2.38,3.4v.181H17.8Zm64.706,7.875a1.8,1.8,0,0,1-1.8,1.8H4.288a1.8,1.8,0,1,1,0-3.6H80.712A1.8,1.8,0,0,1,82.51,161.191Zm-11.761-5.51a1.223,1.223,0,0,1-1.222,1.222H49.951a1.222,1.222,0,0,1,0-2.444H69.527A1.223,1.223,0,0,1,70.749,155.681Zm-15.905-3.712V127.282a.21.21,0,0,1,.21-.21h9.372a.21.21,0,0,1,.21.21v24.688Z" transform="translate(0 -80.479)"/>
        <path id="Trazado_1086908" data-name="Trazado 1086908" d="M235.484,309.648h9.7a1.245,1.245,0,0,0,0-2.49h-9.7a1.245,1.245,0,0,0,0,2.49Z" transform="translate(-195.352 -256.165)"/>
        <path id="Trazado_1086909" data-name="Trazado 1086909" d="M235.484,334.636h9.7a1.245,1.245,0,0,0,0-2.49h-9.7a1.245,1.245,0,0,0,0,2.49Z" transform="translate(-195.352 -277.005)"/>
        <path id="Trazado_1086910" data-name="Trazado 1086910" d="M246.432,358.379a1.245,1.245,0,0,0-1.245-1.245h-9.7a1.245,1.245,0,0,0,0,2.49h9.7A1.245,1.245,0,0,0,246.432,358.379Z" transform="translate(-195.352 -297.844)"/>
        <path id="Trazado_1086911" data-name="Trazado 1086911" d="M414.366,309.648h9.7a1.245,1.245,0,0,0,0-2.49h-9.7a1.245,1.245,0,1,0,0,2.49Z" transform="translate(-344.536 -256.165)"/>
        <path id="Trazado_1086912" data-name="Trazado 1086912" d="M414.366,334.636h9.7a1.245,1.245,0,0,0,0-2.49h-9.7a1.245,1.245,0,1,0,0,2.49Z" transform="translate(-344.536 -277.005)"/>
        <path id="Trazado_1086913" data-name="Trazado 1086913" d="M414.366,359.624h9.7a1.245,1.245,0,0,0,0-2.49h-9.7a1.245,1.245,0,1,0,0,2.49Z" transform="translate(-344.536 -297.844)"/>
        <path id="Trazado_1086914" data-name="Trazado 1086914" d="M250.3,21.984h4.024v3.588a3,3,0,0,0,2.051,2.871,3.1,3.1,0,0,0,1.006.17,3,3,0,0,0,2.377-1.177L264,21.984h15.654a6.52,6.52,0,0,0,6.513-6.513V9.418a1.245,1.245,0,1,0-2.49,0v6.053a4.027,4.027,0,0,1-4.023,4.023H263.395a1.245,1.245,0,0,0-.983.48L257.8,25.906a.546.546,0,0,1-.978-.335V20.739a1.245,1.245,0,0,0-1.245-1.245H250.3a4.027,4.027,0,0,1-4.023-4.023V6.513A4.027,4.027,0,0,1,250.3,2.49h29.355a4,4,0,0,1,3.412,1.891,1.245,1.245,0,0,0,2.111-1.321A6.481,6.481,0,0,0,279.658,0H250.3a6.52,6.52,0,0,0-6.513,6.513v8.958A6.52,6.52,0,0,0,250.3,21.984Z" transform="translate(-203.317 0)"/>
        <path id="Trazado_1086915" data-name="Trazado 1086915" d="M308.061,40.4H279.672a1.245,1.245,0,0,0,0,2.49h28.389a1.245,1.245,0,0,0,0-2.49Z" transform="translate(-232.204 -33.69)"/>
        <path id="Trazado_1086916" data-name="Trazado 1086916" d="M308.061,72.644H279.672a1.245,1.245,0,0,0,0,2.49h28.389a1.245,1.245,0,0,0,0-2.49Z" transform="translate(-232.204 -60.584)"/>
      </g>
    </g>
  </g>
</svg>
