<svg xmlns="http://www.w3.org/2000/svg" xmlns:xlink="http://www.w3.org/1999/xlink" width="108" height="108" viewBox="0 0 108 108">
  <defs>
    <filter id="Fondo" x="0" y="0" width="108" height="108" filterUnits="userSpaceOnUse">
      <feOffset dy="3" input="SourceAlpha"/>
      <feGaussianBlur stdDeviation="3" result="blur"/>
      <feFlood flood-opacity="0.161"/>
      <feComposite operator="in" in2="blur"/>
      <feComposite in="SourceGraphic"/>
    </filter>
  </defs>
  <g id="Grupo_1215618" data-name="Grupo 1215618" transform="translate(-614.101 -295)">
    <g id="Grupo_1210004" data-name="Grupo 1210004" transform="translate(623.101 301)">
      <g id="Grupo_1143757" data-name="Grupo 1143757" transform="translate(0)">
        <g transform="matrix(1, 0, 0, 1, -9, -6)" filter="url(#Fondo)">
          <g id="Fondo-2" data-name="Fondo" transform="translate(9 6)" fill="#e8fcf6">
            <path d="M 44.99994277954102 88.49989318847656 C 39.1268310546875 88.49989318847656 33.43019104003906 87.34996795654297 28.06826782226562 85.08206939697266 C 22.88850593566895 82.89120483398438 18.23629188537598 79.75449371337891 14.24084281921387 75.75904083251953 C 10.24540519714355 71.76360321044922 7.108680248260498 67.11138153076172 4.917830467224121 61.93161773681641 C 2.649930238723755 56.56969451904297 1.50000524520874 50.87305450439453 1.50000524520874 44.99994277954102 C 1.50000524520874 39.1268310546875 2.649930238723755 33.43019104003906 4.917830467224121 28.06826782226562 C 7.108680248260498 22.88850593566895 10.24540519714355 18.23629188537598 14.24084281921387 14.24084281921387 C 18.23629188537598 10.24540519714355 22.88850593566895 7.108680248260498 28.06826782226562 4.917830467224121 C 33.43019104003906 2.649930238723755 39.1268310546875 1.50000524520874 44.99994277954102 1.50000524520874 C 50.87305450439453 1.50000524520874 56.56969451904297 2.649930238723755 61.93161773681641 4.917830467224121 C 67.11138153076172 7.108680248260498 71.76360321044922 10.24540519714355 75.75904083251953 14.24084281921387 C 79.75449371337891 18.23629188537598 82.89120483398438 22.88850593566895 85.08206939697266 28.06826782226562 C 87.34996795654297 33.43019104003906 88.49989318847656 39.1268310546875 88.49989318847656 44.99994277954102 C 88.49989318847656 50.87305450439453 87.34996795654297 56.56969451904297 85.08206939697266 61.93161773681641 C 82.89120483398438 67.11138153076172 79.75449371337891 71.76360321044922 75.75904083251953 75.75904083251953 C 71.76360321044922 79.75449371337891 67.11138153076172 82.89120483398438 61.93161773681641 85.08206939697266 C 56.56969451904297 87.34996795654297 50.87305450439453 88.49989318847656 44.99994277954102 88.49989318847656 Z" stroke="none"/>
            <path d="M 44.99994277954102 3 C 39.32865524291992 3 33.82861328125 4.110054016113281 28.65258407592773 6.299331665039062 C 23.65162658691406 8.414558410644531 19.15966796875 11.44332885742188 15.30149841308594 15.30149841308594 C 11.44332885742188 19.15966796875 8.414558410644531 23.65162658691406 6.299331665039062 28.65258407592773 C 4.110054016113281 33.82861328125 3 39.32865524291992 3 44.99994277954102 C 3 50.67121505737305 4.110054016113281 56.17125701904297 6.299331665039062 61.34728622436523 C 8.414558410644531 66.34825897216797 11.44332885742188 70.8402099609375 15.30149841308594 74.69838714599609 C 19.15966796875 78.55655670166016 23.65162658691406 81.5853271484375 28.65258407592773 83.70055389404297 C 33.82861328125 85.88983154296875 39.32867050170898 86.99988555908203 44.99994277954102 86.99988555908203 C 50.67121505737305 86.99988555908203 56.17125701904297 85.88983154296875 61.34728622436523 83.70055389404297 C 66.34825897216797 81.5853271484375 70.8402099609375 78.55655670166016 74.69838714599609 74.69838714599609 C 78.55655670166016 70.8402099609375 81.5853271484375 66.34825897216797 83.70055389404297 61.34728622436523 C 85.88983154296875 56.17125701904297 86.99988555908203 50.67121505737305 86.99988555908203 44.99994277954102 C 86.99988555908203 39.32867050170898 85.88983154296875 33.82861328125 83.70055389404297 28.65258407592773 C 81.5853271484375 23.65162658691406 78.55655670166016 19.15966796875 74.69838714599609 15.30149841308594 C 70.8402099609375 11.44332885742188 66.34825897216797 8.414558410644531 61.34728622436523 6.299331665039062 C 56.17125701904297 4.110054016113281 50.67121505737305 3 44.99994277954102 3 M 44.99994277954102 0 C 69.85271453857422 0 89.99988555908203 20.14715576171875 89.99988555908203 44.99994277954102 C 89.99988555908203 69.85271453857422 69.85271453857422 89.99988555908203 44.99994277954102 89.99988555908203 C 20.14715576171875 89.99988555908203 0 69.85271453857422 0 44.99994277954102 C 0 20.14715576171875 20.14715576171875 0 44.99994277954102 0 Z" stroke="none" fill="#157d60"/>
          </g>
        </g>
      </g>
    </g>
    <g id="maestro_2_" data-name="maestro (2)" transform="translate(617.096 315.399)">
      <g id="Grupo_1215616" data-name="Grupo 1215616" transform="translate(21.959 1.107)">
        <g id="Grupo_1215613" data-name="Grupo 1215613" transform="translate(0)">
          <path id="Trazado_1086543" data-name="Trazado 1086543" d="M104.539,37.824a4.78,4.78,0,0,0-2.987-7.354,23.307,23.307,0,0,0-46.609,0,4.78,4.78,0,0,0-2.987,7.354,9.447,9.447,0,0,0,4.638,16.15A6.562,6.562,0,0,0,62.5,63.392H94A6.562,6.562,0,0,0,99.9,53.974a9.446,9.446,0,0,0,4.638-16.15Z" transform="translate(-48.98 -7.496)" fill="#596c76"/>
          <path id="Trazado_1086544" data-name="Trazado 1086544" d="M80.248,63.4H62.5a6.559,6.559,0,0,1-5.9-9.418,9.447,9.447,0,0,1-4.638-16.151,4.707,4.707,0,0,1-.6-1.251,4.784,4.784,0,0,1,3.59-6.1A23.33,23.33,0,0,1,84.25,8.281a23.326,23.326,0,0,0-17.3,22.193s.688,4.845.083,5.371Z" transform="translate(-48.978 -7.5)" fill="#465a61"/>
          <path id="Trazado_1086545" data-name="Trazado 1086545" d="M179.55,378.591v6.978a.981.981,0,0,1-.982.982H152.186a.982.982,0,0,1-.982-.982v-6.978a12.419,12.419,0,0,1,2.921-8.019,12.546,12.546,0,0,1,3.409-2.835,12.4,12.4,0,0,1,6.141-1.617h3.4a12.472,12.472,0,0,1,12.471,12.471Z" transform="translate(-136.109 -313.165)" fill="#97da7b"/>
          <path id="Trazado_1086546" data-name="Trazado 1086546" d="M169.259,366.313a12.475,12.475,0,0,0-10.3,12.282v7.96H152.19a.982.982,0,0,1-.982-.982v-6.978a12.471,12.471,0,0,1,12.471-12.471h3.4A12.57,12.57,0,0,1,169.259,366.313Z" transform="translate(-136.113 -313.169)" fill="#80d261"/>
          <path id="Trazado_1086547" data-name="Trazado 1086547" d="M209.758,333.847a7.845,7.845,0,0,1-15.689,0,12.337,12.337,0,0,1,4.193-1.465V326.36h7.364v6.033a12.335,12.335,0,0,1,4.132,1.454Z" transform="translate(-172.645 -279.276)" fill="#ffdfcf"/>
          <path id="Trazado_1086548" data-name="Trazado 1086548" d="M201.083,330.91v7.27a12.534,12.534,0,0,0-4.484,5.265,7.816,7.816,0,0,1-2.529-5.718,12.338,12.338,0,0,1,4.193-1.465V330.91Z" transform="translate(-172.645 -283.154)" fill="#ffcebf"/>
          <path id="Trazado_1086549" data-name="Trazado 1086549" d="M130.34,176.66a5.337,5.337,0,0,1,7.584,6.219c-.82,2.83-4.269,6.163-7.1,5.343a3.166,3.166,0,0,1-.611-.25H100.35a3.157,3.157,0,0,1-.611.25c-2.832.82-6.281-2.513-7.1-5.343a5.335,5.335,0,0,1,7.582-6.219Z" transform="translate(-86.013 -151.17)" fill="#ffcebf"/>
          <path id="Trazado_1086550" data-name="Trazado 1086550" d="M175.33,132.556v11.521a15.058,15.058,0,1,1-30.115,0V133.113A1.257,1.257,0,0,1,146.8,131.9a22.708,22.708,0,0,0,5.837.784,20.742,20.742,0,0,0,14.285-5.561.943.943,0,0,1,1.438.2,8.229,8.229,0,0,0,5.856,3.982A1.266,1.266,0,0,1,175.33,132.556Z" transform="translate(-131.005 -109.247)" fill="#ffdfcf"/>
          <path id="Trazado_1086551" data-name="Trazado 1086551" d="M163.986,187.408a15.072,15.072,0,0,1-18.771-14.6V161.847a1.257,1.257,0,0,1,1.587-1.215,22.706,22.706,0,0,0,5.837.784v11.4a15.063,15.063,0,0,0,11.346,14.6Z" transform="translate(-131.005 -137.982)" fill="#ffcebf"/>
        </g>
        <g id="Grupo_1215614" data-name="Grupo 1215614" transform="translate(39.533 53.628)">
          <path id="Trazado_1086552" data-name="Trazado 1086552" d="M338.712,370.749l-9.413,2.2-9.413-2.2a2.586,2.586,0,0,0-3.175,2.518v14.585a2.586,2.586,0,0,0,2.586,2.586h20a2.586,2.586,0,0,0,2.586-2.586V373.267A2.586,2.586,0,0,0,338.712,370.749Z" transform="translate(-316.71 -370.68)" fill="#fd8087"/>
          <path id="Trazado_1086553" data-name="Trazado 1086553" d="M323.132,390.445H319.3a2.586,2.586,0,0,1-2.587-2.587V373.274a2.586,2.586,0,0,1,3.175-2.518l1.753.409a2.568,2.568,0,0,0-1.091,2.109v14.584A2.586,2.586,0,0,0,323.132,390.445Z" transform="translate(-316.71 -370.686)" fill="#fe646f"/>
          <path id="Trazado_1086554" data-name="Trazado 1086554" d="M367.981,454.7h-2.259a3.7,3.7,0,0,0-3.7,3.7v3.655h9.652V458.4A3.7,3.7,0,0,0,367.981,454.7Z" transform="translate(-355.335 -442.294)" fill="#ffdfcf"/>
          <path id="Trazado_1086555" data-name="Trazado 1086555" d="M368.53,454.753a3.7,3.7,0,0,0-3.073,3.643v3.656h-3.505V458.4a3.7,3.7,0,0,1,3.7-3.7h2.259A3.61,3.61,0,0,1,368.53,454.753Z" transform="translate(-355.272 -442.293)" fill="#ffcebf"/>
        </g>
        <g id="Grupo_1215615" data-name="Grupo 1215615" transform="translate(8.456 64.516)">
          <path id="Trazado_1086556" data-name="Trazado 1086556" d="M111.363,444.42H110a3.754,3.754,0,0,0-3.754,3.754v1.362A3.754,3.754,0,0,0,110,453.29h1.362a3.754,3.754,0,0,0,3.754-3.754v-1.362a3.754,3.754,0,0,0-3.754-3.754Z" transform="translate(-106.247 -444.419)" fill="#ffdfcf"/>
          <path id="Trazado_1086557" data-name="Trazado 1086557" d="M112.309,453.166a3.755,3.755,0,0,1-.945.12H110a3.755,3.755,0,0,1-3.755-3.754v-1.363A3.755,3.755,0,0,1,110,444.416h1.361a3.757,3.757,0,0,1,.945.12,3.756,3.756,0,0,0-2.809,3.634v1.363A3.756,3.756,0,0,0,112.309,453.166Z" transform="translate(-106.248 -444.416)" fill="#ffcebf"/>
        </g>
      </g>
      <g id="Grupo_1215617" data-name="Grupo 1215617" transform="translate(17.278 0)">
        <path id="Trazado_1086558" data-name="Trazado 1086558" d="M202.658,189.612a1.107,1.107,0,1,0-2.215,0v1.953a1.107,1.107,0,0,0,2.215,0Z" transform="translate(-173.397 -160.67)"/>
        <path id="Trazado_1086559" data-name="Trazado 1086559" d="M281.156,191.566v-1.953a1.107,1.107,0,0,0-2.215,0v1.953a1.107,1.107,0,0,0,2.215,0Z" transform="translate(-240.304 -160.67)"/>
        <path id="Trazado_1086560" data-name="Trazado 1086560" d="M218.25,259.853a6.612,6.612,0,0,0,4.69-1.939,1.107,1.107,0,1,0-1.566-1.566,4.422,4.422,0,0,1-6.247,0,1.107,1.107,0,1,0-1.566,1.566A6.612,6.612,0,0,0,218.25,259.853Z" transform="translate(-184.301 -218.219)"/>
        <path id="Trazado_1086561" data-name="Trazado 1086561" d="M86.378,54.428a3.673,3.673,0,0,0-3.136-.7l-1.487.347a1.107,1.107,0,0,0,.5,2.157l1.487-.347a1.478,1.478,0,0,1,1.815,1.439V71.906a1.481,1.481,0,0,1-1.48,1.48H78.943V70.837a4.811,4.811,0,0,0-3.755-4.687V57.881l2.171-.508a1.107,1.107,0,1,0-.5-2.157l-2.774.648L72.7,55.542A7.655,7.655,0,0,0,74.443,48.7q-.042-.182-.093-.361A10.582,10.582,0,0,0,81.6,38.315a10.53,10.53,0,0,0-2.711-7.061,5.893,5.893,0,0,0-.789-6.234,5.924,5.924,0,0,0-2.489-1.775,24.415,24.415,0,0,0-48.774,0,5.893,5.893,0,0,0-3.564,7.267,5.807,5.807,0,0,0,.288.744A10.557,10.557,0,0,0,28.1,48.342a7.7,7.7,0,0,0,.281,5.012,1.107,1.107,0,1,0,2.048-.844,5.467,5.467,0,0,1,.139-4.442,1.107,1.107,0,0,0-.783-1.569,8.344,8.344,0,0,1-6.72-8.183,8.263,8.263,0,0,1,2.627-6.075,1.107,1.107,0,0,0,.159-1.426,3.662,3.662,0,0,1-.627-2.055,3.684,3.684,0,0,1,2.921-3.6,1.108,1.108,0,0,0,.883-1.069,22.2,22.2,0,0,1,44.395,0,1.107,1.107,0,0,0,.882,1.069,3.689,3.689,0,0,1,2.087,1.262,3.672,3.672,0,0,1,.209,4.386,1.108,1.108,0,0,0,.158,1.428A8.339,8.339,0,0,1,72.666,46.5a1.108,1.108,0,0,0-.783,1.569,5.448,5.448,0,0,1,.545,2.376,5.475,5.475,0,0,1-2.356,4.486l-5.153-1.2a3.7,3.7,0,0,0-4.062,1.785,13.594,13.594,0,0,0-1.238-.8h0a13.418,13.418,0,0,0-3.571-1.4V51.368A16.225,16.225,0,0,0,67.03,39.347a4.481,4.481,0,0,0,.654.049,6.569,6.569,0,0,0,4.093-1.683,9.807,9.807,0,0,0,3.156-4.588,6.444,6.444,0,0,0-7.541-8.09v-.618a2.384,2.384,0,0,0-2.073-2.347A6.543,6.543,0,0,1,64.2,21.82a1.107,1.107,0,1,0-.673,2.11,8.746,8.746,0,0,0,1.5.333.163.163,0,0,1,.151.152v9.718c0,.007,0,.014,0,.021s0,.006,0,.009v1.773a13.95,13.95,0,1,1-27.9,0V24.972a.147.147,0,0,1,.06-.122.139.139,0,0,1,.127-.025,23.781,23.781,0,0,0,6.188.819,21.813,21.813,0,0,0,14.826-5.715c.138.215.286.428.442.635a1.107,1.107,0,1,0,1.772-1.329c-.155-.207-.3-.42-.433-.634a2.052,2.052,0,0,0-3.124-.443,20.169,20.169,0,0,1-19.087,4.531,2.364,2.364,0,0,0-2.986,2.283v.062a6.444,6.444,0,0,0-7.542,8.091,9.807,9.807,0,0,0,3.156,4.588,6.568,6.568,0,0,0,4.093,1.683,4.48,4.48,0,0,0,.656-.049A16.224,16.224,0,0,0,46.468,51.386V53.3a13.393,13.393,0,0,0-3.631,1.415h0A13.8,13.8,0,0,0,41.082,55.9h-5.6a5.4,5.4,0,0,1-2.067-.405,1.107,1.107,0,1,0-.843,2.048,7.607,7.607,0,0,0,2.91.572h3.386a13.471,13.471,0,0,0-2.774,6.439,4.879,4.879,0,0,0-.559-.033H34.169a4.863,4.863,0,0,0-1.02.109L19.316,43.212a1.108,1.108,0,1,0-1.861,1.2L31.133,65.585a4.854,4.854,0,0,0-1.825,3.792v1.362A4.867,4.867,0,0,0,34.169,75.6H84.081a3.7,3.7,0,0,0,3.694-3.694V57.322a3.673,3.673,0,0,0-1.4-2.894ZM69.918,27.272a4.234,4.234,0,0,1,2.888,5.237A7.629,7.629,0,0,1,70.37,36a4.118,4.118,0,0,1-3.023,1.151q.045-.6.046-1.217V34.144a2.576,2.576,0,0,1,1.9-2.476,1.107,1.107,0,0,0-.573-2.139,4.764,4.764,0,0,0-1.332.588V27.327a4.217,4.217,0,0,1,2.525-.055ZM32.084,36a7.629,7.629,0,0,1-2.435-3.492,4.229,4.229,0,0,1,5.414-5.182v2.789a4.76,4.76,0,0,0-1.333-.588,1.107,1.107,0,1,0-.573,2.139,2.577,2.577,0,0,1,1.905,2.487s0,.009,0,.013v1.769q0,.614.046,1.216A4.118,4.118,0,0,1,32.084,36ZM76.728,70.838v2.547H69.291V70.838a2.592,2.592,0,0,1,2.589-2.589h2.259A2.592,2.592,0,0,1,76.728,70.838ZM47.747,55.308a1.107,1.107,0,0,0,.936-1.094V51.9a16.2,16.2,0,0,0,5.15-.01v2.333a1.107,1.107,0,0,0,.931,1.093,11.2,11.2,0,0,1,3.165,1.008,6.738,6.738,0,0,1-13.4,0,11.206,11.206,0,0,1,3.221-1.018ZM42.5,57.6a8.987,8.987,0,0,0,7.622,6.908v3.569a1.107,1.107,0,0,0,2.215,0V64.509A8.989,8.989,0,0,0,59.957,57.6c.146.115.288.235.428.357V71.906a3.673,3.673,0,0,0,.31,1.48H39.606a4.832,4.832,0,0,0,.787-2.647V69.377a4.86,4.86,0,0,0-2.169-4.045A11.275,11.275,0,0,1,42.5,57.6ZM34.169,73.386a2.65,2.65,0,0,1-2.647-2.647V69.377a2.65,2.65,0,0,1,2.647-2.647h1.362a2.65,2.65,0,0,1,2.647,2.647v1.362a2.65,2.65,0,0,1-2.647,2.647Zm29.909,0a1.48,1.48,0,0,1-1.478-1.48V57.322a1.478,1.478,0,0,1,1.815-1.439l8.557,2v8.152H71.88a4.809,4.809,0,0,0-4.8,4.8v2.548Z" transform="translate(-17.278 0)"/>
        <path id="Trazado_1086562" data-name="Trazado 1086562" d="M419.917,404.942a1.107,1.107,0,0,0,1.33.826l5.659-1.322a1.107,1.107,0,0,0-.5-2.157l-5.659,1.322A1.108,1.108,0,0,0,419.917,404.942Z" transform="translate(-360.438 -342.862)"/>
      </g>
    </g>
  </g>
</svg>
