<svg xmlns="http://www.w3.org/2000/svg" xmlns:xlink="http://www.w3.org/1999/xlink" width="190" height="218.992" viewBox="0 0 190 218.992">
  <defs>
    <clipPath id="clip-path">
      <rect id="Rectángulo_418847" data-name="Rectángulo 418847" width="190" height="218.992" rx="14" transform="translate(180 5625.271)" fill="#c252f0"/>
    </clipPath>
  </defs>
  <g id="Grupo_1216101" data-name="Grupo 1216101" transform="translate(-180 -5632.271)">
    <path id="Trazado_1087459" data-name="Trazado 1087459" d="M14,0H149a14,14,0,0,1,14,14V171a14,14,0,0,1-14,14H14A14,14,0,0,1,0,171V14A14,14,0,0,1,14,0Z" transform="translate(194 5666.263)" fill="#c252f0"/>
    <g id="Enmascarar_grupo_1098936" data-name="Enmascarar grupo 1098936" transform="translate(0 7)" clip-path="url(#clip-path)">
      <g id="Grupo_1215838" data-name="Grupo 1215838" transform="translate(180 5625.271)">
        <path id="Trazado_1087161" data-name="Trazado 1087161" d="M6461.3,2307.848a107.884,107.884,0,0,0-9.693,22.623,70.615,70.615,0,0,0-3.061,19.864,29.63,29.63,0,0,0,4.034,15.484c.579.833,1.486.7,2.271.641,2.339-.166,4.521-.18,4.922,2.9.1.062.208.163.315.166,4.344.118,8.67.923,13.03.372a1.676,1.676,0,0,0,.7-2.2c-.405-1.378.291-1.8,1.411-2.146,5.167-1.6,10.406-2.923,15.667-4.167a9.609,9.609,0,0,0,1.055-.235c1.327-.476,1.448-.906.635-2.093a37.418,37.418,0,0,0-6.8-7.425,18.1,18.1,0,0,1-6.626-13.416c-.466-6.94.279-13.74,1.089-20.581a114.615,114.615,0,0,1,2.31-11.948c-.753,3.181-1.471,6.366-1.992,9.595a102.668,102.668,0,0,0-1.269,10.678,86.3,86.3,0,0,0-.126,12.571c.431,4.788,1.854,8.955,5.552,12.068,5.949,5.006,10.053,11.413,14.057,17.924,1.389,2.259,2.476,4.671,3.7,7.017,1.16,2.231,1.969,2.408,4.123,1.149a115.556,115.556,0,0,0,15.145-10.69c2.031-1.153,2.443-2.661,1.7-4.958-3.172-9.77-5.824-19.7-8.73-29.55-2.8-9.5-4.966-19.2-8.263-28.556-1.7-4.816-3.485-9.605-5.562-14.273-1.984-4.459-5.774-6.168-10.375-6.6-5.805-.546-10.209,2.408-14.218,5.937-6.06,5.334-10.367,12.115-14.722,18.823A1.458,1.458,0,0,0,6461.3,2307.848Z" transform="translate(-6417.834 -2159.402)" fill="#47759e"/>
        <path id="Trazado_1087162" data-name="Trazado 1087162" d="M6071.326,1371.353a22.276,22.276,0,0,0-10.064,4.148,11.8,11.8,0,0,0-3.987,5.674c-6.4,17.507-13.147,34.877-20.617,51.959-2.746,6.278-.769,11.794,5.451,14.668a33.305,33.305,0,0,0,10.071,2.641c1.6-1.564,2.534-3.6,3.765-5.424a78.228,78.228,0,0,1,11.331-13.841c1.01-.937,2.162-1.689,3.166-2.622.3-.276.984-.489.336-1.083-3.253-.474-6.411.378-9.6.745a32.2,32.2,0,0,0-6.259,1.453,7.526,7.526,0,0,0-3.87,2.457c1.661-2.212,4.214-2.676,6.636-3.241a59.624,59.624,0,0,1,12.034-1.552,6.481,6.481,0,0,1,1.959.206,11.58,11.58,0,0,0,2.734-1.327c5.2-2.659,12.634-1.68,16.349,2.742a1.819,1.819,0,0,0,1.065.623,32.765,32.765,0,0,0,6.389-.119,2.356,2.356,0,0,0,1.116-1.557c2.251-6.084,4.445-12.189,6.448-18.36.075-.229-.021.057.057-.171,1.759-5.175,3.109-6.266,8.625-6.384a88.108,88.108,0,0,1,10.8.208c1.891.191,3.957.7,5.748-.607.616-1.767.448-3.654.811-5.208.057,1.617-.854,3.462-.167,5.358.9.772,2,.61,3.047.6a27.373,27.373,0,0,0,5.108-.162c1.03-.419.856-1.219.516-1.952-4.522-9.713-9.762-18.919-18.521-25.552-.945-.716-1.8-1.868-3.288-1.483a30.985,30.985,0,0,1-3.432,4.134c-3.707,3.147-8.022,3.592-12.545,2.776-6.476-1.169-10.8-5.1-13.52-10.967a2.671,2.671,0,0,0-1.341-1.612,6.281,6.281,0,0,0-2.667-.123c-3.788.518-7.563,1.11-11.312,1.864A3.32,3.32,0,0,0,6071.326,1371.353Z" transform="translate(-6009.181 -1302.027)" fill="#f8c234"/>
        <path id="Trazado_1087163" data-name="Trazado 1087163" d="M5437.248,3028.2c1.613-.947,3.466-.668,5.2-.968,7.229-1.246,14.427-2.635,21.2-5.557,8.065-3.482,13.964-9.008,16.058-17.9a18.38,18.38,0,0,0,.444-6.969,10.661,10.661,0,0,0-5.994-8.252c-5.785-3-12-4.875-18.134-6.959a68.8,68.8,0,0,1-13.143-6.214c-4.94-2.949-9.872-5.961-15.36-7.863-1.772-.893-3.589-.288-5.273.116a96.742,96.742,0,0,0-14.741,5.189,1.522,1.522,0,0,0-.68.573c.449,3.276,1.74,6.324,2.592,9.491,1.057,3.934,2.371,7.795,3.377,11.744.494,1.934.925,2.13,2.8,1.5a96.325,96.325,0,0,0,8.866-3.975c3.093-1.394,6.341-1.236,9.565-.947,4.762.427,9.509,1.045,14.241,1.726,3.5.5,7.035.826,9.948,1.448a30.036,30.036,0,0,0-4.876-.727c-5.315-.795-10.658-1.4-15.983-2.137-5.86-.808-11.6-.865-16.869,2.53a22.784,22.784,0,0,1-5.817,2.379c-1.023.31-1.183.777-.895,1.709.688,2.234,1.336,4.487,2.11,6.688.476,1.352.4,2.256-.871,2.977a1.727,1.727,0,0,0-.574.686,9.391,9.391,0,0,0,.519,2.521q1.542,5.338,2.975,10.708a7.786,7.786,0,0,0,.686,1.845,1.673,1.673,0,0,0,.9.69c3.025-.579,5.579.036,7.282,2.854.117.194.4.241.631.292,1.438-.127,1.6-1.66,2.562-2.341.627-.445.833-1.325,1.506-1.766a15.257,15.257,0,0,0,1.386-1.035,18.711,18.711,0,0,0-4.4,4.7c-.341.453-.65.92-.319,1.471.306.506.881.4,1.312.279A19.6,19.6,0,0,1,5437.248,3028.2Z" transform="translate(-5310.161 -2802.244)" fill="#47759e"/>
        <path id="Trazado_1087164" data-name="Trazado 1087164" d="M5894.175,606.9c5.483-1.145,10.95-2.4,16.592-2.491a3.993,3.993,0,0,0,1.642-.083,2.963,2.963,0,0,1,1.241-.149c4.159.518,6.493-2.056,8.618-5.028a19.556,19.556,0,0,0,3.383-10.026c.072-.879.219-1.831-.768-2.392-3.96-4.741-4.041-10.01-3.028-12.916-1.037,2.89-.875,8.133,2.992,12.883.933.541,1.046-.419,1.479-.8.521-1.63,1.632-3.133,1.106-5a4.182,4.182,0,0,1,.442-5.043c1.151-.539,2.439.676,3.554-.277.214-1.563-1.153-1.656-2.044-2.01a2.654,2.654,0,0,0-3.15.581,7.166,7.166,0,0,0-1.744,3.96,5.855,5.855,0,0,1,.483-2.018c.87-2.287,2.225-3.236,4.371-2.6,3.365,1,5.461-.563,6.939-3.524a6,6,0,0,1,1.248-2.158,13.815,13.815,0,0,1-2.586,5.733c-1.1,1.5-1,1.788.7,2.39a15.209,15.209,0,0,0,2.613.679c4.425.727,7.1-.823,8.832-4.987.452-1.086.526-2.34,1.388-3.386.636.634.36,1.282.232,1.869a25.1,25.1,0,0,1-1.8,4.7c-.875,1.979-.38,3.09,1.654,3.729a6.048,6.048,0,0,0,6.063-1.247,10.168,10.168,0,0,0,3.677-6.828,3.553,3.553,0,0,1,.684,2.887,19.527,19.527,0,0,1-2.811,7,1.241,1.241,0,0,0,.071,1.2c.383.615,1.181.7,1.615,1.252,1.811,1.071,3.908,1.1,5.87,1.631a2.039,2.039,0,0,0,.8-.009,12.436,12.436,0,0,0,7.083-6.317c.244-.3.594-.5.847-.794q.048-.334.094-.669c-.06-.554.8-1.478-.6-1.5-.741.212-.741-.41-.893-.824a20.556,20.556,0,0,0-2.375-4.232,5.374,5.374,0,0,0-4.7-2.827c-.112-.009-.229.005-.342-.008-.294-.034-.186-.172-.056-.286a2.347,2.347,0,0,0,.967-1.384c-.408-4.171-3.2-6.031-6.842-7.072a7.76,7.76,0,0,1-2.843-.326c-.838-.568-1.789-.946-2.615-1.534-1.415-1.008-2.839-1.82-4.543-.561-.253.188-.572-.007-.842-.142-1.328-.68-2.665-.335-4.017-.088-.636.116-1.228.5-1.908.335-.92-.439-1.579-1.41-2.741-1.358a11.427,11.427,0,0,0-4.1.342,1.577,1.577,0,0,1-1.631-.479c-.461-.362-.737-.963-1.4-1.067a.964.964,0,0,0-.5.143.9.9,0,0,0-.144.742,10.7,10.7,0,0,0,.738,1.3,2.862,2.862,0,0,1,.4.777,2.581,2.581,0,0,1-.69-1.1c-.614-1.3-1.6-1.439-2.858-1.008a20.691,20.691,0,0,0-6.735,3.77c-3.5,2.96-6.845,6.073-8.86,10.322a13.066,13.066,0,0,0-1.422,5.909,22.445,22.445,0,0,1-.461,3.938c-.326,2.091-1.276,2.933-3.385,3.039-1.863.093-3.731.068-5.594.019a29.553,29.553,0,0,0-8.546,1.214,10.362,10.362,0,0,0-8,10.3,6.6,6.6,0,0,1-.363,2.117,3.042,3.042,0,0,0-.255,2.445c.976,3.912,3.7,6.245,7.14,7.953C5892.42,605.975,5893.534,605.983,5894.175,606.9Z" transform="translate(-5832.03 -537.571)" fill="#ed922c"/>
        <path id="Trazado_1087165" data-name="Trazado 1087165" d="M5957.713,1976.833a6.175,6.175,0,0,0,6.106-2.462,3.266,3.266,0,0,0,1.044-1.2,181.8,181.8,0,0,0,9.6-21.4c1.218-1.645,1.479-3.628,1.953-5.536a7.261,7.261,0,0,0,.367-1.079,2.345,2.345,0,0,0-1.509-2.706,16.978,16.978,0,0,0-5-.5c-8.227.133-16.44-.615-24.668-.366a18.1,18.1,0,0,0-3.753.383,6.4,6.4,0,0,0-4,2.846,29.284,29.284,0,0,0-2.853,6.6c-1.654,4.768-3.512,9.457-5.322,14.164a4.816,4.816,0,0,0-.411,1.559c.946,1.639,2.666,1.877,4.342.534a38.078,38.078,0,0,0,3.618-3.994c2.344-2.5,5.17-4.467,7.513-6.964a.908.908,0,0,1,1.125-.323,1.092,1.092,0,0,1,.443,1.108,7.847,7.847,0,0,1-1.291,3.509c-.548,1-1.262,1.9-1.792,2.911-.841,1.6-.454,2.265,1.376,2.107,2.564-.222,5.13-.469,7.685-.8a26.552,26.552,0,0,1,3.4-.234,13,13,0,0,1,2.486.067c.406.077.9.126,1.015.591.118.486-.346.7-.672.95-.687.528-1.7.639-2.033,1.617.123.535.564.606,1,.688.946.147,2.4-.337,2.661.762.267,1.126-1.323,1.214-2.062,1.794-.409.319-.974.433-1.236.948a.685.685,0,0,0,.071.485c.779.64,1.732.09,2.739.4-.9,1.251-2.974,1.6-2.677,3.593A.719.719,0,0,0,5957.713,1976.833Z" transform="translate(-5838.853 -1839.921)" fill="#283035"/>
        <path id="Trazado_1087166" data-name="Trazado 1087166" d="M5704.953,2003.86q-.163.368-.327.734c-.736,3.915-1.954,7.729-2.355,11.717a67.457,67.457,0,0,0-.325,13.622,51.7,51.7,0,0,0,1.433,8.468,52.833,52.833,0,0,1-1.584-17.325,63.639,63.639,0,0,1,1.236-9.581c.113-.541.436-1.215-.5-1.418a76.947,76.947,0,0,1-3.828,9.469c-2.037,4.473-4.228,8.877-6.354,13.311a104.893,104.893,0,0,0,9.9,13.677c3.1,3.7,6.751,3.678,10.755,2.369a8.454,8.454,0,0,0,6.085-7.522,139.738,139.738,0,0,0,.5-25.548,65.87,65.87,0,0,0-1.433-11.776c-.521-.066-.7.374-.975.663-2.058,2.134-4.641,2.516-7.429,2.252-.5-.047-.517-.407-.623-.739C5707.947,2005.076,5706.719,2003.993,5704.953,2003.86Z" transform="translate(-5567.389 -1898.406)" fill="#f8c234"/>
        <path id="Trazado_1087167" data-name="Trazado 1087167" d="M5866.4,3995.585c-3.462-3.707-7.991-5.431-12.761-6.418-1.592-.33-2.945,1.321-4.258,2.309a16.125,16.125,0,0,0-1.633,1.663c-.279.283-.583.832-1,.5-.511-.412,0-.838.263-1.221a10.377,10.377,0,0,1,4.612-3.6,5.2,5.2,0,0,0-2.59-1.13,16.5,16.5,0,0,0-3.509,1.112c-.816.441-.973-.073-1.225-.591-.772-.529-1.639.064-2.632-.232.937-.842,2.042-.842,3.005-1.185.542-.192,1.377.02,1.463-.918l-1.754-1.465c-1.959-.867-3.4.4-5.165,1.325.421-1.013,1.232-1.036,1.888-1.308.674-.28,1.627-.083,1.915-1.065a24.444,24.444,0,0,0-5.438-3.185,1.591,1.591,0,0,0-.524.095,6.061,6.061,0,0,0-2.756,2.967,3.3,3.3,0,0,1-3.152,2.514c-1.857.051-3.466-.329-4.441-2.1a3.246,3.246,0,0,0-.418-.586c-1.1-.761-1.176-2.5-2.712-2.846a42.791,42.791,0,0,1-5.421-.962c-2.055-.3-4.123-.433-6.19-.585-1.112.256-2.629-.112-2.7,1.747-.737,4.183-1.482,8.363-2.208,12.548-.441,2.539-.852,5.083-1.277,7.624a1.308,1.308,0,0,0,1.232.885c2.545.072,5.1.42,7.625-.225.673-.489.6-1.252.7-1.951.466-3.078.572-6.2,1.172-9.26.176-.9.151-2.225,1.331-2.261,1.274-.04,1.421,1.326,1.6,2.276a52.492,52.492,0,0,1,.943,8.557c.051,2.854.427,3.232,3.214,3.26a9.864,9.864,0,0,1,3.207.265c5.109.32,10.223.069,15.334.147a87.5,87.5,0,0,0,15.115-.77,13.606,13.606,0,0,0,8.251-4.069C5865.982,3996.921,5866.573,3996.432,5866.4,3995.585Z" transform="translate(-5720.868 -3751.509)" fill="#de684d"/>
        <path id="Trazado_1087168" data-name="Trazado 1087168" d="M6717.8,3588.163c.453-1.321,1.761-1,2.693-1.406a1.274,1.274,0,0,0,.219-1.183c-.571-2.558-1.16-5.113-1.833-7.647a1.487,1.487,0,0,0-.826-1.1c-2.78.692-2.811.708-4.139-2.027a110.658,110.658,0,0,0-7.5-12.9,2.185,2.185,0,0,0-2.791-1.115c-5.315,1.4-10.691,2.567-15.939,4.218-2.616.824-2.552.841-2.335,3.571a137.507,137.507,0,0,0,2.241,14c.123.671.1,1.472.8,1.937.258,1.273.561,2.539.758,3.821.148.966.605,1.242,1.565,1.191,7.773-.417,15.549-.788,23.323-1.173Z" transform="translate(-6629.4 -3359.257)" fill="#47759e"/>
        <path id="Trazado_1087170" data-name="Trazado 1087170" d="M6270.911,2556.883c3.75-1.366,7.515-2.691,11.245-4.109a30.22,30.22,0,0,1,9.254-1.78,6.565,6.565,0,0,0-1.125-4.781c-2.008-3.4-4.072-6.772-6.1-10.162a19.024,19.024,0,0,1-2.184-4.706c-.411-1.493.085-2.291,1.574-2.567.705-.131,1.4-.312,2.1-.471,1.158-.811,1.459-2.194,2.193-3.289a1.009,1.009,0,0,0-.7-.43,1.65,1.65,0,0,0-.714.066c-5.178,2.15-10.265,1.083-15.343-.419a30.869,30.869,0,0,0-3.479-.941c-.937-.162-1.951-.336-2.523.784a9.052,9.052,0,0,0-.269,1.07c-.8,1.084-2.283.1-3.128,1.041-.176,1.205.558,2.167.907,3.22,2.574,7.771,4.676,15.676,6.812,23.574C6269.786,2554.315,6269.767,2555.833,6270.911,2556.883Z" transform="translate(-6174.052 -2385.717)" fill="#f8c234"/>
        <path id="Trazado_1087171" data-name="Trazado 1087171" d="M5809.172,4253.16c-2.982,4.41-7.576,5.394-12.417,5.769-8.341.647-16.7.294-25.046.305-.721,0-1.44.022-2.161.033-.239-.03.07-.075-.166-.061a34.47,34.47,0,0,1-8.751-1.04,3.478,3.478,0,0,0-3.077.411c-3-.08-6.028.285-9-.415-.25,2.372-.5,4.746-.75,7.118-.118,1.085.2,1.53,1.441,1.65,7.077.691,14.162.091,21.238.32,8.445.273,16.885.617,25.333.794,3.646.076,7.277.531,10.91-.074,4.246-.707,6.382-3.159,6.011-7.412A10.405,10.405,0,0,0,5809.172,4253.16Z" transform="translate(-5663.642 -4009.084)" fill="#edeae4"/>
        <path id="Trazado_1087172" data-name="Trazado 1087172" d="M7520.324,3642.226c-.1-3.153-.1-3.141-3.273-3.181-1.3-.016-2.595-.094-3.892-.145l-10.436-.211a19.236,19.236,0,0,1-6.749,4.6c-5.318,2.333-7.761,6.8-8.217,12.373a38.147,38.147,0,0,0,1.587,14.4c.226.737.244,1.74,1.389,1.825a85.666,85.666,0,0,0,9.352-6.919c.55-1.17-.1-2.189-.468-3.21-.36-1-.954-1.917-1.269-2.621,1.107,1.46,1.4,3.635,2.566,5.4l2.375-1.021c.528-.156.587-.553.481-1-.412-1.751-.132-3.567-.483-5.326.448,1.427.271,2.933.544,4.391.285,1.523,1.254,1.469,2.383,1.444,1.279-.029,1.189-.973,1.244-1.781.139-2.081-.657-4.136-.211-6.314.446.9.144,1.876.587,2.689.964.474.985-.368.983-.84a3.681,3.681,0,0,1,2.2-3.418c2.139-1.17,2.8-3.128,2.92-5.385.013-.24-.008.061.006-.179.237-4.225,1.023-4.865,5.186-4.224A1.371,1.371,0,0,0,7520.324,3642.226Z" transform="translate(-7478.413 -3432.483)" fill="#e46f57"/>
        <path id="Trazado_1087173" data-name="Trazado 1087173" d="M5663.709,1419.839l4,2.561c1.75,1.206,5.115.822,7.294-.833,1.9-1.443,2.026-2.06,1.011-4.954-.315-1.766-.614-3.534-.952-5.3a1.589,1.589,0,0,1,.5-1.616,12.012,12.012,0,0,0,2.815-4.546,8.1,8.1,0,0,1,1.423-2.689c1.027-1.08,1.346-2.118.027-3.2-.6-.493-.363-1.058-.126-1.63a3.225,3.225,0,0,0-.3-3.4,2.259,2.259,0,0,1-.256-2.046,5.118,5.118,0,0,0-1.371-4.792c-1.72-1.911-3.315-3.934-4.964-5.908-1.153.259-.8,1.156-.7,1.841a2.262,2.262,0,0,1-1.247,2.5c-1.465.9-3.032,1.635-4.425,2.656-.669.49-1.412.922-1.467,1.89.229,1.2-.327,2.551.665,3.613.765.373,1.369-.065,1.986-.407a20.557,20.557,0,0,1,5.422-2.152c.8-.255,1.526-.319,1.984.718a2.353,2.353,0,0,1-1.894-.231c-2.671-.208-4.751,1.034-6.657,2.709.148,1.337.1,2.763,1.58,3.5,1.942-.237,3.863-.664,5.535-.684-1.593.335-3.646-.07-5.374,1.114a1.422,1.422,0,0,0-.144.324c-.748,3.128-.748,3.128,2.365,3.57.413.054.819.165,1.029.2a9.16,9.16,0,0,0-5.3.251c-1.186.5-2.209-.3-3.318-.446a13.889,13.889,0,0,0-2.2-.392,1.068,1.068,0,0,0-.545.7,10.347,10.347,0,0,0,.826,6.467c.74,1.394.4,2.932.465,4.414a16.265,16.265,0,0,0,.109,2.327,1.755,1.755,0,0,0,1.224,1.324A3.042,3.042,0,0,1,5663.709,1419.839Z" transform="translate(-5526.146 -1314.385)" fill="#f2a277"/>
        <path id="Trazado_1087174" data-name="Trazado 1087174" d="M5800.559,1135.466c1.51-1.9,3.782-2.7,5.771-3.872,1.414-.834,2.049-1.729,1.557-3.344a1.436,1.436,0,0,1,.295-1.518,2.734,2.734,0,0,1-.349-2.252c.579-3.4.218-6.819.3-10.227.056-2.22-.662-3-2.84-2.922-3.581.137-7.153-.414-10.73-.062a1.025,1.025,0,0,1-.961-.375,1.59,1.59,0,0,0-.649-.4c-.814-.15-1.563-.716-2.456-.4-.5.754-1.794.766-1.819,1.965-.3,5.816.039,11.647-.3,17.444-.3,5.214-.089,10.43-.438,15.635a5.921,5.921,0,0,0,.207,2.138,1.972,1.972,0,0,0,1.646.9c2.026.066,4.1.63,6.049-.411l.339-.384c.713-.144,1.049-.773,1.522-1.212.559-.516.79-1.114-.039-1.612-1.043-.627-.667-1.281-.014-1.865.8-.717,1.244-1.421.558-2.487-.543-.846.11-1.47.583-2.082C5799.449,1137.281,5800.395,1136.634,5800.559,1135.466Z" transform="translate(-5661.52 -1059.633)" fill="#c2cfd8"/>
        <path id="Trazado_1087176" data-name="Trazado 1087176" d="M7785.554,3665.39c-1.393-1.922-1.468-4.249-1.94-6.443a32.163,32.163,0,0,1-.493-10.379,13.6,13.6,0,0,1,9.4-12.042,8.263,8.263,0,0,0,5.019-4.338c-4.9-.441-9.811-.358-14.722-.427a2.4,2.4,0,0,0-2.707,1.885,143.083,143.083,0,0,0-5.531,16.514,32.745,32.745,0,0,0-1.346,8.661c.134,4.746,2.647,7.495,7.417,7.6C7782.334,3666.462,7784.184,3666.966,7785.554,3665.39Z" transform="translate(-7773.232 -3425.979)" fill="#eee9e3"/>
        <path id="Trazado_1087178" data-name="Trazado 1087178" d="M7224.142,3696.07l-1.044,1.147a25.737,25.737,0,0,1-4.752,6.121c-.407.378-.846.909-.257,1.531a13.132,13.132,0,0,1,4.854-.692,4.284,4.284,0,0,1,3.381,1.635,8.577,8.577,0,0,1,.935,4.5c-.027.58-.211,1.191.171,1.737,3.834,0,7.668.009,11.5-.014.624,0,1.338.271,1.84-.379-.213-3.29-1.195-6.454-1.593-9.714-.158-1.3-.472-2.58-.629-3.886-.065-.558,0-1.239-.674-1.562Z" transform="translate(-7182.229 -3486.327)" fill="#f1a378"/>
        <path id="Trazado_1087179" data-name="Trazado 1087179" d="M6311.226,321.134c-.256,1.149-.9,2.193-.819,3.5-1.36-1.259-1.36-1.267.28-6.8a4.34,4.34,0,0,0-2.072,3.643c-.385,2.767.783,5.164,1.853,7.58-.162.888.059,1.491,1.1,1.483l.012-.01c.3-.023-.07-.621.389-.467a1.113,1.113,0,0,1,.588.4c1.18,1.865,2.621,1.915,4.275.652.084-.065.232-.041.355-.042,2.09-.083,4.212.218,6.227-.628a5.388,5.388,0,0,0,2.026-1.122c2.063-2.855,2.923-5.848,1.144-9.2a7.585,7.585,0,0,0-8.229-4.4c-3.594,1.213-4.667,2.284-6.335,6.3a1.075,1.075,0,0,0,.035-1.183C6311.625,320.517,6311.436,320.855,6311.226,321.134Z" transform="translate(-6212.971 -314.241)" fill="#ed932c"/>
        <path id="Trazado_1087180" data-name="Trazado 1087180" d="M7444.238,3719.681a8.309,8.309,0,0,0-.7-6.546c-2.8-1.8-5.667-2.135-8.58-.31a6.8,6.8,0,0,0-2.884,4.205,3.583,3.583,0,0,0,1.364,3.817c-1.473-1.093-1.9-2.739-1.116-4.767.551-1.432,1.866-2.316,2.466-3.691.427-1.41,1.749-2.063,2.627-3.091,1.128-1.323,2.25-2.633,2.487-4.447-1.557-1.252-3.31-.363-4.725.025-1.3.355-.668,2.333-1.044,3.557-.2.663.025,1.446-.108,2.143a4.947,4.947,0,0,1-2.634,3.894,3.659,3.659,0,0,0-2.374,4.156c.027.2-.167.429-.257.645a1.813,1.813,0,0,0-.144,2.474c.03.333.774-.721.53.3a2.325,2.325,0,0,0,.991,2.294q.2.166.416.313l2.065-.043c.523-.25,1.044-.5,1.524.08a3.182,3.182,0,0,0,2.453.357,8.9,8.9,0,0,0,1.7-.826C7441.006,3723.66,7443.2,3722.431,7444.238,3719.681Z" transform="translate(-7399.038 -3493.962)" fill="#e77458"/>
        <path id="Trazado_1087182" data-name="Trazado 1087182" d="M5789.12,2326.948c-1.577-4.464-2.5-9.109-3.79-13.655-1.612-5.7-3.295-11.372-5.282-16.952,1.381-.558,1.593-1.309.948-2.758a8.612,8.612,0,0,1-.623-5.417,2.482,2.482,0,0,0-.162-1.912c-.96-.384-1.05.466-1.289.978a8.188,8.188,0,0,0-.417,3.719c-1.243-2.386-1.671-4.772-2.785-6.883a2.571,2.571,0,0,0-1.021-1.126,16.38,16.38,0,0,0-6.207-4.085,14.681,14.681,0,0,0-11.6,1.093c-.734.385-1.484.736-2.228,1.1a.616.616,0,0,0-.734.469c-7.955,6.133-13.625,14.146-18.668,22.674l.468.03c1.818-2.671,3.583-5.383,5.468-8,4.012-5.577,8.234-10.961,14.155-14.717,4.391-2.786,8.985-3.513,13.915-1.6,3.4,1.323,5.164,3.981,6.525,7.24,5.708,13.664,9.283,27.983,13.27,42.182,2.6,9.24,5.347,18.439,8.15,27.618.641,2.095,1.028,3.848-1.293,5.058a.3.3,0,0,0,.082.439.542.542,0,0,0,.693-.2c2.813-1.484,1.68-3.67,1.027-5.771-.5-1.6-.943-3.228-1.522-4.8-.308-.838-.129-1.134.7-1.394a45.339,45.339,0,0,0,8.235-3.607c3.676-2.009,7.619-1.892,11.6-1.5,8.183.816,16.308,2.069,24.452,3.172a.814.814,0,0,0,.985-.313,34.112,34.112,0,0,0-6.824-1.182c-6.363-.86-12.746-1.572-19.114-2.4a19.325,19.325,0,0,0-12.375,2.1,41.4,41.4,0,0,1-6.748,2.976c-.7.245-1.339.438-1.648-.65C5793.377,2341.563,5791.239,2334.258,5789.12,2326.948Z" transform="translate(-5692.261 -2155.782)" fill="#e9e7e9"/>
        <path id="Trazado_1087183" data-name="Trazado 1087183" d="M6533.5,2699.871c-.014-.141-.027-.281-.041-.423a130.112,130.112,0,0,1-15.307,10.751c-1.992,1.161-2.2,1.186-3.211-.928a91.994,91.994,0,0,0-12.223-19.3,23.669,23.669,0,0,0-3.889-4c-5.6-4.143-7.525-9.837-7.554-16.519a120.573,120.573,0,0,1,3.653-30.146c.128-.507.461-1,.132-1.565-.814.291-.681,1.1-.831,1.672a115.648,115.648,0,0,0-3.625,27.975,59.556,59.556,0,0,0,.361,6.659,16.03,16.03,0,0,0,5.6,10.758,57.553,57.553,0,0,1,7.559,7.974c1.057,1.367.529,1.573-.728,1.853q-8.176,1.826-16.208,4.2c-1.636.481-2.612,1.044-1.847,2.94a5.165,5.165,0,0,1,.1,1.61c.718,4.021,1.423,8.044,2.163,12.061.192,1.043.486,2.068.733,3.1l.441-.068c-.927-5.382-1.8-10.775-2.812-16.14-.31-1.64-.039-2.456,1.715-2.962,5.482-1.582,11.038-2.874,16.543-4.36a1.715,1.715,0,0,1,2.2.867,115.923,115.923,0,0,1,8.007,13.891c1.125,2.293,1.728,2.409,3.886,1.065,1.246-.034,2.075-.956,3.1-1.454a62.459,62.459,0,0,0,10.641-7.583C6532.7,2701.278,6533.492,2700.861,6533.5,2699.871Z" transform="translate(-6429.801 -2493.226)" fill="#ddeaf0"/>
        <path id="Trazado_1087184" data-name="Trazado 1087184" d="M6614.52,533.461c-.66-.278-.786-.951-1.1-1.483-3.253-.382-6.018.865-8.544,2.7-4.8,3.5-9.118,7.443-11.469,13.105a24.057,24.057,0,0,0-1.278,5.6c-.121.769-.18,1.55-.343,2.309-.479,2.211-1.541,3.132-3.791,2.95a35.64,35.64,0,0,0-9.853.367c-6.829,1.346-10.558,5.753-10.6,12.712-.011,1.847-.155,3.728.744,5.458-.228-.9.618-1.481.7-2.291a24.985,24.985,0,0,1,.189-5.868,9.941,9.941,0,0,1,6.634-7.866,17.569,17.569,0,0,1,6.691-1.227c1.92.049,3.844.041,5.765,0,2.663-.058,3.938-1.04,4.754-3.571a7.809,7.809,0,0,0,.359-1.944c.414-6.638,3.924-11.585,8.692-15.819a29.4,29.4,0,0,1,3.97-3.1c2.655-1.645,5.344-2.963,8.5-1.332Q6614.529,533.809,6614.52,533.461Z" transform="translate(-6515.92 -517.169)" fill="#d49347"/>
        <path id="Trazado_1087186" data-name="Trazado 1087186" d="M5902.687,585.082a1.673,1.673,0,0,1-.84.859c-.377.2-.778.525-.562.958.25.5.72-.038,1.091.036a4.073,4.073,0,0,1,4.461,1.449,10.15,10.15,0,0,1,2.913,5.419,1.515,1.515,0,0,0,.471,1.119c1.349-.344.435.8.751,1.14.846-3.532-1.878-8.767-5.54-10.366-.942-.411-1.157-.725-1.045-1.774a6.382,6.382,0,0,0-8.665-6.6c-.55.2-.918.211-1.252-.226-2.476-3.244-5.958-2.84-9.4-2.611-.065.507.347.506.654.618a7.435,7.435,0,0,1,6.621,1.784c.293.251.773.426.564.979.978.9,2.161.279,3.238.438,3.567-.446,5.789.878,6.789,4.041A2.817,2.817,0,0,1,5902.687,585.082Z" transform="translate(-5770.451 -556.975)" fill="#d58a40"/>
        <path id="Trazado_1087187" data-name="Trazado 1087187" d="M6269.508,299.629l.85-.306c.815-.205,1.023-.982,1.374-1.569a7.169,7.169,0,0,1,4.153-3.244c4.754-1.892,11.4,2.51,10.859,8.143-.176,1.825-1.338,2.993-2.176,4.4.09.437.419.56.8.607,2.044-1.136,3.261-4.172,2.749-6.863-.791-4.165-4.619-7.73-8.622-8.031C6274.922,292.422,6271.094,295.052,6269.508,299.629Z" transform="translate(-6171.253 -292.736)" fill="#d38a3d"/>
        <path id="Trazado_1087188" data-name="Trazado 1087188" d="M6085.537,3859.726l.125,0,.115-.047a2.013,2.013,0,0,0,.787-.717,2.157,2.157,0,0,1,1.664-.929q2.206-.4,4.421-.746a3.973,3.973,0,0,1,2.119.216c.633.252,1.209.589,1.263,1.36a1.831,1.831,0,0,1-1.048,1.734c-1.268.8-2.824.441-4.123,1.086-.34.718.532.6.679.991a1.184,1.184,0,0,0,1.1-.1,7.487,7.487,0,0,0,2.92-.75c2.318-1.205,2.587-3.343.646-5.155a7.651,7.651,0,0,0-5.424-.45c-1.157.227-2.308.484-3.553.746.758-2.271,3.005-4.73,6.306-7.014-1.213-.137-2.539.566-3.88,2.117-1.057,1.222-2.078,2.476-3.115,3.715-.694,1.094-2.43,1.633-1.826,3.422C6084.88,3859.544,6085.054,3859.883,6085.537,3859.726Z" transform="translate(-5969.111 -3630.71)" fill="#202937"/>
        <path id="Trazado_1087189" data-name="Trazado 1087189" d="M6307.989,527.668c-.156-.384-.508-.391-.84-.441a.707.707,0,0,0-.8.316c-2.714,1.628-5.72,1.586-8.729,1.525-.553.767-.307,1.144.586,1.223a4.848,4.848,0,0,1,1.884.157c1.153-.089,1.672.939,2.5,1.422a13.337,13.337,0,0,1,6.078-.8c.313-.1.557-.251.449-.646-.232.026-.473.086-.622-.176C6307.447,529.56,6308.174,528.525,6307.989,527.668Z" transform="translate(-6193.872 -512.744)" fill="#4e6776"/>
        <path id="Trazado_1087190" data-name="Trazado 1087190" d="M7662.057,3886.421a4.759,4.759,0,0,1-.261-2.573c-.119-1.131-.231-2.263-.362-3.393-.049-.419-.112-.91-.688-.858-.6.054-.505.584-.489.98.1,2.338.19,4.676.337,7.012.051.829.007,1.4-1.066,1.359-.833-.031-1.493.041-1.535-1.155-.062-1.732-.323-3.458-.525-5.183-.045-.385-.011-.963-.617-.9-.56.06-.518.594-.484,1,.183,2.288.387,4.575.582,6.863a42.733,42.733,0,0,1,6.638-.349,1.222,1.222,0,0,1-.074-.275C7662.451,3888.441,7662.432,3887.329,7662.057,3886.421Z" transform="translate(-7632.073 -3658.539)" fill="#f7e7de"/>
        <path id="Trazado_1087191" data-name="Trazado 1087191" d="M6194.489,2524c-1.52.528-1.416,2.138-2.133,3.2a15.757,15.757,0,0,0,10.115-5.022c-1.148-.454-2.208.082-3.267.1A12.587,12.587,0,0,0,6194.489,2524Z" transform="translate(-6080.733 -2384.612)" fill="#ee9a31"/>
        <path id="Trazado_1087193" data-name="Trazado 1087193" d="M5894.792,949.345l.486-.037a5.162,5.162,0,0,1,3.022-4.472,9.966,9.966,0,0,0,5.32-7.034c-.415,0-.838-.025-1.052.448-1.32,3.2-3.389,5.583-6.906,6.41l-.6-.009a6.133,6.133,0,0,1-4-.36c-.6-.2-1.157-.657-1.861-.4-.007,1.355-.58,2.879,1.109,3.73.4-.385.416-1.461,1.368-.895.877.521,2.477-.141,2.622,1.574C5894.334,948.712,5894.3,949.148,5894.792,949.345Z" transform="translate(-5763.194 -898.047)" fill="#d58a40"/>
        <path id="Trazado_1087194" data-name="Trazado 1087194" d="M7496.294,4019.288c-.868-1.273-1.156-.342-1.495.393-.009.477-.005.954-.03,1.43-.174,3.539,1.912,5.557,5.5,5.323,1.7-.111,2.616-1.4,2.38-3.308a7.156,7.156,0,0,0-2.176-3.832c-.605-.5-.961-.081-1.311.356.052.686.659.963,1.043,1.4a3.22,3.22,0,0,1,.843,3.309c-.3.882-1.167.733-1.859.624-1.41-.222-2.7-.666-3.067-2.309A10.659,10.659,0,0,1,7496.294,4019.288Z" transform="translate(-7461.218 -3789.034)" fill="#2a2928"/>
        <path id="Trazado_1087195" data-name="Trazado 1087195" d="M6098.949,4095.51c-1.427.416-2.862.805-4.274,1.262-.538.175-1.327.362-1.062,1.165s1.017.45,1.558.33a4.384,4.384,0,0,1,2.117-.235A5.966,5.966,0,0,0,6101.5,4097,3.26,3.26,0,0,0,6098.949,4095.51Z" transform="translate(-5973.679 -3861.15)" fill="#f5d2c4"/>
        <path id="Trazado_1087196" data-name="Trazado 1087196" d="M5727.03,1951.51c.106,1.529.907,3.111-.861,4.373a8.584,8.584,0,0,1-7.444,1.415c-.448.456-.474.8.222,1.034,2.927.982,7.408-.708,8.99-3.4A3.094,3.094,0,0,0,5727.03,1951.51Z" transform="translate(-5577.165 -1849.282)" fill="#4a201e"/>
        <path id="Trazado_1087197" data-name="Trazado 1087197" d="M6169.215,4052.545l-1.1-.063q-.314-.25-.452.127a24.893,24.893,0,0,0-3.555,1.135,1.065,1.065,0,0,0-.376,1.774c.179.25.418.642.776.072,1.094-1.744,2.954-1.755,4.7-2.015C6169.063,4053.231,6168.934,4052.886,6169.215,4052.545Z" transform="translate(-6045.692 -3820.68)" fill="#f3d4ca"/>
        <path id="Trazado_1087198" data-name="Trazado 1087198" d="M7806.043,3957.482c-.757-3.329-1.966-5.8-3.444-6.613.97,2.315,2.338,4.493,2.618,7.046Z" transform="translate(-7783.544 -3725.423)" fill="#492423"/>
        <path id="Trazado_1087199" data-name="Trazado 1087199" d="M6092.914,4119.69a13.844,13.844,0,0,0-4.219,1.032c-.214.393-.927.671-.573,1.177.375.534.913.012,1.261-.2,1.219-.74,2.87-.472,3.871-1.684C6093.14,4119.907,6093.026,4119.8,6092.914,4119.69Z" transform="translate(-5965.085 -3883.84)" fill="#5f1715"/>
        <path id="Trazado_1087200" data-name="Trazado 1087200" d="M6239.348,2515.819c1.626-.428,3.371-.533,4.718-1.723.13-.251.261-.5.389-.755l-.861-.063c-1.614.354-2.864,1.51-4.417,2-.047.068-.092.138-.137.208Z" transform="translate(-6125.594 -2376.428)" fill="#83321f"/>
        <path id="Trazado_1087202" data-name="Trazado 1087202" d="M6422.092,1374.347c-1.479-.789-1.484-1.2-.028-2.177-1.047-.738-1.79-1.887-3.092-2.281a.9.9,0,0,0-.365,1.248c.58,1.364-.151,2.224-.985,3.171-2.9,3.287-6.61,3.686-10.534,2.863-4.462-.936-7.7-3.692-10.074-7.521-.525-.846-1.028-1.906-2.286-.843a2.237,2.237,0,0,0,.348,1.881,17.358,17.358,0,0,0,17.428,8.973c3.159-.389,5.48-2.37,7.135-5.087-3.211,5.3-8.661,6.451-15.168,4.131-4.733-1.688-8.281-4.722-10.02-9.591a1.279,1.279,0,0,0-.561-.681,1.446,1.446,0,0,0-1.083.064c-.5.093-1.079-.123-1.452.408,1.991,5.027,5.1,9.039,10.132,11.377,7.5,3.487,15.486,1.754,19.827-4.353A2.682,2.682,0,0,0,6422.092,1374.347Z" transform="translate(-6312.619 -1302.07)" fill="#f5e7cb"/>
        <path id="Trazado_1087203" data-name="Trazado 1087203" d="M5998.229,1922.573a14.689,14.689,0,0,0-4.688-1.408c-2.895.025-5.8.458-8.672-.26a3.34,3.34,0,0,0-.77.014c-1.933.668-3.93.325-5.881.254a129.856,129.856,0,0,0-13.127.045,5.912,5.912,0,0,0-5.641,4.234c-1.654,4.569-3.205,9.174-4.84,13.75-1.006,2.815-2.088,5.6-3.135,8.4a1.177,1.177,0,0,0,.364.781.821.821,0,0,0,.843.014,1.008,1.008,0,0,0,.335-.283c2.784-6.615,5.068-13.42,7.625-20.121,1.451-3.805,3.511-5.225,7.631-5.235,4.441-.01,8.9-.238,13.322.069,4.916.341,9.822.154,14.73.3.888.026,1.771.207,2.657.316Z" transform="translate(-5862.401 -1820.549)" fill="#3e5957"/>
        <path id="Trazado_1087204" data-name="Trazado 1087204" d="M6993.16,1720.04c-.647.03-.7.61-.906.992a129.7,129.7,0,0,0-11.343,30.423c-.112.449-.646,1.21.14,1.358.707.134.556-.763.675-1.23a136.708,136.708,0,0,1,11.209-30.115C6993.152,1721.058,6993.7,1720.619,6993.16,1720.04Z" transform="translate(-6920.231 -1632.077)" fill="#421615"/>
        <path id="Trazado_1087205" data-name="Trazado 1087205" d="M7182.841,2243.3c-2.8-2.39-18.4-3.749-21.86-.684C7168.333,2240.823,7175.583,2241.652,7182.841,2243.3Z" transform="translate(-7120.797 -2120.787)" fill="#491c18"/>
        <path id="Trazado_1087206" data-name="Trazado 1087206" d="M6691.652,2355.183c-.024-.347-.1-.66-.487-.782l-6.637.1c.248.323.212.837.682,1.011a6.48,6.48,0,0,0,2.667.094c1.574-.229,2.45.15,2.239,1.913a12.9,12.9,0,0,0,.906,9.445c-.247.371-.7.06-1.052.159-.67.187-.6.452-.1.777,1.148-.538,2.694.654,3.621-.837-3.187-2.376-2.47-5.725-2.228-8.954C6691.342,2357.129,6692.082,2356.232,6691.652,2355.183Z" transform="translate(-6602.089 -2227.343)" fill="#3e332b"/>
        <path id="Trazado_1087207" data-name="Trazado 1087207" d="M7176.227,2319.758c.243-.157.489-.313.732-.469-2.119-.818-4.247-.172-6.357.022a42.391,42.391,0,0,0-11.057,2.174c-2.424.905-4.075,2.516-4.385,4.192.112,0,.286.046.325-.007,2.871-3.976,7.332-4.444,11.623-5.18A46.544,46.544,0,0,1,7176.227,2319.758Z" transform="translate(-7114.558 -2194.016)" fill="#491716"/>
        <path id="Trazado_1087208" data-name="Trazado 1087208" d="M6171.647,1814.068c.263.383.52.342.77-.015a21.568,21.568,0,0,0,.379-7.033A21.884,21.884,0,0,0,6171.647,1814.068Z" transform="translate(-6049.949 -1713.697)" fill="#491a16"/>
        <path id="Trazado_1087209" data-name="Trazado 1087209" d="M6405.938,3684.929a13.579,13.579,0,0,0-2.846,1.685c1.236,3.2,1.671,6.6,2.565,9.884,2.715.369,5.426.76,8.146,1.1,1.243.154,2.417,1.22,3.749.316.384-.513.148-1.04-.021-1.528a2.46,2.46,0,0,1,1.352-3.264,32.127,32.127,0,0,1,3.294-1.756c.465-.19,1.08-.259,1.141-.956-1.077-4.289-2.182-8.569-3.6-12.76-1.282-.266-2.011.722-2.764,1.391-2.883,2.565-6.4,3.979-9.794,5.63A2.652,2.652,0,0,1,6405.938,3684.929Z" transform="translate(-6314.566 -3468.997)" fill="#f1a47a"/>
        <path id="Trazado_1087210" data-name="Trazado 1087210" d="M6275.014,3889.482c.032-.325-.374-.891-.1-.906,1.446-.079,1.224-1.336,1.653-2.125a6.449,6.449,0,0,1-1.617-1.89,4.051,4.051,0,0,0-5-1.639,7.273,7.273,0,0,1-1.407.219,12.963,12.963,0,0,0-4.816,2.333,2.5,2.5,0,0,0-1.171,2.968c.468,1.31.346,3.11,2.311,3.456,2.408-.733,4.876-.261,7.313-.358C6273.622,3891.481,6274.8,3891.178,6275.014,3889.482Z" transform="translate(-6159.146 -3661.377)" fill="#e67356"/>
        <path id="Trazado_1087211" data-name="Trazado 1087211" d="M6461.588,3652.321c.762.762,1.439.147,2.107-.158a38.475,38.475,0,0,0,10.446-6.386,6.928,6.928,0,0,1,1.22-.737,3.171,3.171,0,0,0-.715-2.186c-.244.06-.488.121-.733.182a61.107,61.107,0,0,1-10.7,8.172C6462.645,3651.529,6462.129,3651.948,6461.588,3652.321Z" transform="translate(-6370.217 -3436.389)" fill="#e6755c"/>
        <path id="Trazado_1087212" data-name="Trazado 1087212" d="M6395.749,3894.3a7.531,7.531,0,0,1-1.682-3.806,2.241,2.241,0,0,1,1.374-2.3c1.427-.835,2.862-1.655,4.292-2.481l-.645-.353c-1.245.58-2.516,1.112-3.729,1.749-3.049,1.6-3.253,2.223-2.037,5.755.8.9,1.024,2.222,2.149,2.874A1.08,1.08,0,0,0,6395.749,3894.3Z" transform="translate(-6290.34 -3663.954)" fill="#b14f42"/>
        <path id="Trazado_1087213" data-name="Trazado 1087213" d="M6152.436,932.584c.906-.921,1.189-.058,1.539.549a16.9,16.9,0,0,0,7.957,7.276c4.229,1.861,10.262,1.923,13.748-2.227,1.007-1.2,1.86-2.2.789-3.75a.565.565,0,0,1,.209-.785c.377-.975-.491-1.366-.918-1.965-2.249-.115-3.423-1.789-4.679-3.3-.76-.911-1.322-1.975-2.181-3.1a23.682,23.682,0,0,0,6.952,5.719c6.371,1.3,11.191-2.748,13.545-6.534a10.663,10.663,0,0,1,1.557-1.97,9.323,9.323,0,0,0,.525-1.294,4.433,4.433,0,0,0,.938-2.837,30.238,30.238,0,0,1,.88-4.942c.1-.6.294-1.179-.3-1.634a10.684,10.684,0,0,0-4.577-1.857,12.424,12.424,0,0,1,5.009,1.966c1.522.026.992-1.079,1.034-1.87-.372-.922.2-1.981-.413-2.867-1.005-.255-2.037-.384-3.056-.584a6.224,6.224,0,0,1-6.549-1.119c-1.107-.985-2.572-.937-3.951-.824a15.9,15.9,0,0,1-6.556-.719,7.8,7.8,0,0,0-4.414-.326c-1.23.315-2.378-.5-3.6-.253-.033.007-.072.09-.071.137a.474.474,0,0,0,.067.16c.808.984,1.745,1.929,1.254,3.3.615-.961.007-1.83-.723-2.471-.673-.592-1.127.162-1.336.674a4.241,4.241,0,0,0,.289,3.811c.354.492.692,1,1.178.867-2.295,1.635-1.539,4.594-2.616,6.669.192-.862.872-1.753.227-2.768-.552.187-.384,1.165-1.184,1.078l.009-.009a3.6,3.6,0,0,1-.024,3.6c-.6.939.263,1.766-.039,2.6-1.4,3.885-3.305,7.454-6.707,9.99a4.908,4.908,0,0,1-3.063.838c-.929,0-1.919-.316-2.8.273l1.081.126C6151.759,932.416,6152.029,932.682,6152.436,932.584Z" transform="translate(-6070.195 -865.668)" fill="#f1a379"/>
        <path id="Trazado_1087215" data-name="Trazado 1087215" d="M6080.516,1009.132c.912,1-.126,1.934-.2,2.872-.121,1.443-.7,2.864-.55,4.357.087.884-.607,1.206-1.057,1.716.454,1.17.4,2.467.89,3.621.147.342.013,1.016.764.819.158-.525-.127-1.426.75-1.389.91.039.548.915.561,1.434.068,2.858.057,5.66-2.664,7.608-1.127.806-2.49.734-3.794,1.35a6.074,6.074,0,0,0,7.087-4.795,10.038,10.038,0,0,0,.222-1.788c.024-2.656-.24-5.369,1.745-7.569a6.3,6.3,0,0,0,1.28-2.465c.074-.889,1.682-.319,1.437-1.511-.438-.611-.9-1.192-1.768-1.119-1.3-.954-.342-2.578-1.1-3.694a.865.865,0,0,0-.533-.993c.143-.841-.392-.781-.938-.705-.388-.229-.5.1-.665.327-.388.439.586,1.473-.67,1.533C6080.966,1008.707,6080.658,1008.749,6080.516,1009.132Z" transform="translate(-5958.052 -962.797)" fill="#ef932d"/>
        <path id="Trazado_1087216" data-name="Trazado 1087216" d="M6179.813,778.438c3.3.249,6.441,1.558,9.792,1.479,2.193-.051,4.275-.021,6.124,1.617,1.722,1.526,3.8.915,5.751.185.812-.273,1.722-.414,1.959-1.456-.07-.275-.181-.492-.529-.367a6.165,6.165,0,0,1-6.091,1.073c-1.475-.516-1.854-1.389-1.165-2.769a21.65,21.65,0,0,0,2.039-5.171,2.122,2.122,0,0,0,.131-.521c-.056-.78.473-1.934-.628-2.16-.944-.194-1.063.932-1.323,1.638-.288.784-.527,1.587-.818,2.37-1.819,4.9-4.7,5.2-8.659,4.643a28.326,28.326,0,0,1-3.608-1.008,15.909,15.909,0,0,0,3.614-6.479c.163-.6.5-1.277-.264-1.541-.806-.278-.942.585-1.145,1.089a11.805,11.805,0,0,1-2.187,3.891,4.143,4.143,0,0,1-4.257,1.15c-1.127-.222-2.461-.808-3.518.068a6.927,6.927,0,0,0-2.423,5.586.8.8,0,0,0,.807.905c-.345-2.443.177-4.756,2.441-5.838C6177.249,776.157,6178.862,776.968,6179.813,778.438Z" transform="translate(-6080.484 -740.51)" fill="#d0672d"/>
        <path id="Trazado_1087217" data-name="Trazado 1087217" d="M6099.158,824.775l.372.368c.259.147,1.139-.385.633.612a.89.89,0,0,0,.1,1.131c.684.9.2,1.953.4,2.915l.665-.327c-.156-1.163.544-2.061,1-3.006a17.419,17.419,0,0,0,1.73-4.669,6.9,6.9,0,0,0,.125-1.947c-.1-.792-.066-1.972-.971-2.1-1.1-.15-.951,1.167-.989,1.765C6102.079,821.836,6100.524,823.23,6099.158,824.775Z" transform="translate(-5976.734 -785.389)" fill="#d46b28"/>
        <path id="Trazado_1087218" data-name="Trazado 1087218" d="M6012.713,634.661c.648.048.785-.412.894-.9.688-3.114-3.061-7.063-6.218-6.551a1.6,1.6,0,0,0-1.212.668C6009.5,629.036,6012.186,630.809,6012.713,634.661Z" transform="translate(-5880.478 -606.555)" fill="#fbf4e7"/>
        <path id="Trazado_1087219" data-name="Trazado 1087219" d="M5907.61,773.94c.026-3.8-2.052-6.386-4.982-8.4a1.973,1.973,0,0,0-2.862.415c4.091.836,5.553,4.064,6.8,7.482C5906.831,774.144,5906.832,774.143,5907.61,773.94Z" transform="translate(-5767.84 -735.994)" fill="#f9f1e1"/>
        <path id="Trazado_1087220" data-name="Trazado 1087220" d="M6665.284,827.176a10.323,10.323,0,0,0-.636-1.461c-2.688-4.282-2.86-8.776-1.19-13.439.256-.716.5-1.438.818-2.359a1.89,1.89,0,0,0-1.331,1.444c-1.98,5.094-1.948,10.052,1.044,14.8.312.5.513,1.132,1.3,1.007Z" transform="translate(-6572.473 -778.045)" fill="#502914"/>
        <path id="Trazado_1087221" data-name="Trazado 1087221" d="M6170.837,578.11l-.32.423c-.314.2-.261.45-.089.712.352.627.723.993,1.287.173.771-1.121,1.735-.808,2.668-.281,1.24.7,2.45,1.45,3.673,2.178,1.036-.005.575-.485.225-.815-1.542-1.447-3.186-2.684-5.488-2.465C6172.146,578.1,6171.49,578.088,6170.837,578.11Z" transform="translate(-6055.595 -560.43)" fill="#f5e6d4"/>
        <path id="Trazado_1087222" data-name="Trazado 1087222" d="M6563.032,636.748c-.609-5.212,1.805-9.224,5.555-12.821C6564.792,624.989,6561.119,633.867,6563.032,636.748Z" transform="translate(-6469.66 -603.517)" fill="#bc6018"/>
        <path id="Trazado_1087223" data-name="Trazado 1087223" d="M6028.006,1019.51q.268.5.534.993a7.867,7.867,0,0,0,4.451,1.547c.564.009,1.25.163,1.349-.727C6032.343,1020.32,6029.992,1020.557,6028.006,1019.51Z" transform="translate(-5902.472 -974.72)" fill="#f8e6c8"/>
        <path id="Trazado_1087224" data-name="Trazado 1087224" d="M6579.966,913.951a5.871,5.871,0,0,1-.228-3.184,1.047,1.047,0,0,1,.759-.92c.439-.091.55.373.708.675.212.409.517.822.132,1.3-.142.179-.959-.3-.477.427a1.018,1.018,0,0,0,1.271.4.632.632,0,0,0,.4-.871c-.535-1.088-.8-2.387-2.125-2.9-1.726,1.717-1.913,3.133-.712,5.387A.426.426,0,0,0,6579.966,913.951Z" transform="translate(-6484.688 -870.904)" fill="#9a5736"/>
        <path id="Trazado_1087225" data-name="Trazado 1087225" d="M5906.168,951.476c.886.659,1.593-.05,2.234-.415a8.872,8.872,0,0,0,4.672-6A14.816,14.816,0,0,1,5906.168,951.476Z" transform="translate(-5773.699 -904.863)" fill="#f7daad"/>
        <path id="Trazado_1087226" data-name="Trazado 1087226" d="M6451.916,543.338a2.116,2.116,0,0,0-1.65-.394c-.712,0-.932-.339-.822-.987a4.746,4.746,0,0,0-1.026.651c-.76.813-1.338.61-1.986-.154a6.147,6.147,0,0,0-1.46-1.256c-1.246-.764-.618.311-.663.719a1.112,1.112,0,0,1,.911.47c.825,1.256,1.726,1.844,3.364,1.136C6449.542,543.109,6450.794,543.377,6451.916,543.338Z" transform="translate(-6345.698 -525.634)" fill="#d49347"/>
        <path id="Trazado_1087227" data-name="Trazado 1087227" d="M6587.311,991.219c-.091.1-.179.208-.269.313.375,1.719-.641,3.138-1.015,4.694q-.235,1.668-.468,3.335c1.161-1.442,1.265-3.2,1.656-4.847.3-1.283.682-2.269,2.323-2.2C6588.692,992.139,6587.774,992.052,6587.311,991.219Z" transform="translate(-6492.032 -948.172)" fill="#533024"/>
        <path id="Trazado_1087228" data-name="Trazado 1087228" d="M6309.085,587.039c.029-.237.059-.474.088-.712-2.118.041-4.3-.295-6.206,1.022,1.064.5,1.851-.5,2.861-.529C6306.937,586.788,6308.025,586.5,6309.085,587.039Z" transform="translate(-6194.252 -568.225)" fill="#d58a40"/>
        <path id="Trazado_1087229" data-name="Trazado 1087229" d="M6541.7,586.258c-.133.275-.379.3-.639.286a3.932,3.932,0,0,0,.177.5c.2.392.155,1.01.822.984.205-.008.545-.116.583-.247.146-.506-.2-.886-.5-1.245A1.626,1.626,0,0,0,6541.7,586.258Z" transform="translate(-6442.424 -568.168)" fill="#d49347"/>
        <path id="Trazado_1087230" data-name="Trazado 1087230" d="M6265.4,2179.287a1.4,1.4,0,0,0-.309.076c-1.941,3.206-1.89,6.556-.661,9.961a1.455,1.455,0,0,0,1.653,1.093c.652-1.3,1.722-.764,2.64-.522,2.711.716,5.419,1.44,8.143,2.115,3.982.988,7.68.123,11.363-1.236l-.033-.011c1.158-1.187,1.989-2.5,1.6-4.263-1.233-.448-2.071.647-3.153.82a12.042,12.042,0,0,0-1.8.573c-.254-.015.034-.333-.016-.1-.019.088.036.121.151.072,1.9-.8,4.042-1.077,5.625-2.576a15.988,15.988,0,0,0,.915-4.3.8.8,0,0,0-.828-.193c-2.192.621-4.244,1.6-6.305,2.309,2.214-1.027,4.767-1.522,6.949-2.866.407-1.262,1.269-2.47.465-3.875-4.261-.106-8.436.949-12.8,1.015.223-1.45,1.244-2.363,1.856-3.482.8-1.464,1.842-2.825,1.951-4.579.049-.809-.054-1.64-.882-2-.765-.331-1.193.381-1.631.836-3.368,3.487-7.436,6.266-10.343,10.215C6268.7,2180.08,6267.164,2180.234,6265.4,2179.287Z" transform="translate(-6174.778 -2051.717)" fill="#f1a379"/>
        <path id="Trazado_1087231" data-name="Trazado 1087231" d="M5941.414,2021.24c.332,2.1-.43,4.09-.665,6.13-.893,7.81-.8,15.548,1.31,23.181.123.441.158.949.7,1.147.55-.3.272-.727.171-1.094-2.86-10.321-2.268-20.635.03-30.952a11.319,11.319,0,0,0,.542-3.895C5942.739,2017.56,5942.8,2019.678,5941.414,2021.24Z" transform="translate(-5806.267 -1909.57)" fill="#46201e"/>
        <path id="Trazado_1087232" data-name="Trazado 1087232" d="M6194.406,2448.116c.143,1.635-1.088,2.82-1.414,4.3,1.827-.11,3.205-1.156,4.585-2.2a7.725,7.725,0,0,1,3.1-2.865c.311-.136.7-.375.582-.8-.139-.5-.655-.486-1.046-.479-.834.017-1.666.117-2.5.183A3.922,3.922,0,0,0,6194.406,2448.116Z" transform="translate(-6079.579 -2313.37)" fill="#ef7152"/>
        <path id="Trazado_1087233" data-name="Trazado 1087233" d="M6185.936,2379.11a11.39,11.39,0,0,0-1.1,4.291,4.443,4.443,0,0,0,2.648-1c1.033-.574,2.076-1.132,3.093-1.732.4-.235.941-.495.916-1-.03-.581-.609-.807-1.092-1.046a3.884,3.884,0,0,0-2.263-.192,1.931,1.931,0,0,1-1.225.057C6186.439,2378.423,6185.92,2378.366,6185.936,2379.11Z" transform="translate(-6069.298 -2249.817)" fill="#ee6f4e"/>
        <path id="Trazado_1087234" data-name="Trazado 1087234" d="M6260.219,2199.69a2.727,2.727,0,0,0-2.634,2.694,1.827,1.827,0,0,0,2.056,1.941,2.5,2.5,0,0,0,2.654-2.525C6262.31,2200.351,6261.377,2199.864,6260.219,2199.69Z" transform="translate(-6144.576 -2082.167)" fill="#eb745d"/>
        <path id="Trazado_1087235" data-name="Trazado 1087235" d="M6202.154,2314.123l-.772,3.859c.626.492,1.064,0,1.542-.292.894-.491,1.8-.956,2.672-1.483.4-.245.819-.6.7-1.157s-.65-.647-1.109-.782A7.658,7.658,0,0,0,6202.154,2314.123Z" transform="translate(-6085.134 -2189.471)" fill="#ea7052"/>
        <path id="Trazado_1087236" data-name="Trazado 1087236" d="M6248.124,2373.24l-1.541.292-7.292,2.863c2.737-.113,5.018-1.761,7.681-2.081.587-.709,1.605-.024,2.208-.684C6248.835,2373.481,6248.358,2373.689,6248.124,2373.24Z" transform="translate(-6130.334 -2245.021)" fill="#a24c37"/>
        <path id="Trazado_1087237" data-name="Trazado 1087237" d="M6258.454,2444.05l-2.647,1c-1.8,1.268-4.032,1.615-5.9,2.762,1.862-.123,3.473-1.022,5.182-1.6.907-.964,2.348-.976,3.3-1.854C6258.415,2444.256,6258.434,2444.153,6258.454,2444.05Z" transform="translate(-6140.263 -2311.467)" fill="#aa5036"/>
        <path id="Trazado_1087238" data-name="Trazado 1087238" d="M6449.258,4126.4c4.013-.036,7.955,1.157,11.994.69a11.677,11.677,0,0,0-4.091-.269c-1.209,0-1.7-.365-1.712-1.629a58.72,58.72,0,0,0-.786-8.756,26.388,26.388,0,0,0-.626-2.611,1.749,1.749,0,0,0-1.913-1.521c-1.061.055-1.169.914-1.362,1.637a53.737,53.737,0,0,0-1.1,7.45C6449.458,4123.052,6449.388,4124.73,6449.258,4126.4Z" transform="translate(-6355.347 -3876.906)" fill="#f4e9ce"/>
        <path id="Trazado_1087239" data-name="Trazado 1087239" d="M6278.87,3996.246q-.138.72-.275,1.441a4.856,4.856,0,0,0,5.233,2.947c2.145-.137,3.179-1.546,3.7-3.377.367-1.29,1.766-1.375,2.355-2.343a1.22,1.22,0,0,1-.555-.91,2.51,2.51,0,0,1-2.681,1.583c-1.833-.1-3.673-.048-5.51-.081A2.543,2.543,0,0,0,6278.87,3996.246Z" transform="translate(-6173.458 -3765.9)" fill="#411e1f"/>
        <path id="Trazado_1087240" data-name="Trazado 1087240" d="M6186.516,3997.473l.452-.127q-.326-.442-.647-.883c-1.521-1.02-2.771-2.489-4.7-2.837l-.417.891C6183.081,3995.314,6184.563,3996.816,6186.516,3997.473Z" transform="translate(-6064.542 -3765.545)" fill="#411e1f"/>
        <path id="Trazado_1087241" data-name="Trazado 1087241" d="M6687.446,2374.244c-2.265-1.564-2.132-3.964-2.01-6.248a11.124,11.124,0,0,1,1.019-4.807c-.3-.148-.511.074-.746.193a14.172,14.172,0,0,0-.656,9.493c.338,1.222.883,2.418,2.5,2.391Q6687.5,2374.756,6687.446,2374.244Z" transform="translate(-6596.146 -2235.543)" fill="#ede1ca"/>
        <path id="Trazado_1087242" data-name="Trazado 1087242" d="M5827.875,1523.22c-.822.933-1.692,1.829-2.451,2.811-.568.732-1.2,1.475-.1,2.43.782.679-.154,1.119-.576,1.53-1.549,1.514-1.47,2.122.515,2.968-.471.834-1.491,1.224-1.765,2.178a2.026,2.026,0,0,0,1.9.706c2.285.435,4.506-.4,6.773-.341a1.28,1.28,0,0,0,1.132-.369c-.75-.692-1.733-.131-2.667-.5a6.538,6.538,0,0,0,.506-3.05c-1.659-.223-2.953,1.04-4.368,1.081-.407.078-.258-.355-.259-.114,0,.1.045.151.129.123,1.429-.481,3.064-.5,4.11-1.843-1.155-.736-.639-2.235-1.433-3.135-.008-.484-1.2.21-.739-.744C5827.655,1525.84,5828.812,1524.331,5827.875,1523.22Z" transform="translate(-5688.837 -1447.387)" fill="#e3684e"/>
        <path id="Trazado_1087243" data-name="Trazado 1087243" d="M5796.05,1716.525a38.671,38.671,0,0,0-7.9.711,6.7,6.7,0,0,0,4.781.2c1.549-.588,3.5-.122,5.3-.369Z" transform="translate(-5651.581 -1628.777)" fill="#aa4c31"/>
        <path id="Trazado_1087244" data-name="Trazado 1087244" d="M5779.212,1538.2c-.4.411-1.095.511-1.247,1.213.777.307,1.3-.423,1.986-.47a18.2,18.2,0,0,1,4.4-2.323,1.863,1.863,0,0,1,2.017.038.9.9,0,0,0,.009-1.45C5783.842,1535.852,5781.641,1537.3,5779.212,1538.2Z" transform="translate(-5639.462 -1458.634)" fill="#623e37"/>
        <path id="Trazado_1087245" data-name="Trazado 1087245" d="M5756.076,1637.656c-1.34.88-2.95,1.146-4.336,1.962a16.961,16.961,0,0,0,4.723-1.208c2.091-1.036,4.391-.593,6.583-1.022C5760.7,1636.531,5758.4,1637.636,5756.076,1637.656Z" transform="translate(-5614.153 -1554.213)" fill="#ab5034"/>
        <path id="Trazado_1087246" data-name="Trazado 1087246" d="M5737.994,1530.811q0,.725-.008,1.45c.108.047.216.1.326.141a2.615,2.615,0,0,0,2.377.012c.318-.19-.017-.647-.256-.91C5739.769,1530.767,5739.065,1530.133,5737.994,1530.811Z" transform="translate(-5591.08 -1454.239)" fill="#f2eae0"/>
        <path id="Trazado_1087247" data-name="Trazado 1087247" d="M5831.254,1324.639c1.979,0,3.958-.038,5.936.017.9.025,1.218-.227,1.3-1.182.454-5.245.484-5.241-4.739-5.253-2.7-.006-5.4.02-8.094-.045-.985-.024-1.423.221-1.365,1.286.086,1.55-.525,3.516.217,4.548.792,1.1,2.889.315,4.41.469a23.273,23.273,0,0,0,2.335.014Z" transform="translate(-5694.246 -1254.978)" fill="#251c27"/>
        <path id="Trazado_1087248" data-name="Trazado 1087248" d="M5829.817,1200.382c1.924,0,3.85-.048,5.771.02,1.035.036,1.285-.354,1.312-1.343.106-3.784.143-3.781-3.7-3.806-3.126-.019-6.254-.019-9.378-.077-.88-.016-1.25.176-1.3,1.174-.187,3.95-.23,3.95,3.686,3.98,1.2.009,2.405,0,3.607,0Z" transform="translate(-5692.397 -1139.559)" fill="#251928"/>
        <path id="Trazado_1087249" data-name="Trazado 1087249" d="M6097.933,1138.23a3.485,3.485,0,0,0-1.279,2.466,21.76,21.76,0,0,1,.058,6.282c-.315,3.064-.09,6.125-.284,9.181-.693.967-.466,2.083-.483,3.149-.02,1.38-.058,2.759-.146,4.136.663,2.458.2,4.962.3,7.443a2.955,2.955,0,0,0,1.083,2.668c.4-3.037.295-6.1.4-9.146q.385-10.9.392-21.8C6097.978,1141.152,6098.343,1139.691,6097.933,1138.23Z" transform="translate(-5970.438 -1086.123)" fill="#a8bbc5"/>
        <path id="Trazado_1087250" data-name="Trazado 1087250" d="M6029.441,1069.588c.556.425.989,1.046,1.768,1.119l2.666.7a2.9,2.9,0,0,1,.009-1.049c.5-1.238-.045-1.49-1.184-1.615a23.627,23.627,0,0,1-3.389-.862C6028.961,1068.5,6029.542,1069.02,6029.441,1069.588Z" transform="translate(-5902.278 -1020.111)" fill="#faf5ec"/>
        <path id="Trazado_1087252" data-name="Trazado 1087252" d="M7448.8,3818.909c-1.789,1.506-3.255,3.2-3.185,5.732a3.7,3.7,0,0,0,3.634,3.742,3.085,3.085,0,0,0-.472-.564c-1.425-.995-2.784-2.092-2.3-4.074a6.256,6.256,0,0,1,4.165-4.8,6.537,6.537,0,0,1,6.022.641c.237.162.558.561.889.071C7455.334,3817.374,7452.08,3817.1,7448.8,3818.909Z" transform="translate(-7413.054 -3600.482)" fill="#3f2525"/>
        <path id="Trazado_1087253" data-name="Trazado 1087253" d="M6291.993,320.326l.805-.316c3.743-2.318,4.015-7.983-.774-11.713-2.361-1.84-5.123-2.584-8.088-1.248-.018.628.3.564.692.334,5.02-.1,7.89,2.034,8.853,6.519a6.309,6.309,0,0,1-.907,4.8A2.269,2.269,0,0,0,6291.993,320.326Z" transform="translate(-6179.519 -305.528)" fill="#faf6eb"/>
        <path id="Trazado_1087254" data-name="Trazado 1087254" d="M6468.618,317.741l-.692-.334c-2.729.684-4.007,2.89-5.312,5.066-.11.812-.645,1.551-.321,2.849C6463.618,321.864,6465.1,318.889,6468.618,317.741Z" transform="translate(-6363.509 -315.887)" fill="#f7d59a"/>
        <path id="Trazado_1087255" data-name="Trazado 1087255" d="M7509.377,4028.88a4.909,4.909,0,0,0-.247,4.728,5.93,5.93,0,0,0,4.591,1.583,1.606,1.606,0,0,0,1.2-1.773c.042-1.985-1.13-3.2-2.667-4.175A4.5,4.5,0,0,1,7509.377,4028.88Z" transform="translate(-7474.302 -3798.626)" fill="#fbfafa"/>
        <path id="Trazado_1087256" data-name="Trazado 1087256" d="M7657.568,3976.967c.146,1.04-.146,2.33,1.455,2.532-.634-1.012-1.375-1.984-.992-3.415C7657.474,3976.378,7657.646,3976.713,7657.568,3976.967Z" transform="translate(-7627.584 -3749.084)" fill="#e46f57"/>
        <path id="Trazado_1087257" data-name="Trazado 1087257" d="M6731.268,2364.409c.237-.789.476-1.578.8-2.668-1.994.6-3.9-.033-5.708.662a63.382,63.382,0,0,0,3.272,8.5C6730.1,2368.369,6729.429,2366.049,6731.268,2364.409Z" transform="translate(-6643.242 -2234.23)" fill="#f8c234"/>
        <path id="Trazado_1087259" data-name="Trazado 1087259" d="M6097.3,3963.838c1.6.883,2.766,2.5,4.7,2.837a6.926,6.926,0,0,0,4.37-.545,2.266,2.266,0,0,0,1.44-2.268,1.957,1.957,0,0,0-1.753-1.779c-2.906-.614-5.652.307-8.415.992C6097.327,3963.153,6097.289,3963.527,6097.3,3963.838Z" transform="translate(-5980.215 -3735.757)" fill="#f8f9fa"/>
        <path id="Trazado_1087261" data-name="Trazado 1087261" d="M6202.682,1213.05a1.865,1.865,0,0,0-1.41,1.243c-1.388,2.883-3.855,4.629-6.5,6.2-2.217,1.32-4.659.723-7.013.88-.514.212-.429.576-.246.965-.008.869.929,1.207,1.107,1.971.892.84,1.52,2.049,2.961,2.121,3.537-1.374,7-3,10.867-3.266.821-.057.972-.54,1.026-1.17a6.6,6.6,0,0,1,.6-2.4,13.194,13.194,0,0,0-.618-5.424A1.5,1.5,0,0,0,6202.682,1213.05Z" transform="translate(-6082.14 -1156.333)" fill="#ef932f"/>
        <path id="Trazado_1087262" data-name="Trazado 1087262" d="M6123.163,1435.331c1.263-2.337.475-4.851.628-7.284-1.737-.251-2.2.1-2.089,1.807A22.256,22.256,0,0,0,6123.163,1435.331Z" transform="translate(-5997.802 -1358.011)" fill="#eba290"/>
        <path id="Trazado_1087263" data-name="Trazado 1087263" d="M6181.308,1191.173c.879,2.094.879,4.375,1.4,6.546a5.56,5.56,0,0,0,.365-3.54c-.675-1.436-.529-3.176-1.653-4.443Q6181.365,1190.453,6181.308,1191.173Z" transform="translate(-6060.768 -1134.455)" fill="#5f3720"/>
        <path id="Trazado_1087264" data-name="Trazado 1087264" d="M6415.795,1372.582c-.311-.159-.558-.487-.974-.363,2.192,7.548,11.6,13.1,19.215,11.319a10.952,10.952,0,0,0,7.365-6.106c.158-.3.325-.66-.034-.966-.411-.062-.455.248-.585.521-2.232,4.639-6.039,6.639-11.013,5.966C6423.293,1382.077,6418.272,1378.975,6415.795,1372.582Z" transform="translate(-6333.553 -1305.667)" fill="#2e2b1f"/>
        <path id="Trazado_1087265" data-name="Trazado 1087265" d="M6461.155,1250.364q.125-.483.246-.965c-2.588-2.058-5.488-3.75-7.538-6.484a17.141,17.141,0,0,0,5.632,7.571C6460.132,1250.936,6460.616,1250.578,6461.155,1250.364Z" transform="translate(-6355.779 -1184.356)" fill="#3b2623"/>
        <path id="Trazado_1087266" data-name="Trazado 1087266" d="M6309.995,1034.9c-1.4,2.991-.843,6.108-.569,9.271-1.334.022-1.708-1.36-3.013-2.03a4.87,4.87,0,0,0,2.3,2.583c.829.462,1.536.044,1.366-.917A28.739,28.739,0,0,1,6309.995,1034.9Z" transform="translate(-6195.396 -989.162)" fill="#4f2719"/>
        <path id="Trazado_1087267" data-name="Trazado 1087267" d="M6385.779,967.449c-1.222-1.655-5.578-1.578-7.5-.014C6380.869,967.294,6383.184,966.534,6385.779,967.449Z" transform="translate(-6275.5 -924.728)" fill="#502915"/>
        <path id="Trazado_1087268" data-name="Trazado 1087268" d="M6173.1,1009.831c.318-.023.658,0,.8-.391-1.825-1.616-4.659-2.389-6.264-1.547A15.094,15.094,0,0,1,6173.1,1009.831Z" transform="translate(-6050.635 -963.495)" fill="#6a2f1c"/>
        <path id="Trazado_1087269" data-name="Trazado 1087269" d="M6155.978,915.866c.063-.984.853-1.833.523-3.3-.537.663-.9,1.108-1.26,1.554l-1.8,1.456C6154.258,915.922,6155.029,916.679,6155.978,915.866Z" transform="translate(-6032.445 -874.37)" fill="#ed922c"/>
        <path id="Trazado_1087270" data-name="Trazado 1087270" d="M6212.354,1062.719c.8-.174.91-.836.953-1.48.041-.59-.224-1.072-.89-1.077-.856-.007-1.085.639-1.09,1.321A1.106,1.106,0,0,0,6212.354,1062.719Z" transform="translate(-6092.743 -1012.866)" fill="#453431"/>
        <path id="Trazado_1087271" data-name="Trazado 1087271" d="M6413.565,1014.851c-.02.668.152,1.27.922,1.275.73.006,1-.578,1.047-1.227s-.1-1.245-.923-1.236C6413.859,1013.671,6413.591,1014.171,6413.565,1014.851Z" transform="translate(-6307.436 -969.233)" fill="#36211b"/>
        <path id="Trazado_1087272" data-name="Trazado 1087272" d="M6339.849,1209.646c-1.62.314-2.8-.434-3.949-1.6C6336.251,1210.029,6338.027,1210.707,6339.849,1209.646Z" transform="translate(-6226.958 -1151.633)" fill="#6b3c28"/>
        <path id="Trazado_1087273" data-name="Trazado 1087273" d="M6334.982,4034.247a2.755,2.755,0,0,0,2.29-.876c.584-.634,1.152-1.47.915-2.231-.252-.8-1.266-.348-1.938-.4-1.192-.087-2.391-.074-3.585-.1-.545-.014-1.132-.059-1.359.584a1.6,1.6,0,0,0,.332,1.675A4.141,4.141,0,0,0,6334.982,4034.247Z" transform="translate(-6225.061 -3800.272)" fill="#e0674e"/>
      </g>
    </g>
  </g>
</svg>
