<svg xmlns="http://www.w3.org/2000/svg" xmlns:xlink="http://www.w3.org/1999/xlink" width="103" height="103" viewBox="0 0 103 103">
  <defs>
    <filter id="Trazado_978624" x="0" y="0" width="103" height="103" filterUnits="userSpaceOnUse">
      <feOffset dy="3" input="SourceAlpha"/>
      <feGaussianBlur stdDeviation="3" result="blur"/>
      <feFlood flood-opacity="0.161"/>
      <feComposite operator="in" in2="blur"/>
      <feComposite in="SourceGraphic"/>
    </filter>
  </defs>
  <g id="Grupo_1216116" data-name="Grupo 1216116" transform="translate(-209.301 -3229)">
    <g id="Grupo_1214503" data-name="Grupo 1214503" transform="translate(218.301 3235)">
      <g id="Grupo_1211421" data-name="Grupo 1211421">
        <g id="Grupo_1208651" data-name="Grupo 1208651">
          <g id="Grupo_1178144" data-name="Grupo 1178144">
            <g id="Grupo_1177896" data-name="Grupo 1177896">
              <g id="Grupo_1176881" data-name="Grupo 1176881">
                <g id="Grupo_1175148" data-name="Grupo 1175148">
                  <g id="Grupo_1173798" data-name="Grupo 1173798">
                    <g id="Grupo_1171925" data-name="Grupo 1171925">
                      <g id="Grupo_1164524" data-name="Grupo 1164524">
                        <g id="Grupo_1144123" data-name="Grupo 1144123">
                          <g transform="matrix(1, 0, 0, 1, -9, -6)" filter="url(#Trazado_978624)">
                            <g id="Trazado_978624-2" data-name="Trazado 978624" transform="translate(9 6)" fill="#f8ecfd">
                              <path d="M 42.5 83.5 C 36.96437835693359 83.5 31.59512901306152 82.41617584228516 26.54141235351562 80.27863311767578 C 21.65934181213379 78.21369171142578 17.27447128295898 75.25723266601562 13.50862312316895 71.49137878417969 C 9.742764472961426 67.72553253173828 6.786305904388428 63.34066009521484 4.721364498138428 58.45858764648438 C 2.583823442459106 53.40486907958984 1.5 48.03562164306641 1.5 42.5 C 1.5 36.96437835693359 2.583823442459106 31.59512901306152 4.721364498138428 26.54141235351562 C 6.786305904388428 21.65934181213379 9.742764472961426 17.27447128295898 13.50862312316895 13.50862312316895 C 17.27447128295898 9.742764472961426 21.65934181213379 6.786305904388428 26.54141235351562 4.721364498138428 C 31.59512901306152 2.583823442459106 36.96437835693359 1.5 42.5 1.5 C 48.03562164306641 1.5 53.40486907958984 2.583823442459106 58.45858764648438 4.721364498138428 C 63.34066009521484 6.786305904388428 67.72553253173828 9.742764472961426 71.49137878417969 13.50862312316895 C 75.25723266601562 17.27447128295898 78.21369171142578 21.65934181213379 80.27863311767578 26.54141235351562 C 82.41617584228516 31.59512901306152 83.5 36.96437835693359 83.5 42.5 C 83.5 48.03562164306641 82.41617584228516 53.40486907958984 80.27863311767578 58.45858764648438 C 78.21369171142578 63.34066009521484 75.25723266601562 67.72553253173828 71.49137878417969 71.49137878417969 C 67.72553253173828 75.25723266601562 63.34066009521484 78.21369171142578 58.45858764648438 80.27863311767578 C 53.40486907958984 82.41617584228516 48.03562164306641 83.5 42.5 83.5 Z" stroke="none"/>
                              <path d="M 42.5 3 C 37.16621398925781 3 31.99356079101562 4.043960571289062 27.125732421875 6.102882385253906 C 22.42246627807617 8.092185974121094 18.19785308837891 10.94070434570312 14.56928253173828 14.56928253173828 C 10.94070434570312 18.19785308837891 8.092185974121094 22.42246627807617 6.102882385253906 27.125732421875 C 4.043960571289062 31.99356079101562 3 37.16621398925781 3 42.5 C 3 47.83378601074219 4.043960571289062 53.00643920898438 6.102882385253906 57.87425231933594 C 8.092185974121094 62.57753372192383 10.94070434570312 66.80213165283203 14.56928253173828 70.43071746826172 C 18.19786834716797 74.05929565429688 22.42246627807617 76.90781402587891 27.125732421875 78.89711761474609 C 31.99356079101562 80.95603942871094 37.16621398925781 82 42.5 82 C 47.83378601074219 82 53.00642395019531 80.95603942871094 57.87425231933594 78.89711761474609 C 62.57753372192383 76.90781402587891 66.80213165283203 74.05929565429688 70.43071746826172 70.43071746826172 C 74.05929565429688 66.80213165283203 76.90781402587891 62.57753372192383 78.89711761474609 57.87425231933594 C 80.95603942871094 53.00642395019531 82 47.83378601074219 82 42.5 C 82 37.16621398925781 80.95603942871094 31.99356079101562 78.89711761474609 27.125732421875 C 76.90781402587891 22.42246627807617 74.05929565429688 18.19786834716797 70.43071746826172 14.56928253173828 C 66.80213165283203 10.94070434570312 62.57753372192383 8.092185974121094 57.87425231933594 6.102882385253906 C 53.00643920898438 4.043960571289062 47.83378601074219 3 42.5 3 M 42.5 0 C 65.97209167480469 0 85 19.02789306640625 85 42.5 C 85 65.97209167480469 65.97209167480469 85 42.5 85 C 19.02789306640625 85 0 65.97209167480469 0 42.5 C 0 19.02789306640625 19.02789306640625 0 42.5 0 Z" stroke="none" fill="#c252f0"/>
                            </g>
                          </g>
                        </g>
                      </g>
                    </g>
                  </g>
                </g>
              </g>
            </g>
          </g>
        </g>
      </g>
    </g>
    <g id="plataforma" transform="translate(226.151 3255.267)">
      <path id="Trazado_1087675" data-name="Trazado 1087675" d="M16,4.056V34.894H61.23a2.056,2.056,0,0,0,2.056-2.056V4.056A2.056,2.056,0,0,0,61.23,2H18.056A2.056,2.056,0,0,0,16,4.056Z" transform="translate(0.419 0.028)" fill="#628dc4"/>
      <path id="Trazado_1087676" data-name="Trazado 1087676" d="M60.2,2V29.754a2.056,2.056,0,0,1-2.056,2.056H16v3.084H61.23a2.056,2.056,0,0,0,2.056-2.056V4.056A2.056,2.056,0,0,0,61.23,2Z" transform="translate(0.419 0.028)" fill="#5479a8"/>
      <path id="Trazado_1087677" data-name="Trazado 1087677" d="M9,11.056V41.894H54.23a2.056,2.056,0,0,0,2.056-2.056V9H11.056A2.056,2.056,0,0,0,9,11.056Z" transform="translate(0.224 0.224)" fill="#6f9fde"/>
      <path id="Trazado_1087678" data-name="Trazado 1087678" d="M53.2,9V36.754a2.056,2.056,0,0,1-2.056,2.056H9v3.084H54.23a2.056,2.056,0,0,0,2.056-2.056V9Z" transform="translate(0.224 0.224)" fill="#628dc4"/>
      <path id="Trazado_1087679" data-name="Trazado 1087679" d="M2,18.056V46.838a2.056,2.056,0,0,0,2.056,2.056H47.23a2.056,2.056,0,0,0,2.056-2.056V16H4.056A2.056,2.056,0,0,0,2,18.056Z" transform="translate(0.028 0.419)" fill="#7cb2f8"/>
      <path id="Trazado_1087680" data-name="Trazado 1087680" d="M46.2,16V43.754a2.056,2.056,0,0,1-2.056,2.056H2v1.028a2.056,2.056,0,0,0,2.056,2.056H47.23a2.056,2.056,0,0,0,2.056-2.056V16Z" transform="translate(0.028 0.419)" fill="#6f9fde"/>
      <path id="Trazado_1087681" data-name="Trazado 1087681" d="M46.669,48.674a11.863,11.863,0,0,0-.947-6.918l-4.051-8.84a5.14,5.14,0,0,0-6.818-2.525l-.015.007a5.14,5.14,0,0,0-4.577-.154,4.86,4.86,0,0,0-.662-.3,5.081,5.081,0,0,0-2.952-.184L25.31,26.864a5.14,5.14,0,0,0-9.338,4.3l5.586,12.13a5.707,5.707,0,0,0-4.24,5.382H29.826a3.091,3.091,0,0,0-.085-2.35l-.86-1.865,1.867-.859a2.056,2.056,0,0,0,.822-.679,2.028,2.028,0,0,0,1.051-.18l1.867-.86a2.044,2.044,0,0,0,.822-.678,2.068,2.068,0,0,0,1.049-.18l1.859-.855,1.909,4.165a5.489,5.489,0,0,1,.185,4.342Z" transform="translate(0.405 0.639)" fill="#6f9fde"/>
      <path id="Trazado_1087682" data-name="Trazado 1087682" d="M32.583,56.569l3.425,7.44H48.021l-5.814-12.63a8.365,8.365,0,0,0,.629-8.423l-4.051-8.84a2.056,2.056,0,1,0-3.735,1.718l-.858-1.865a2.056,2.056,0,1,0-3.736,1.719l-.861-1.868a2.056,2.056,0,0,0-3.738,1.708L22.424,28.07a2.056,2.056,0,1,0-3.736,1.719l8.167,17.742-3.113-1.373a2.769,2.769,0,0,0-3.411,2.261,2.723,2.723,0,0,0,.229,1.587,2.79,2.79,0,0,0,1.365,1.36l7.661,4.685a8.091,8.091,0,0,0,3,.518Z" transform="translate(0.489 0.723)" fill="#ffdbac"/>
      <path id="Trazado_1087683" data-name="Trazado 1087683" d="M41.737,51.215a8.365,8.365,0,0,0,.629-8.423l-4.051-8.84a2.018,2.018,0,0,0-3.007-.845,2.034,2.034,0,0,1,.727.845l4.051,8.84a8.363,8.363,0,0,1-.629,8.423l5.814,12.63h2.28Z" transform="translate(0.959 0.887)" fill="#e6c59b"/>
      <path id="Trazado_1087684" data-name="Trazado 1087684" d="M61.649,1H18.475a3.084,3.084,0,0,0-3.084,3.084V8.2H11.279A3.084,3.084,0,0,0,8.2,11.279v4.112H4.084A3.084,3.084,0,0,0,1,18.475V47.257a3.084,3.084,0,0,0,3.084,3.084H19.857a3.859,3.859,0,0,0,.261.815A3.8,3.8,0,0,0,21.928,53l7.607,4.656a1,1,0,0,0,.18.087,9.365,9.365,0,0,0,2.689.568l2.962,6.425h2.261L34,56.863a1,1,0,0,0-.959-.6,7.325,7.325,0,0,1-2.523-.42L22.95,51.213a1,1,0,0,0-.109-.059,1.775,1.775,0,0,1-.857-.856,1.727,1.727,0,0,1,.617-2.186,1.7,1.7,0,0,1,1.3-.253L26.928,49.2a1.028,1.028,0,0,0,1.349-1.37L20.112,30.083a1.028,1.028,0,1,1,1.868-.86l3.434,7.461v.011l3.009,6.535.933-.43.934-.43-.52-1.131-2.491-5.412a1.028,1.028,0,0,1,1.868-.856l3.011,6.538.933-.431.933-.43-.657-1.428L31.88,35.981a1.028,1.028,0,0,1,1.868-.859L35.9,39.791l1.868-.859-1.291-2.8a1.028,1.028,0,0,1,1.866-.858l4.052,8.84a7.344,7.344,0,0,1-.534,7.4,1.028,1.028,0,0,0-.1,1.028l5.616,12.195h2.261L43.865,52.192a8.977,8.977,0,0,0,.853-1.85h2.539a3.084,3.084,0,0,0,3.084-3.084V43.146h4.112a3.084,3.084,0,0,0,3.084-3.084V35.95h4.112a3.084,3.084,0,0,0,3.084-3.084V4.084A3.084,3.084,0,0,0,61.649,1ZM48.285,47.257a1.028,1.028,0,0,1-1.028,1.028H45.144a9.868,9.868,0,0,0-.885-5.037l-4.05-8.84a3.084,3.084,0,0,0-5.037-.833,3.067,3.067,0,0,0-4.594-.147,3.034,3.034,0,0,0-4.5-.229L23.85,28.359a3.084,3.084,0,1,0-5.6,2.578l7.03,15.275-.626-.277a.938.938,0,0,0-.161-.056,3.785,3.785,0,0,0-4.5,2.405H4.084a1.028,1.028,0,0,1-1.028-1.028V18.475a1.028,1.028,0,0,1,1.028-1.028H47.257a1.028,1.028,0,0,1,1.028,1.028Zm7.2-7.2a1.028,1.028,0,0,1-1.028,1.028H50.341V18.475a3.084,3.084,0,0,0-3.084-3.084H10.251V11.279a1.028,1.028,0,0,1,1.028-1.028H54.453a1.028,1.028,0,0,1,1.028,1.028Zm7.2-7.2a1.028,1.028,0,0,1-1.028,1.028H57.537V11.279A3.084,3.084,0,0,0,54.453,8.2H17.447V4.084a1.028,1.028,0,0,1,1.028-1.028H61.649a1.028,1.028,0,0,1,1.028,1.028Z"/>
      <ellipse id="Elipse_12682" data-name="Elipse 12682" cx="1.304" cy="0.869" rx="1.304" ry="0.869" transform="translate(36.648 18.651)"/>
      <circle id="Elipse_12683" data-name="Elipse 12683" cx="0.869" cy="0.869" r="0.869" transform="translate(40.995 18.651)"/>
      <circle id="Elipse_12684" data-name="Elipse 12684" cx="0.869" cy="0.869" r="0.869" transform="translate(45.343 18.651)"/>
      <circle id="Elipse_12685" data-name="Elipse 12685" cx="0.869" cy="0.869" r="0.869" transform="translate(44.473 11.695)"/>
      <ellipse id="Elipse_12686" data-name="Elipse 12686" cx="1.304" cy="0.869" rx="1.304" ry="0.869" transform="translate(47.951 11.695)"/>
      <circle id="Elipse_12687" data-name="Elipse 12687" cx="0.869" cy="0.869" r="0.869" transform="translate(52.298 11.695)"/>
      <ellipse id="Elipse_12688" data-name="Elipse 12688" cx="0.869" cy="1.304" rx="0.869" ry="1.304" transform="translate(51.429 3.87)"/>
      <ellipse id="Elipse_12689" data-name="Elipse 12689" cx="0.869" cy="1.304" rx="0.869" ry="1.304" transform="translate(55.776 3.87)"/>
      <circle id="Elipse_12690" data-name="Elipse 12690" cx="1.304" cy="1.304" r="1.304" transform="translate(59.254 3.87)"/>
      <path id="Trazado_1087685" data-name="Trazado 1087685" d="M16.243,38.478a1.028,1.028,0,0,0-.29-1.137l-4.112-3.563-1.347,1.554,2.029,1.758H5v2.056H15.279a1.028,1.028,0,0,0,.963-.668Z" transform="translate(0.112 0.916)"/>
      <path id="Trazado_1087686" data-name="Trazado 1087686" d="M5.065,40.668a1.028,1.028,0,0,0,.29,1.137l4.112,3.563,1.347-1.554L8.784,42.056h7.524V40H6.028A1.028,1.028,0,0,0,5.065,40.668Z" transform="translate(0.112 1.09)"/>
    </g>
  </g>
</svg>
