<svg xmlns="http://www.w3.org/2000/svg" width="95.278" height="95" viewBox="0 0 95.278 95">
  <g id="Grupo_1215780" data-name="Grupo 1215780" transform="translate(-531.722 -1406)">
    <rect id="Rectángulo_418844" data-name="Rectángulo 418844" width="64" height="95" transform="translate(563 1406)" fill="#c252f0"/>
    <g id="virtual" transform="translate(512.526 1415.521)">
      <g id="Grupo_1215779" data-name="Grupo 1215779" transform="translate(20.433 2.236)">
        <g id="Grupo_1215776" data-name="Grupo 1215776" transform="translate(0 11.797)">
          <path id="Trazado_1086766" data-name="Trazado 1086766" d="M168.594,406.968h28.835l-7.641-15.54H176.235l-7.641,15.54Z" transform="translate(-145.188 -340.061)" fill="#006edb" fill-rule="evenodd"/>
          <path id="Trazado_1086767" data-name="Trazado 1086767" d="M239.32,406.969h1.028l-7.641-15.54H219.99a57.344,57.344,0,0,0,19.33,15.54Z" transform="translate(-188.106 -340.062)" fill="#0e82f5" fill-rule="evenodd"/>
          <path id="Trazado_1086768" data-name="Trazado 1086768" d="M126.116,472.568H164.7a2.552,2.552,0,0,1,2.551,2.551h0a2.551,2.551,0,0,1-2.551,2.551H126.116a2.552,2.552,0,0,1-2.551-2.551h0a2.552,2.552,0,0,1,2.551-2.551Z" transform="translate(-107.586 -407.817)" fill="#2891fa" fill-rule="evenodd"/>
          <path id="Trazado_1086769" data-name="Trazado 1086769" d="M313.147,472.567h9.867a2.551,2.551,0,0,1,.834,4.961,56.865,56.865,0,0,1-10.7-4.961Z" transform="translate(-265.897 -407.817)" fill="#43a2ff" fill-rule="evenodd"/>
          <path id="Trazado_1086770" data-name="Trazado 1086770" d="M30.208,80.015H98.826a3.516,3.516,0,0,1,3.514,3.514v47.394a3.516,3.516,0,0,1-3.514,3.514H30.208a3.516,3.516,0,0,1-3.514-3.514V83.529a3.516,3.516,0,0,1,3.514-3.514h0Z" transform="translate(-26.694 -80.015)" fill="#2891fa" fill-rule="evenodd"/>
          <path id="Trazado_1086771" data-name="Trazado 1086771" d="M146.178,80.015h50.606a3.524,3.524,0,0,1,3.514,3.514v47.394a3.525,3.525,0,0,1-3.514,3.514H159.167a57.2,57.2,0,0,1-12.989-54.423Z" transform="translate(-124.652 -80.015)" fill="#43a2ff" fill-rule="evenodd"/>
          <path id="Trazado_1086772" data-name="Trazado 1086772" d="M54.773,108.093h66.384v45.16H54.773Z" transform="translate(-50.141 -103.462)" fill="#9ae7fd" fill-rule="evenodd"/>
          <path id="Trazado_1086773" data-name="Trazado 1086773" d="M145.072,108.094h50.6v45.16H155.313a57.2,57.2,0,0,1-10.241-45.16Z" transform="translate(-124.652 -103.462)" fill="#c9f0ff" fill-rule="evenodd"/>
        </g>
        <g id="Grupo_1215777" data-name="Grupo 1215777" transform="translate(9.507 0)">
          <path id="Trazado_1086774" data-name="Trazado 1086774" d="M87.57,8.5h49.824a3.242,3.242,0,0,1,3.242,3.242V61.89a3.243,3.243,0,0,1-3.242,3.242H87.57a3.243,3.243,0,0,1-3.242-3.242V11.74A3.242,3.242,0,0,1,87.57,8.5Z" transform="translate(-84.328 -8.498)" fill="#fecbaa" fill-rule="evenodd"/>
          <path id="Trazado_1086775" data-name="Trazado 1086775" d="M177.2,8.5h37.747a3.251,3.251,0,0,1,3.242,3.242V61.89a3.235,3.235,0,0,1-1.052,2.385A64.031,64.031,0,0,1,177.2,8.5Z" transform="translate(-161.878 -8.498)" fill="#fedfc5" fill-rule="evenodd"/>
          <path id="Trazado_1086776" data-name="Trazado 1086776" d="M137.394,8.5H87.57a3.251,3.251,0,0,0-3.242,3.242v5h56.308v-5A3.251,3.251,0,0,0,137.394,8.5Z" transform="translate(-84.328 -8.498)" fill="#706c64" fill-rule="evenodd"/>
          <path id="Trazado_1086777" data-name="Trazado 1086777" d="M214.945,8.5H177.2a64.11,64.11,0,0,0,.992,8.238h40v-5A3.252,3.252,0,0,0,214.945,8.5Z" transform="translate(-161.879 -8.498)" fill="#8f8b81" fill-rule="evenodd"/>
        </g>
        <g id="Grupo_1215778" data-name="Grupo 1215778" transform="translate(15.851 17.658)">
          <path id="Trazado_1086778" data-name="Trazado 1086778" d="M163.19,163.35h27.526v15.742a37.32,37.32,0,0,1-27.526,0Z" transform="translate(-156.526 -155.466)" fill="#3b3b6b" fill-rule="evenodd"/>
          <path id="Trazado_1086779" data-name="Trazado 1086779" d="M202.747,163.35h21v13.687c-.271.01-.542.017-.815.017A21.717,21.717,0,0,1,202.747,163.35Z" transform="translate(-189.558 -155.466)" fill="#45467e" fill-rule="evenodd"/>
          <path id="Trazado_1086780" data-name="Trazado 1086780" d="M143.216,115.551l20.427,8.653-20.427,8.653L122.789,124.2Z" transform="translate(-122.789 -115.551)" fill="#32325b" fill-rule="evenodd"/>
          <path id="Trazado_1086781" data-name="Trazado 1086781" d="M203.864,115.551l20.427,8.653-20.426,8.653a21.7,21.7,0,0,1-8.448-13.728Z" transform="translate(-183.437 -115.551)" fill="#3b3b6b" fill-rule="evenodd"/>
          <path id="Trazado_1086782" data-name="Trazado 1086782" d="M356.462,210.9l2.767,1.881v5.849l-2.767-2.049-2.766,2.049v-5.849Z" transform="translate(-315.608 -195.169)" fill="#ffc328" fill-rule="evenodd"/>
          <path id="Trazado_1086783" data-name="Trazado 1086783" d="M356.462,210.9l2.767,1.881v1.414a21.567,21.567,0,0,1-5.533,2.052v-3.466Z" transform="translate(-315.608 -195.169)" fill="#ffd54f" fill-rule="evenodd"/>
        </g>
      </g>
      <path id="Trazado_1086784" data-name="Trazado 1086784" d="M56.71,21.238l14.336,6.073H60.521a1.237,1.237,0,0,0,0,2.474H71.045L56.71,35.858l-17.255-7.31ZM78.666,40.9l-.793-.587a1.237,1.237,0,0,0-1.473,0l-.793.587V38.157l1.529-1.04,1.529,1.04ZM69.236,42.7V33.239l-12.043,5.1a1.238,1.238,0,0,1-.965,0l-12.043-5.1V42.7a34.064,34.064,0,0,0,12.526,2.21A34.068,34.068,0,0,0,69.236,42.7ZM35.046,28.548a1.237,1.237,0,0,0,.755,1.139l5.91,2.5V43.52a1.237,1.237,0,0,0,.731,1.13A35.787,35.787,0,0,0,56.71,47.388,35.785,35.785,0,0,0,70.978,44.65a1.237,1.237,0,0,0,.732-1.13V32.191l4.19-1.774v4.551L73.675,36.48a1.239,1.239,0,0,0-.542,1.023v5.849a1.237,1.237,0,0,0,1.974.994l2.03-1.5,2.03,1.5a1.236,1.236,0,0,0,1.973-.994V37.5A1.238,1.238,0,0,0,80.6,36.48l-2.225-1.512V28.548a1.237,1.237,0,0,0-.755-1.139L57.193,18.755a1.237,1.237,0,0,0-.965,0L35.8,27.409a1.236,1.236,0,0,0-.755,1.139ZM34.64,52.931V48.176a1.237,1.237,0,0,1,2.474,0v3.518h3.519a1.237,1.237,0,1,1,0,2.474H35.877a1.236,1.236,0,0,1-1.237-1.237Zm0-31.763a1.237,1.237,0,0,0,2.474,0V17.65h3.519a1.237,1.237,0,1,0,0-2.474H35.877a1.237,1.237,0,0,0-1.237,1.237ZM81.546,48.176v4.755a1.236,1.236,0,0,1-1.237,1.237H75.553a1.237,1.237,0,1,1,0-2.474h3.519V48.176a1.237,1.237,0,0,1,2.474,0Zm-7.23-31.763a1.237,1.237,0,0,1,1.237-1.237h4.756a1.237,1.237,0,0,1,1.237,1.237v4.756a1.237,1.237,0,0,1-2.474,0V17.65H75.553a1.237,1.237,0,0,1-1.237-1.237ZM46.31,6.355a1.237,1.237,0,0,1,1.237-1.237h1.77a1.237,1.237,0,0,1,0,2.474h-1.77A1.236,1.236,0,0,1,46.31,6.355Zm-5.951,0A1.237,1.237,0,0,1,41.6,5.118h1.77a1.237,1.237,0,1,1,0,2.474H41.6A1.237,1.237,0,0,1,40.359,6.355Zm-5.95,0a1.237,1.237,0,0,1,1.237-1.237h1.77a1.237,1.237,0,1,1,0,2.474h-1.77A1.237,1.237,0,0,1,34.408,6.355Zm24.524,0A1.237,1.237,0,0,1,60.17,5.118H80.183a1.237,1.237,0,1,1,0,2.474H60.17A1.237,1.237,0,0,1,58.933,6.355ZM94.842,64.941V17.547a2.28,2.28,0,0,0-2.277-2.277H87.484v2.157h3.964a1.237,1.237,0,0,1,1.237,1.237v45.16a1.238,1.238,0,0,1-1.237,1.238H25.064a1.238,1.238,0,0,1-1.237-1.238V18.664a1.237,1.237,0,0,1,1.237-1.237H28.7V15.27H23.947a2.28,2.28,0,0,0-2.277,2.277V64.941a2.279,2.279,0,0,0,2.277,2.276H92.565A2.28,2.28,0,0,0,94.842,64.941ZM69.626,77.547H46.886l3.862-7.855H65.765Zm9.237,3.787a1.315,1.315,0,0,1-1.314,1.314H38.963a1.314,1.314,0,1,1,0-2.627H77.55A1.315,1.315,0,0,1,78.864,81.334ZM33.181,3.474a2.007,2.007,0,0,0-2,2V9.238H85.01V5.478a2.007,2.007,0,0,0-2-2Zm0,56.632A4.484,4.484,0,0,1,28.7,55.628V19.9H26.3V62.587H90.211V19.9H87.484V55.628a4.484,4.484,0,0,1-4.479,4.478ZM85.01,55.628V11.711H31.176V55.628a2.007,2.007,0,0,0,2,2H83.005a2.007,2.007,0,0,0,2-2ZM92.565,12.8H87.484V5.478A4.484,4.484,0,0,0,83.005,1H33.181A4.484,4.484,0,0,0,28.7,5.478V12.8H23.947A4.757,4.757,0,0,0,19.2,17.547V64.941a4.756,4.756,0,0,0,4.751,4.75H47.99l-3.862,7.855H38.963a3.788,3.788,0,1,0,0,7.576H77.55a3.788,3.788,0,1,0,0-7.576H72.384l-3.862-7.855H92.565a4.756,4.756,0,0,0,4.752-4.75V17.547A4.757,4.757,0,0,0,92.565,12.8Z" transform="translate(0 0)" fill-rule="evenodd"/>
    </g>
  </g>
</svg>
