<svg xmlns="http://www.w3.org/2000/svg" xmlns:xlink="http://www.w3.org/1999/xlink" width="111.51" height="111.51" viewBox="0 0 111.51 111.51">
  <defs>
    <filter id="Elipse_11513" x="0" y="0" width="111.51" height="111.51" filterUnits="userSpaceOnUse">
      <feOffset dy="3" input="SourceAlpha"/>
      <feGaussianBlur stdDeviation="3" result="blur"/>
      <feFlood flood-opacity="0.161"/>
      <feComposite operator="in" in2="blur"/>
      <feComposite in="SourceGraphic"/>
    </filter>
  </defs>
  <g id="Grupo_1215783" data-name="Grupo 1215783" transform="translate(-324.401 -1770.104)">
    <g id="Grupo_1213320" data-name="Grupo 1213320" transform="translate(0 -1395.378)">
      <g id="Grupo_1211723" data-name="Grupo 1211723" transform="translate(0 -2059.973)">
        <g id="Grupo_1209508" data-name="Grupo 1209508" transform="translate(-0.691 3363.245)">
          <g id="Grupo_1144092" data-name="Grupo 1144092" transform="translate(334.093 1868.211)">
            <g id="Grupo_1143593" data-name="Grupo 1143593" transform="translate(0 0)">
              <g id="Grupo_1143497" data-name="Grupo 1143497" transform="translate(0 0)">
                <g transform="matrix(1, 0, 0, 1, -9, -6)" filter="url(#Elipse_11513)">
                  <g id="Elipse_11513-2" data-name="Elipse 11513" transform="translate(9 6)" fill="#fdf2d5" stroke="#f5c038" stroke-width="3">
                    <circle cx="46.755" cy="46.755" r="46.755" stroke="none"/>
                    <circle cx="46.755" cy="46.755" r="45.255" fill="none"/>
                  </g>
                </g>
              </g>
            </g>
          </g>
        </g>
      </g>
    </g>
    <g id="educacion_4_" data-name="educacion (4)" transform="translate(343.567 1790.878)">
      <g id="Grupo_1215782" data-name="Grupo 1215782" transform="translate(1.253 5.881)">
        <path id="Trazado_1086786" data-name="Trazado 1086786" d="M109.791,234.22a14.4,14.4,0,0,0-.086,10.664l1.175,2.3h-50.7s-9.439-5.3,0-14.743l50.263-1.036Z" transform="translate(-49.235 -199.943)" fill="#f1f2f2"/>
        <path id="Trazado_1086787" data-name="Trazado 1086787" d="M110.882,247.184h-50.7s-9.439-5.3,0-14.743l50.263-1.036-.652,2.814a13.805,13.805,0,0,0-.716,2.287H63.071a3.231,3.231,0,1,0,0,6.462h46.023a12.412,12.412,0,0,0,.613,1.915Z" transform="translate(-49.238 -199.942)" fill="#dee1e1"/>
        <path id="Trazado_1086788" data-name="Trazado 1086788" d="M94.566,239.015l-46.344-.073c-5.552,0-10.32-3.542-10.32-9.094a12.649,12.649,0,0,1,.189-3.921,10.057,10.057,0,0,1,9.432-6.565H95.066a2.268,2.268,0,1,1,0,4.535H59.084l-3.514.825-3.056-.825H47.522a5.518,5.518,0,0,0,0,11.036H95.066a2.269,2.269,0,0,1,2.252,2.535c-.132,1.127-1.59,1.548-2.752,1.548Z" transform="translate(-33.69 -189.62)" fill="#b7e546"/>
        <path id="Trazado_1086789" data-name="Trazado 1086789" d="M95.057,273.355a2.267,2.267,0,0,1-2.251,2l-23.489,1.408-24.056-1.408a10.058,10.058,0,0,1-9.2-14.121V263.3a10.053,10.053,0,0,0,10.054,10.054Z" transform="translate(-31.429 -225.508)" fill="#abd641"/>
        <path id="Trazado_1086790" data-name="Trazado 1086790" d="M148.15,257.7v-6.611h-4.712l-1.673.168.1,6.157a.286.286,0,0,0,.39.266l1.182-.289,1.323-.518a.285.285,0,0,1,.208,0l2.791,1.093A.286.286,0,0,0,148.15,257.7Z" transform="translate(-122.756 -216.815)" fill="#ef5227"/>
        <path id="Trazado_1086791" data-name="Trazado 1086791" d="M142.328,251.1v6.3l-1.468.575a.286.286,0,0,1-.39-.266V251.1Z" transform="translate(-121.646 -216.818)" fill="#d83724"/>
        <path id="Trazado_1086792" data-name="Trazado 1086792" d="M143.858,173.371v3.223l-.143,1.429a1,1,0,0,1-1,1l-38.092-.143a1,1,0,0,1-1-1l-.286-4.509,19.555-.934Z" transform="translate(-89.819 -149.402)" fill="#fdcd08"/>
        <path id="Trazado_1086793" data-name="Trazado 1086793" d="M438.523,197.8c-.895,2.206-1.8,4.382-2.69,6.587a2,2,0,0,0,1.838,2.763l1.655.143h4.025a2,2,0,0,0,1.838-2.763l-1.866-4.6-1.174-2.131h-3.625Z" transform="translate(-374.664 -171.138)" fill="#fdcd08"/>
        <path id="Trazado_1086794" data-name="Trazado 1086794" d="M439.11,198.481a5.434,5.434,0,0,0,3.358-.813l-1-2.508-1.658.5h0l-2.161-.288c-.273.673-.67,1.629-.943,2.3h0l-1.865,4.6a2,2,0,0,0,1.837,2.763h2.287a2,2,0,0,1-1.837-2.763l1.393-3.434A.578.578,0,0,1,439.11,198.481Z" transform="translate(-373.81 -168.878)" fill="#faab18"/>
        <path id="Trazado_1086795" data-name="Trazado 1086795" d="M453.839,161.123a3.33,3.33,0,0,0-2.228-3.151c-.336-.116-.824.091-1.2.091a2.807,2.807,0,0,0-2.944,3.06,2.908,2.908,0,0,0,3.185,2.943c.375,0,.622.324.958.208a3.33,3.33,0,0,0,2.228-3.151Z" transform="translate(-384.765 -136.974)" fill="#fdcd08"/>
        <path id="Trazado_1086796" data-name="Trazado 1086796" d="M450.247,163.407a3.251,3.251,0,0,1-1.072.18,3.331,3.331,0,0,1,0-6.662,3.252,3.252,0,0,1,1.072.18,3.343,3.343,0,0,0,0,6.3Z" transform="translate(-383.4 -136.107)" fill="#faab18"/>
        <path id="Trazado_1086797" data-name="Trazado 1086797" d="M79.056,24.426,69.628,27.69l-2.573-.264-18.3,7.489a6,6,0,0,1-3.924,0l-18.3-7.2-2.573-.028-9.428-3.264a1.2,1.2,0,0,1,0-2.267L45.19,11.546a4.9,4.9,0,0,1,3.209,0L79.056,22.159A1.2,1.2,0,0,1,79.056,24.426Z" transform="translate(-13.017 -11.277)" fill="#868491"/>
        <path id="Trazado_1086798" data-name="Trazado 1086798" d="M131,84.179v.968l-20.872,7.225a6,6,0,0,1-3.925,0L85.336,85.147v-.968A4.205,4.205,0,0,1,88.8,80.037a109.774,109.774,0,0,1,38.738,0A4.208,4.208,0,0,1,131,84.179Z" transform="translate(-74.392 -68.733)" fill="#77777f"/>
        <path id="Trazado_1086799" data-name="Trazado 1086799" d="M145.572,99.607v8.523H105.479l-.143-8.237a1.635,1.635,0,0,1,1.346-1.609c.408-.073.531-.43.94-.5a107.17,107.17,0,0,1,36.6.212,1.637,1.637,0,0,1,1.346,1.609Z" transform="translate(-91.534 -84.16)" fill="#868491"/>
        <path id="Trazado_1086800" data-name="Trazado 1086800" d="M143.858,176.595v1.572a1,1,0,0,1-1,1H104.337a1,1,0,0,1-1-1v-4.8l1.286-.934,1.286.934v2.508a.715.715,0,0,0,.715.715Z" transform="translate(-89.819 -149.402)" fill="#faab18"/>
        <path id="Trazado_1086801" data-name="Trazado 1086801" d="M105.909,106.6v10.344h-2.573v-8.523a1.635,1.635,0,0,1,1.346-1.609C105.091,106.744,105.5,106.672,105.909,106.6Z" transform="translate(-89.819 -92.98)" fill="#77777f"/>
        <path id="Trazado_1086802" data-name="Trazado 1086802" d="M94.206,392.836a13.448,13.448,0,0,1,0-10.293l.435-1.932H36.2s-6.579,7.153.428,14.159l58.4.438Z" transform="translate(-29.874 -327.822)" fill="#f1f2f2"/>
        <path id="Trazado_1086803" data-name="Trazado 1086803" d="M95.022,395.211l-58.4-.437c-7.008-7.006-.427-14.159-.427-14.159l58.726.108-.715,1.823a13.394,13.394,0,0,0-.639,1.95H39.928a3.231,3.231,0,1,0,0,6.462H93.585a13.556,13.556,0,0,0,.622,1.882Z" transform="translate(-29.874 -327.825)" fill="#dee1e1"/>
        <path id="Trazado_1086804" data-name="Trazado 1086804" d="M77.538,379.639l-52.842-.1c-5.552,0-10.437-3.133-10.437-8.685,0-1.762-.431-4.188.365-5.628a10.051,10.051,0,0,1,8.8-5.195h55.1a2.268,2.268,0,0,1,0,4.535H64.879l-3.567.79-3-.79H23.429a5.518,5.518,0,0,0,0,11.036h55.1a2.27,2.27,0,0,1,2.231,2.677c-.193,1.057-2.111,1.358-3.224,1.358Z" transform="translate(-13.375 -310.185)" fill="#ef5227"/>
        <path id="Trazado_1086805" data-name="Trazado 1086805" d="M76.155,406.18a2.27,2.27,0,0,1-2.231,1.858h-55.1a10.055,10.055,0,0,1-8.481-15.454v3.542A10.053,10.053,0,0,0,20.394,406.18Z" transform="translate(-8.768 -338.085)" fill="#d83724"/>
        <path id="Trazado_1086806" data-name="Trazado 1086806" d="M330.794,398.413v-6.664h-4.426l-1.963.12.105,6.259a.286.286,0,0,0,.39.266l1.468-.4,1.037-.406a.285.285,0,0,1,.208,0l2.791,1.093A.286.286,0,0,0,330.794,398.413Z" transform="translate(-279.29 -337.368)" fill="#fdcd08"/>
        <path id="Trazado_1086807" data-name="Trazado 1086807" d="M325.284,391.745v6.245l-1.754.686a.286.286,0,0,1-.39-.266v-6.665Z" transform="translate(-278.207 -337.365)" fill="#faab18"/>
      </g>
      <path id="Trazado_1086808" data-name="Trazado 1086808" d="M72.954,38.4l-2.379-5.865a4.355,4.355,0,0,0-2.21-7.027c0-.282,0-7.346,0-7.645a2.224,2.224,0,0,0-1.515-2.127L36.712,5.3a5.918,5.918,0,0,0-3.856,0l-7.5,2.6a1.072,1.072,0,1,0,.7,2.026l7.5-2.6a3.764,3.764,0,0,1,2.453,0L66.148,17.763a.107.107,0,0,1,0,.2L55.773,21.558v-.321A2.677,2.677,0,0,0,53.567,18.6,106.057,106.057,0,0,0,16,18.6a2.677,2.677,0,0,0-2.206,2.637v.321L3.419,17.966a.107.107,0,0,1,0-.2l17.82-6.169a1.072,1.072,0,1,0-.7-2.026L2.718,15.738a2.251,2.251,0,0,0,0,4.255l11.076,3.834V34.436A11.121,11.121,0,0,0,8.724,54.75a11.124,11.124,0,0,0,2.4,21.986h55.1a3.339,3.339,0,0,0,.068-6.677,12.281,12.281,0,0,1-.026-8.894,3.339,3.339,0,0,0-.042-6.678h-.662a3.338,3.338,0,0,0-3.117-4.535H62.42a12.273,12.273,0,0,1-.2-8.328,3.011,3.011,0,0,0,2.213.971h5.723a3.015,3.015,0,0,0,2.5-1.336,3.051,3.051,0,0,0,.3-2.856Zm-3.49-8.682a2.172,2.172,0,1,1-2.172-2.2A2.189,2.189,0,0,1,69.464,29.721ZM66.221,20.21v5.3a4.355,4.355,0,0,0-2.21,7.027l-.748,1.843H55.773V23.827Zm-49.842.5a103.94,103.94,0,0,1,36.81,0,.535.535,0,0,1,.441.527v7.306H47.024a1.072,1.072,0,1,0,0,2.144h6.605V34.38H15.938V30.687H42.021a1.072,1.072,0,1,0,0-2.144H15.938V21.237a.535.535,0,0,1,.441-.527ZM67.424,57.826a1.2,1.2,0,0,1-1.2,1.2h-55.1a6.59,6.59,0,1,0,0,13.179H53.456a1.072,1.072,0,1,0,0-2.144H11.125a4.446,4.446,0,1,1,0-8.892H44.933v6.009a1.072,1.072,0,0,0,1.463,1l2.894-1.133,2.894,1.133a1.072,1.072,0,0,0,1.463-1V61.165H63.995a14.388,14.388,0,0,0,.021,8.892H58.458a1.072,1.072,0,1,0,0,2.144h7.769a1.2,1.2,0,1,1,0,2.391h-55.1a8.981,8.981,0,0,1,0-17.962h55.1a1.2,1.2,0,0,1,1.2,1.2Zm-20.347,3.34H51.5V65.6l-1.822-.714a1.071,1.071,0,0,0-.782,0l-1.822.714ZM28.729,52.1h33.72a1.2,1.2,0,1,1,0,2.391H14.9a8.981,8.981,0,0,1,0-17.962H62.393c-.265.711-.754,1.719-.919,2.391H14.9a6.59,6.59,0,1,0,0,13.179h8.822a1.072,1.072,0,1,0,0-2.144H14.9a4.446,4.446,0,1,1,0-8.892h3.919v5.958a1.072,1.072,0,0,0,1.463,1l2.894-1.133,2.894,1.133a1.072,1.072,0,0,0,1.463-1V41.059h32.6a14.389,14.389,0,0,0,0,8.892H28.729a1.072,1.072,0,0,0,0,2.144ZM20.968,41.06h4.426v4.387l-1.822-.714a1.071,1.071,0,0,0-.782,0l-1.822.714Zm49.912-1a.869.869,0,0,1-.725.389H64.431a.869.869,0,0,1-.725-.389.9.9,0,0,1-.088-.852L65.81,33.8a4.291,4.291,0,0,0,2.964,0l2.193,5.406A.9.9,0,0,1,70.879,40.061Z"/>
    </g>
  </g>
</svg>
