<svg xmlns="http://www.w3.org/2000/svg" width="29.641" height="35.229" viewBox="0 0 29.641 35.229">
  <g id="evaluacion_1_" data-name="evaluacion (1)" transform="translate(-40.632)">
    <g id="Grupo_1215822" data-name="Grupo 1215822" transform="translate(40.632 0)">
      <g id="Grupo_1215821" data-name="Grupo 1215821" transform="translate(0 0)">
        <path id="Trazado_1086878" data-name="Trazado 1086878" d="M172.2,142.727a.515.515,0,1,0,0-1.031h-9.779a.515.515,0,1,0,0,1.031Z" transform="translate(-153.567 -131.951)"/>
        <path id="Trazado_1086879" data-name="Trazado 1086879" d="M86.41,185.712a.515.515,0,0,0,.515.515H98.942a.515.515,0,1,0,0-1.031H86.925A.515.515,0,0,0,86.41,185.712Z" transform="translate(-83.262 -172.461)"/>
        <path id="Trazado_1086880" data-name="Trazado 1086880" d="M86.925,229.729H97.007a.515.515,0,1,0,0-1.031H86.925a.515.515,0,1,0,0,1.031Z" transform="translate(-83.262 -212.97)"/>
        <path id="Trazado_1086881" data-name="Trazado 1086881" d="M86.925,273.23h9.248a.515.515,0,0,0,0-1.031H86.925a.515.515,0,0,0,0,1.031Z" transform="translate(-83.262 -253.479)"/>
        <path id="Trazado_1086882" data-name="Trazado 1086882" d="M86.925,316.731h9.248a.515.515,0,0,0,0-1.031H86.925a.515.515,0,0,0,0,1.031Z" transform="translate(-83.262 -293.988)"/>
        <path id="Trazado_1086883" data-name="Trazado 1086883" d="M86.925,360.232H97.007a.515.515,0,1,0,0-1.031H86.925a.515.515,0,0,0,0,1.031Z" transform="translate(-83.262 -334.498)"/>
        <path id="Trazado_1086884" data-name="Trazado 1086884" d="M86.925,403.733H101.9a.515.515,0,1,0,0-1.031H86.925a.515.515,0,0,0,0,1.031Z" transform="translate(-83.262 -375.007)"/>
        <path id="Trazado_1086885" data-name="Trazado 1086885" d="M86.925,447.234H101.9a.515.515,0,1,0,0-1.031H86.925a.515.515,0,1,0,0,1.031Z" transform="translate(-83.262 -415.516)"/>
        <path id="Trazado_1086886" data-name="Trazado 1086886" d="M63.035,12.648l-.105,0V6.1a1.558,1.558,0,0,0-1.556-1.556H57.4V3.755a.931.931,0,0,0-.928-.932H54.35V2.588a2.569,2.569,0,1,0-5.138,0v.236H47.087a.931.931,0,0,0-.928.932v.786H42.188A1.558,1.558,0,0,0,40.632,6.1V8.538a.515.515,0,0,0,1.031,0V6.1a.526.526,0,0,1,.526-.526h3.971v.786a.931.931,0,0,0,.928.932h9.387a.931.931,0,0,0,.928-.932V5.572h3.971A.526.526,0,0,1,61.9,6.1v6.638a7.169,7.169,0,0,0-3.153,1.319.515.515,0,0,0,.611.83,6.2,6.2,0,1,1-1.514,1.6.515.515,0,1,0-.861-.566A7.239,7.239,0,0,0,61.9,27.034v6.639a.526.526,0,0,1-.526.526H42.188a.526.526,0,0,1-.526-.526V10.929a.515.515,0,0,0-1.031,0V33.673a1.558,1.558,0,0,0,1.556,1.556H61.374a1.558,1.558,0,0,0,1.556-1.556V27.122h.105a7.238,7.238,0,1,0,0-14.475ZM56.372,6.259H47.19V3.854h2.537a.515.515,0,0,0,.515-.515V2.588a1.538,1.538,0,1,1,3.077,0v.751a.515.515,0,0,0,.515.515h2.537V6.259Z" transform="translate(-40.632 0)"/>
        <path id="Trazado_1086887" data-name="Trazado 1086887" d="M306.29,243.846h.046a1.619,1.619,0,0,0,1.137-.517l3.7-4.005a1.61,1.61,0,1,0-2.365-2.184l-2.581,2.8-.638-.617a1.61,1.61,0,0,0-2.237,2.315l1.822,1.761A1.6,1.6,0,0,0,306.29,243.846Zm-2.239-3.773a.58.58,0,0,1,.819-.014l1.017.983a.515.515,0,0,0,.737-.021l2.939-3.183a.571.571,0,0,1,.818-.033.582.582,0,0,1,.033.818l-3.7,4.005a.581.581,0,0,1-.407.186h-.018a.576.576,0,0,1-.4-.163l-1.823-1.761A.58.58,0,0,1,304.051,240.073Z" transform="translate(-284.825 -220.349)"/>
      </g>
    </g>
  </g>
</svg>
